<?xml version="1.0" encoding="UTF-8"?>
<svg version="1.1" xmlns="http://www.w3.org/2000/svg" width="2000" height="1500">
<path d="M0 0 C660 0 1320 0 2000 0 C2000 495 2000 990 2000 1500 C1340 1500 680 1500 0 1500 C0 1005 0 510 0 0 Z " fill="#FEFEFE" transform="translate(0,0)"/>
<path d="M0 0 C17.49 0 34.98 0 53 0 C54.65 8.58 56.3 17.16 58 26 C59.17686081 32.02661159 60.35484092 38.05292734 61.53823853 44.07824707 C62.6985979 49.9916962 63.85323903 55.90626597 65.00898743 61.82061768 C66.17600903 67.7910621 67.34532011 73.76105033 68.51757812 79.73046875 C69.72268423 85.86761026 70.9234879 92.00558072 72.12042141 98.14432144 C72.77210115 101.48587376 73.42605473 104.82693802 74.08352661 108.1673584 C76.91854632 122.5773805 79.58450232 136.97887332 81.71369934 151.51202393 C82.82481072 159.09202201 84.21116822 166.54653424 86 174 C86.33 174 86.66 174 87 174 C87.17221069 173.00093628 87.17221069 173.00093628 87.34790039 171.98168945 C89.87258859 157.49094123 92.80263921 143.19889689 96.33984375 128.91992188 C98.39933163 120.57944174 100.29166229 112.21886361 102.0625 103.8125 C104.00490661 94.60594514 106.00901884 85.41835461 108.125 76.25 C108.35453369 75.25202393 108.58406738 74.25404785 108.82055664 73.22583008 C110.26777281 66.9922613 111.79955394 60.78275821 113.36094666 54.57687378 C115.48024737 46.12671084 117.50075647 37.65292416 119.51928711 29.17822266 C120.19499276 26.34356711 120.87383674 23.5096738 121.55273438 20.67578125 C121.98717005 18.85421218 122.42142171 17.03259921 122.85546875 15.2109375 C123.05649704 14.37339935 123.25752533 13.53586121 123.46464539 12.67294312 C123.65186661 11.88416779 123.83908783 11.09539246 124.03198242 10.28271484 C124.19534592 9.5981723 124.35870941 8.91362976 124.52702332 8.20834351 C125.10919416 5.49016893 125.5430005 2.74199697 126 0 C143.49 0 160.98 0 179 0 C184.24070324 23.05909426 184.24070324 23.05909426 186.26367188 34.25585938 C186.99523277 37.97575919 187.88760064 41.61311338 188.84375 45.28125 C191.1970921 54.49828545 193.07357796 63.79892108 194.9375 73.125 C195.58913594 76.37828017 196.24377544 79.63092834 196.90234375 82.8828125 C197.06843643 83.70366333 197.23452911 84.52451416 197.40565491 85.37023926 C198.65836929 91.4925237 200.04482542 97.57780953 201.4609375 103.6640625 C204.26511153 115.78819697 206.49034895 128.00379842 208.6875 140.25 C209.27415467 143.49465345 209.86219252 146.73905255 210.45088196 149.9833374 C210.811894 151.97545991 211.17153165 153.96783223 211.52946472 155.96051025 C212.61605636 161.98859179 213.77669149 167.99816642 215 174 C215.1225415 173.29845795 215.24508301 172.59691589 215.37133789 171.87411499 C225.58507785 113.47223819 225.58507785 113.47223819 231.92578125 86.64453125 C233.04532151 81.88872422 234.00322122 77.10766792 234.9375 72.3125 C236.50736607 64.25911144 238.26074642 56.25454797 240.0625 48.25 C242.24884918 38.52428339 244.20224441 28.80593958 246 19 C247.32 12.73 248.64 6.46 250 0 C266.5 0 283 0 300 0 C298.90898012 6.54611929 297.36481102 12.88045989 295.75 19.3125 C295.27639038 21.20500488 295.27639038 21.20500488 294.79321289 23.13574219 C292.96336682 30.38076139 291.01715421 37.56349021 288.84033203 44.71069336 C286.46864496 52.59034956 284.56628992 60.58745759 282.59375 68.57421875 C278.28047141 86.0275162 273.64990472 103.3906634 268.84472656 120.71435547 C265.33629284 133.36696548 261.9715857 146.04425795 258.82421875 158.79150391 C258.57285156 159.80905762 258.32148438 160.82661133 258.0625 161.875 C257.81242187 162.88739746 257.56234375 163.89979492 257.3046875 164.94287109 C255.41124572 172.5324169 253.30380932 180.04362239 251.11181641 187.55151367 C249.36831606 193.572164 247.86149807 199.61508213 246.47485352 205.7265625 C245.22787856 211.17075215 243.80714527 216.55624035 242.3125 221.9375 C242.09779053 222.71375732 241.88308105 223.49001465 241.66186523 224.28979492 C240.13141534 229.73716932 240.13141534 229.73716932 239 232 C227.63894272 235.71163347 211.73156024 236.69171108 200.62548828 231.84863281 C190.16666387 226.40479283 185.50680418 218.61992857 181 208 C179.38132879 202.72370102 178.17312576 197.38984262 177 192 C176.65872116 190.48565728 176.31625225 188.97158232 175.97265625 187.45776367 C175.11828841 183.67328468 174.28333637 179.88487298 173.45703125 176.09417725 C173.03702944 174.16967375 172.61248385 172.24616337 172.1875 170.32275391 C169.66986712 158.91964719 167.30044669 147.48677188 164.95703125 136.046875 C164.77969452 135.18124435 164.60235779 134.31561371 164.41964722 133.42375183 C163.54375105 129.14495815 162.67066004 124.86562284 161.80273438 120.58520508 C160.4104321 113.73708723 159.00263714 106.90310107 157.39453125 100.1015625 C155.97192385 94.04078665 154.87423669 87.95580715 153.875 81.8125 C153.70613281 80.81025391 153.53726563 79.80800781 153.36328125 78.77539062 C152.33283535 72.53186213 151.54369332 66.30458437 151 60 C149.62299238 64.62265357 148.51081705 69.18369397 147.6171875 73.9296875 C147.34376103 75.34584434 147.06911087 76.76176527 146.79345703 78.17749023 C146.64571838 78.93633514 146.49797974 79.69518005 146.34576416 80.47702026 C142.52502072 99.93913338 137.8971352 119.19176303 133.125 138.4375 C132.95056995 139.14111916 132.77613991 139.84473831 132.5964241 140.56967926 C130.38353899 149.49123995 128.15577025 158.40904329 125.92095947 167.32513428 C124.58396164 172.6601003 123.25115592 177.99611199 121.91796875 183.33203125 C120.65267712 188.39429218 119.38657018 193.45634214 118.11621094 198.51733398 C115.32162401 209.65731052 112.6045914 220.81396534 110 232 C103.28548662 234.46133188 96.71778697 234.36730717 89.625 234.375 C88.44421875 234.39949219 87.2634375 234.42398438 86.046875 234.44921875 C75.57535975 234.48420154 68.42341368 232.08704528 60.7734375 224.890625 C57.8981083 221.82529607 55.8762041 218.75849978 54 215 C53.31164062 213.63681641 53.31164062 213.63681641 52.609375 212.24609375 C47.22806811 200.25144391 44.97908983 187.29625498 42.21893311 174.51211548 C41.11729436 169.44573889 39.87161353 164.43657297 38.5 159.4375 C36.28953229 151.33951001 34.3835942 143.17948802 32.5 135 C30.5922786 126.71775016 28.65860959 118.45443295 26.4375 110.25 C24.56062911 103.30550193 22.90136659 96.32831695 21.3125 89.3125 C18.69776745 77.79300004 15.87506129 66.33182691 13 54.875 C12.78332672 54.01094543 12.56665344 53.14689087 12.34341431 52.25665283 C10.27145099 43.99766699 8.18959505 35.74123819 6.09375 27.48828125 C5.68189453 25.85947021 5.68189453 25.85947021 5.26171875 24.19775391 C4.77807358 22.2864254 4.2914434 20.3758478 3.80078125 18.46630859 C2.2454243 12.31675713 1.14175928 6.27967603 0 0 Z " fill="#037DC3" transform="translate(150,634)"/>
<path d="M0 0 C1.07056641 0.00161133 2.14113281 0.00322266 3.24414062 0.00488281 C11.03978104 0.12602165 17.23029791 0.95930051 24.3125 4.375 C25.35083984 4.77332031 25.35083984 4.77332031 26.41015625 5.1796875 C36.52032486 9.40063265 44.825785 18.5307308 49.3125 28.375 C49.3125 29.035 49.3125 29.695 49.3125 30.375 C51.98018345 27.73668554 54.60277235 25.0769225 57.15234375 22.32421875 C70.216251 8.42783868 84.66153854 0.59047551 104.04150391 -0.19482422 C119.04892397 -0.45803056 131.82093896 2.15400468 143.3125 12.375 C144.8284375 13.4578125 144.8284375 13.4578125 146.375 14.5625 C159.42106225 25.5823346 164.62071789 46.22419877 166.3125 62.375 C166.82479562 71.37490831 166.66358803 80.39999287 166.60546875 89.41015625 C166.59986169 91.98660534 166.59559685 94.56305766 166.59260559 97.13951111 C166.58239959 103.18099721 166.55886106 109.22229053 166.52855712 115.26370472 C166.49476249 122.15390779 166.47846482 129.0441198 166.46347082 135.93438542 C166.43230202 150.08136078 166.37739233 164.22814006 166.3125 178.375 C150.4725 178.375 134.6325 178.375 118.3125 178.375 C118.27511719 170.64578125 118.23773437 162.9165625 118.19921875 154.953125 C118.16892308 150.04034279 118.13776464 145.12759611 118.10351562 140.21484375 C118.04930199 132.4266138 117.99818745 124.63845413 117.96606445 116.85009766 C117.93994957 110.56705857 117.89948916 104.28425704 117.84931374 98.00136566 C117.83270033 95.61097938 117.8211518 93.22055207 117.81488609 90.83011627 C117.80518487 87.46754884 117.7770534 84.10558165 117.74487305 80.74316406 C117.74630814 79.76707687 117.74774323 78.79098969 117.7492218 77.7853241 C117.60237441 66.85050101 115.38092705 56.01242767 108.3125 47.375 C102.01456639 42.12672199 95.35693793 39.88733377 87.22265625 40.0625 C79.49516842 40.89229735 72.33402738 44.39815766 67.3125 50.375 C62.89386652 57.17289767 60.21839118 63.0679935 60.15428162 71.22822571 C60.1444928 72.17748428 60.13470398 73.12674286 60.12461853 74.10476685 C60.11886307 75.13407318 60.1131076 76.16337952 60.10717773 77.22387695 C60.09727814 78.31700699 60.08737854 79.41013702 60.07717896 80.53639221 C60.04562121 84.14533328 60.02082905 87.75428751 59.99609375 91.36328125 C59.97551929 93.86720622 59.95452269 96.37112775 59.93312073 98.87504578 C59.88358822 104.78932196 59.83830973 110.703621 59.79509836 116.61794585 C59.7407984 124.01421329 59.67988249 131.41042377 59.61914062 138.80664062 C59.5116213 151.99605665 59.41066285 165.18551102 59.3125 178.375 C43.4725 178.375 27.6325 178.375 11.3125 178.375 C11.3031543 175.05026611 11.29380859 171.72553223 11.28417969 168.30004883 C11.2503189 157.27978724 11.19471929 146.25971112 11.12859726 135.23959827 C11.08893158 128.56214636 11.05696951 121.88483227 11.04150391 115.20727539 C11.0262915 108.75560681 10.991764 102.30429717 10.94419098 95.85278893 C10.9294245 93.39903583 10.92146172 90.94523148 10.92061615 88.4914341 C11.08279445 70.52241326 11.08279445 70.52241326 6.3125 53.375 C5.64563779 51.70841156 4.97891262 50.04176826 4.3125 48.375 C3.6525 48.375 2.9925 48.375 2.3125 48.375 C1.631875 47.611875 0.95125 46.84875 0.25 46.0625 C-5.25268936 41.02812463 -11.86372404 39.75828851 -19.2109375 40.03125 C-27.01024383 41.11380356 -33.57634717 45.51220705 -38.6875 51.375 C-42.8396293 57.74761585 -45.78558234 63.44492076 -45.84571838 71.10797119 C-45.86040161 72.52979706 -45.86040161 72.52979706 -45.87538147 73.98034668 C-45.88113693 75.01324829 -45.8868924 76.0461499 -45.89282227 77.11035156 C-45.90272186 78.20333557 -45.91262146 79.29631958 -45.92282104 80.42242432 C-45.95442024 84.03680247 -45.97918736 87.65119378 -46.00390625 91.265625 C-46.02447713 93.77097923 -46.04547364 96.27633001 -46.06687927 98.78167725 C-46.11644266 104.70306977 -46.16171162 110.62448527 -46.20490164 116.54592681 C-46.25916821 123.94992481 -46.32009956 131.35386543 -46.38085938 138.7578125 C-46.48842394 151.96350433 -46.58936866 165.1692347 -46.6875 178.375 C-62.5275 178.375 -78.3675 178.375 -94.6875 178.375 C-94.6875 120.955 -94.6875 63.535 -94.6875 4.375 C-79.8375 4.375 -64.9875 4.375 -49.6875 4.375 C-49.3575 11.635 -49.0275 18.895 -48.6875 26.375 C-47.73875 25.075625 -46.79 23.77625 -45.8125 22.4375 C-33.96659142 7.36950428 -19.13482212 -0.02969401 0 0 Z " fill="#047DC3" transform="translate(797.6875,687.625)"/>
<path d="M0 0 C13.68074612 12.80750701 19.8531983 31.43274226 20.48204994 49.78946304 C20.57276738 54.68309818 20.57115063 59.57446861 20.55859375 64.46875 C20.56853437 66.61375923 20.58048814 68.75875996 20.59432983 70.90374756 C20.62643806 76.5113695 20.63705861 82.1187967 20.64117432 87.72650146 C20.64998027 96.68247657 20.68610933 105.63829357 20.73334885 114.5941391 C20.74569127 117.68060121 20.74519729 120.76685141 20.74307251 123.85333252 C20.77030394 136.63876506 21.58197829 149.18672106 23.01953125 161.890625 C21.43089126 162.38547298 19.84075214 162.87550986 18.25 163.36352539 C16.92198364 163.77363609 16.92198364 163.77363609 15.56713867 164.19203186 C7.54450276 166.39196202 -1.21777002 165.74090306 -8.734375 162.2109375 C-16.10685649 157.87720056 -20.35685996 152.57337248 -23.98046875 144.890625 C-27.10015525 146.33299052 -28.99952253 147.93856339 -31.390625 150.40234375 C-45.31900628 163.44095129 -62.34118027 166.57691284 -80.71484375 166.19140625 C-95.0484766 165.56540467 -107.44729213 160.27117576 -117.6796875 150.24609375 C-122.7796467 144.35374419 -126.31549767 138.19578101 -128.98046875 130.890625 C-129.45806641 129.61638672 -129.45806641 129.61638672 -129.9453125 128.31640625 C-134.75645285 113.48390442 -132.20851657 98.72015262 -125.55859375 84.9453125 C-114.54434599 65.58155434 -95.4118606 56.85878582 -74.80078125 50.984375 C-59.79773325 47.16680553 -44.38621259 46.53556304 -28.98046875 46.890625 C-29.30430517 38.08227425 -30.43116391 31.69963507 -36.54296875 25.140625 C-44.2304873 19.4264757 -53.3654749 18.21720664 -62.66796875 18.390625 C-64.23562988 18.40766479 -64.23562988 18.40766479 -65.83496094 18.42504883 C-79.25135018 18.7584971 -90.7769588 22.35304367 -102.98046875 27.890625 C-105.31026679 28.89906298 -107.64524974 29.89476522 -109.98046875 30.890625 C-111.29367474 26.83792435 -112.59330503 22.78119418 -113.88061523 18.72021484 C-114.32027985 17.33980083 -114.76361033 15.96054877 -115.21069336 14.58251953 C-115.85330791 12.59963548 -116.48255171 10.61292395 -117.109375 8.625 C-117.4916626 7.43100586 -117.8739502 6.23701172 -118.26782227 5.00683594 C-119.28404221 0.5631801 -119.28404221 0.5631801 -117.98046875 -2.109375 C-85.33047617 -21.3435931 -30.38983437 -25.18797083 0 0 Z " fill="#037DC3" transform="translate(570.98046875,704.109375)"/>
<path d="M0 0 C0.71690002 -0.0010675 1.43380005 -0.00213501 2.17242432 -0.00323486 C23.83635226 0.04314439 41.08299022 4.82585067 56.75 20.4375 C57.59691406 21.24960937 57.59691406 21.24960937 58.4609375 22.078125 C73.62658534 37.96594655 74.34127895 60.69267468 74.2890625 81.2265625 C74.29899889 83.38594546 74.31095112 85.54531998 74.32479858 87.7046814 C74.3568964 93.34419406 74.36752826 98.98351293 74.37164307 104.62310791 C74.38045575 113.65226003 74.41632399 122.6812551 74.4638176 131.71027756 C74.47624232 134.83357655 74.47565933 137.95666831 74.47354126 141.07998657 C74.49382117 150.64729335 74.77548531 159.91017914 76.32211304 169.3621521 C76.74892948 172.42980585 76.82319245 175.34476445 76.75 178.4375 C67.12134729 182.42177009 56.47350882 183.27119299 46.63671875 179.34375 C38.55937517 175.46394936 33.32951708 169.59084446 29.75 161.4375 C26.57341342 162.7316649 24.70108613 164.51620609 22.33984375 166.94921875 C8.22092112 180.16619547 -8.83781816 183.06534679 -27.42578125 182.6875 C-42.52423971 182.10103822 -53.71832065 175.95092688 -64.25 165.4375 C-64.83910156 164.86 -65.42820312 164.2825 -66.03515625 163.6875 C-75.17978364 153.95817776 -78.83800911 139.66067566 -78.46875 126.62890625 C-77.41686909 111.28271519 -71.84183267 97.29223174 -60.3359375 86.7734375 C-36.15988427 66.74655821 -4.50894944 63.11135563 25.75 63.4375 C24.7221469 54.11593565 22.15594792 46.4335923 15.0625 40 C-1.49584893 32.18945805 -21.52733998 34.00032267 -38.44921875 39.8671875 C-44.55469089 42.06523995 -50.47917301 44.44521934 -56.25 47.4375 C-65.25 21.10143443 -65.25 21.10143443 -65.25 14.4375 C-56.80106487 10.30964188 -48.21057067 7.21660516 -39.25 4.4375 C-38.52167969 4.210625 -37.79335938 3.98375 -37.04296875 3.75 C-25.08380907 0.41498379 -12.3396977 -0.00394755 0 0 Z " fill="#037DC2" transform="translate(1060.25,687.5625)"/>
<path d="M0 0 C15.51 0 31.02 0 47 0 C47 18.15 47 36.3 47 55 C60.53 55 74.06 55 88 55 C88 69.52 88 84.04 88 99 C74.47 99 60.94 99 47 99 C47.09107811 112.03727101 47.09107811 112.03727101 47.20898438 125.07421875 C47.26308737 130.39987472 47.3142047 135.72543041 47.34643555 141.05126953 C47.37265215 145.35030539 47.41318065 149.64899997 47.46318626 153.94782257 C47.47973194 155.57901987 47.49132211 157.21027603 47.49761391 158.8415451 C47.20320634 176.20608696 47.20320634 176.20608696 55 191 C55 191.66 55 192.32 55 193 C59.82939586 194.924153 64.17808211 195.27483567 69.3125 195.1875 C70.37500977 195.1865332 70.37500977 195.1865332 71.45898438 195.18554688 C76.74929357 195.14238025 81.68804127 194.59021764 87 194 C87 206.54 87 219.08 87 232 C65.89457364 236.96598267 43.09661098 240.30757624 23.4375 229 C11.80776175 221.58276659 5.86719152 211.10668806 2 198 C-0.10048568 186.52311832 -0.27918142 175.1040228 -0.22705078 163.4765625 C-0.22648505 161.68112189 -0.22680637 159.88568082 -0.22793579 158.09024048 C-0.228504 153.26898597 -0.21683695 148.44783325 -0.20278788 143.62660217 C-0.19019076 138.56845633 -0.189103 133.51030754 -0.18673706 128.45214844 C-0.18054847 118.89743108 -0.16417353 109.34276009 -0.14403808 99.78806305 C-0.12159698 88.90036033 -0.1106651 78.01265528 -0.10064721 67.12493515 C-0.07980466 44.74992522 -0.04316161 22.37497877 0 0 Z " fill="#037DC3" transform="translate(1287,634)"/>
<path d="M0 0 C15.51 0 31.02 0 47 0 C47 76.56 47 153.12 47 232 C31.49 232 15.98 232 0 232 C0 155.44 0 78.88 0 0 Z " fill="#027DC3" transform="translate(623,634)"/>
<path d="M0 0 C0 15.18 0 30.36 0 46 C-6.06375 46.061875 -6.06375 46.061875 -12.25 46.125 C-22.206072 46.39996844 -29.84137665 46.87016398 -38 53 C-38.67417969 53.43183594 -39.34835937 53.86367188 -40.04296875 54.30859375 C-46.0535677 58.62751026 -49.64964491 66.03020015 -51.55992126 73.06071472 C-52.2020225 77.34930799 -52.17868486 81.5998471 -52.20532227 85.9309082 C-52.21522186 86.92650253 -52.22512146 87.92209686 -52.23532104 88.94786072 C-52.26685843 92.23214353 -52.29166283 95.51644081 -52.31640625 98.80078125 C-52.33698247 101.08050407 -52.35797912 103.36022312 -52.37937927 105.63993835 C-52.43453087 111.63547723 -52.48397065 117.63105014 -52.53222656 123.62664795 C-52.59133218 130.82287564 -52.65752211 138.01904123 -52.72252655 145.21521759 C-52.82044909 156.14344041 -52.90936475 167.07170336 -53 178 C-69.17 178 -85.34 178 -102 178 C-102 120.58 -102 63.16 -102 4 C-88.14 4 -74.28 4 -60 4 C-60 14.89 -60 25.78 -60 37 C-59.34 37 -58.68 37 -58 37 C-57.9175 36.34 -57.835 35.68 -57.75 35 C-55.04488976 24.17955906 -47.05655451 14.29769978 -38 8 C-24.21836245 0.26619666 -17.56136362 0 0 0 Z " fill="#037DC3" transform="translate(1268,688)"/>
<path d="M0 0 C2.57617938 0.99148093 4.87886745 1.99623362 7.3125 3.25 C8.64216633 3.9045074 9.97289707 4.55685686 11.3046875 5.20703125 C11.94245117 5.5210791 12.58021484 5.83512695 13.23730469 6.15869141 C15.42962833 7.20505529 17.66321148 8.08560549 19.9375 8.9375 C25.19039172 10.96662707 30.15340909 13.52405178 35.16967773 16.0690918 C39.42056698 18.22309811 43.69469844 20.25393574 48.0703125 22.14453125 C50.03926611 23.01740745 51.95496583 23.96206095 53.875 24.9375 C63.12386004 29.79935299 63.12386004 29.79935299 73 33 C73 33.66 73 34.32 73 35 C74.26457031 35.13921875 74.26457031 35.13921875 75.5546875 35.28125 C79.4561394 36.09515833 82.6459359 37.63701729 86.125 39.5 C90.51420913 41.91337344 90.51420913 41.91337344 95.23046875 43.51171875 C97.65585731 44.18097608 98.59260878 45.39781054 100.1875 47.3125 C100.69667969 47.90675781 101.20585938 48.50101563 101.73046875 49.11328125 C105.34374551 54.48316641 104.50967382 61.82566574 104 68 C101.47232402 77.74525681 94.58372801 86.91334636 86 92 C81.33759132 94.64623195 76.20806046 94.99166172 71 94 C67.05372969 92.02428558 63.54956151 89.61049282 60 87 C58.515 86.01 58.515 86.01 57 85 C57 84.34 57 83.68 57 83 C56.46375 82.9175 55.9275 82.835 55.375 82.75 C52.12659309 81.72418729 49.71248141 80.03436106 47 78 C47 77.34 47 76.68 47 76 C46.175 75.79375 45.35 75.5875 44.5 75.375 C40.87090989 73.94928603 38.49154191 72.27582478 35.453125 69.8984375 C32.43847909 67.56544719 29.35179133 65.33972441 26.25 63.125 C25.64913574 62.69541992 25.04827148 62.26583984 24.42919922 61.82324219 C19.58062289 58.37496268 14.64046468 55.07764737 9.671875 51.8046875 C6.69557154 49.79437727 3.8648511 47.63931541 1.0234375 45.4453125 C-2.19881225 43.14370554 -5.64172188 41.23084256 -9.09375 39.296875 C-9.7228125 38.86890625 -10.351875 38.4409375 -11 38 C-11 37.34 -11 36.68 -11 36 C-11.721875 35.79375 -12.44375 35.5875 -13.1875 35.375 C-16.86123237 33.57895306 -19.25849185 31.68915401 -21 28 C-22.25194377 20.95906825 -21.41314524 15.01529966 -17.5703125 8.9765625 C-12.57082242 2.68367201 -8.17522958 -0.56668258 0 0 Z " fill="#FCBB31" transform="translate(1705,772)"/>
<path d="M0 0 C5.29609641 3.48487729 10.24993302 7.90700806 12.31640625 14.09375 C12.75472559 16.61997757 12.96224401 19.06147099 13.0546875 21.625 C13.10367187 22.55183594 13.15265625 23.47867188 13.203125 24.43359375 C11.97414014 30.89952157 4.45082511 34.70454678 -0.6328125 38.3125 C-1.41664307 38.87437012 -2.20047363 39.43624023 -3.00805664 40.01513672 C-9.03872386 44.32163067 -15.13066885 48.53782406 -21.28051758 52.67236328 C-24.7274773 54.97959081 -24.7274773 54.97959081 -27.82641602 57.71826172 C-29.72038883 59.58097268 -31.90657328 60.67506179 -34.21875 61.94921875 C-39.2030124 64.8860425 -43.95422436 68.32266572 -48.49609375 71.90234375 C-50.3203125 73.1875 -50.3203125 73.1875 -52.3203125 73.1875 C-52.3203125 73.8475 -52.3203125 74.5075 -52.3203125 75.1875 C-54.26953125 76.59765625 -54.26953125 76.59765625 -57.0078125 78.25 C-62.66810448 81.74455121 -68.1188142 85.46265563 -73.5703125 89.26953125 C-79.50340892 93.4075289 -83.12419871 94.1911685 -90.3203125 93.1875 C-99.9229743 90.03481887 -105.40308572 81.5089607 -110.3203125 73.1875 C-112.17961317 68.76662411 -112.61707973 64.97026109 -112.6328125 60.1875 C-112.64957031 59.011875 -112.66632813 57.83625 -112.68359375 56.625 C-112.1606514 51.67672829 -110.70446959 48.53940971 -107.140625 45.05859375 C-103.63485411 42.73274298 -100.02191527 40.98171933 -96.1953125 39.25 C-95.44048584 38.90155029 -94.68565918 38.55310059 -93.90795898 38.1940918 C-91.71552223 37.1841244 -89.51904981 36.18366474 -87.3203125 35.1875 C-85.73283203 34.46820312 -85.73283203 34.46820312 -84.11328125 33.734375 C-82.3475569 32.93613624 -80.58070214 32.14039125 -78.8125 31.34765625 C-76.1692094 30.1171589 -73.59362819 28.78411915 -71.0078125 27.4375 C-67.44490448 25.62479241 -64.35789157 24.50625624 -60.3203125 24.1875 C-60.3203125 23.5275 -60.3203125 22.8675 -60.3203125 22.1875 C-59.37414063 21.775 -58.42796875 21.3625 -57.453125 20.9375 C-53.85782067 19.36869853 -50.26501808 17.79423307 -46.67285156 16.21826172 C-45.13378858 15.54392341 -43.59409876 14.87101349 -42.05371094 14.19970703 C-39.80746981 13.22046335 -37.56336879 12.23651585 -35.3203125 11.25 C-34.57362305 10.92257812 -33.82693359 10.59515625 -33.05761719 10.2578125 C-29.27790994 8.5793939 -25.56711226 6.82743828 -21.90625 4.90234375 C-21.19726562 4.53165771 -20.48828125 4.16097168 -19.7578125 3.77905273 C-18.42948701 3.07605282 -17.1084054 2.35910072 -15.796875 1.62524414 C-10.50816416 -1.17802687 -5.76199693 -2.01766896 0 0 Z " fill="#FCBB30" transform="translate(1564.3203125,772.8125)"/>
<path d="M0 0 C4.35314278 2.22798646 8.12925285 5.0264459 12 8 C13.72691271 9.25311207 15.45605866 10.50315268 17.1875 11.75 C18.07695313 12.40355469 18.96640625 13.05710937 19.8828125 13.73046875 C25.88599142 18.10120428 31.97352928 22.35370999 38.04833984 26.62402344 C39.77231245 27.83947372 41.49015037 29.06361525 43.20703125 30.2890625 C44.52767578 31.22878906 44.52767578 31.22878906 45.875 32.1875 C46.61492187 32.71730469 47.35484375 33.24710938 48.1171875 33.79296875 C50.09007772 35.16657214 50.09007772 35.16657214 53 36 C53 36.66 53 37.32 53 38 C53.55300781 38.26425781 54.10601563 38.52851562 54.67578125 38.80078125 C61.81824531 42.48605262 68.33598842 47.14137615 74.5859375 52.1640625 C78.46331423 55.11287652 82.5818977 57.6893707 86.69140625 60.30078125 C87.45324219 60.86152344 88.21507812 61.42226563 89 62 C89 62.66 89 63.32 89 64 C89.66 64 90.32 64 91 64 C93.46035595 68.92071189 92.66666822 75.66503522 91.19921875 80.8046875 C88.37501872 87.19067931 84.46448597 91.26584036 78 94 C72.39860653 95.45516628 68.51827155 93.98229599 63.5625 91.25 C62.63050781 90.69699219 61.69851563 90.14398437 60.73828125 89.57421875 C58.26693283 88.15345782 55.90870191 87.07218945 53.25 86.0625 C48.25282415 84.15767539 43.44590199 81.92556314 38.61621094 79.63696289 C35.39451081 78.11183337 32.16305376 76.61978429 28.90234375 75.1796875 C23.22863318 72.6698481 17.59324475 70.07802885 11.96240234 67.47363281 C10.74178065 66.90986972 9.52042959 66.34768302 8.29833984 65.78710938 C1.19429968 62.52799022 -5.76861632 59.15067215 -12.56542969 55.28710938 C-15.1128563 53.9403351 -17.67966877 52.88909531 -20.375 51.875 C-25.91951522 49.71342988 -29.03360866 47.89945885 -31.8125 42.4375 C-34.84585792 33.02363059 -32.82839946 24.83608267 -29 16 C-28.34 16 -27.68 16 -27 16 C-26.938125 15.46375 -26.87625 14.9275 -26.8125 14.375 C-24.64319213 8.03394623 -19.38834069 4.30105932 -13.734375 1.15625 C-8.96858011 -0.85900041 -5.03425856 -1.25511652 0 0 Z " fill="#FCBB30" transform="translate(1485,634)"/>
<path d="M0 0 C4.23138687 2.66761346 7.3923692 4.95387036 8.6862793 9.93676758 C8.77304932 11.09845459 8.85981934 12.2601416 8.94921875 13.45703125 C9.05814453 14.76091797 9.16707031 16.06480469 9.27929688 17.40820312 C9.37405658 18.81377795 9.46844886 20.21937759 9.5625 21.625 C9.67688367 23.08155087 9.79344338 24.53793238 9.91210938 25.99414062 C10.14668309 28.91410355 10.3691232 31.83454868 10.57958984 34.75634766 C10.89827868 39.17762331 11.26379492 43.59434449 11.63818359 48.01123047 C11.79691735 49.88887084 11.95215417 51.7668099 12.10400391 53.64501953 C12.62091177 60.01379533 13.21052038 66.37386662 13.83013916 72.73332214 C16.07485114 95.79674014 16.07485114 95.79674014 16.75 106.875 C16.81131104 107.69444092 16.87262207 108.51388184 16.93579102 109.3581543 C17.27050605 115.83870475 15.89575711 120.24062731 11.8125 125.4375 C2.5455046 132.92996437 -6.21227083 134.17648486 -17.87939453 133.14208984 C-25.15796115 132.07380707 -30.69506947 128.73762531 -35.4453125 123.25 C-38.95870479 118.3085327 -38.71900322 114.17586144 -38.1875 108.3125 C-38.11901855 107.28060547 -38.05053711 106.24871094 -37.97998047 105.18554688 C-37.73538385 101.72340679 -37.43571901 98.26930758 -37.125 94.8125 C-37.01945801 93.58273437 -36.91391602 92.35296875 -36.80517578 91.0859375 C-36.10799247 83.04324723 -35.33563084 75.00962005 -34.53662109 66.9765625 C-33.92007407 60.7662856 -33.33574318 54.55298001 -32.75308228 48.33944702 C-32.5642756 46.33138453 -32.37345139 44.32352129 -32.18237305 42.31567383 C-31.59337918 36.0715613 -31.03650675 29.82818823 -30.5625 23.57421875 C-30.47685791 22.45917969 -30.39121582 21.34414063 -30.30297852 20.1953125 C-30.14711295 18.12427849 -29.99869583 16.05266507 -29.85913086 13.98046875 C-29.79089111 13.07296875 -29.72265137 12.16546875 -29.65234375 11.23046875 C-29.59812256 10.44438232 -29.54390137 9.6582959 -29.48803711 8.84838867 C-29.125 6.8125 -29.125 6.8125 -27.125 3.8125 C-26.465 3.8125 -25.805 3.8125 -25.125 3.8125 C-25.125 3.1525 -25.125 2.4925 -25.125 1.8125 C-17.87048035 -2.41278263 -7.948836 -3.07074239 0 0 Z " fill="#FDBB30" transform="translate(1641.125,817.1875)"/>
<path d="M0 0 C2.48956118 2.30602075 3.11382637 3.65068534 4.06640625 6.9140625 C4.08311385 9.84831217 3.99216887 12.64292298 3.7734375 15.55859375 C3.71960403 16.39574417 3.66577057 17.23289459 3.61030579 18.09541321 C3.43988681 20.70249535 3.25370328 23.30814518 3.06640625 25.9140625 C2.96307776 27.4652689 2.8606666 29.01653674 2.75927734 30.56787109 C2.44797431 35.24759949 2.10545541 39.9247021 1.75390625 44.6015625 C1.69115509 45.44103424 1.62840393 46.28050598 1.56375122 47.14541626 C0.54649539 60.64773615 -0.6555611 74.12763292 -1.99609375 87.6015625 C-2.07799957 88.43360199 -2.1599054 89.26564148 -2.24429321 90.12289429 C-3.01287415 97.88265948 -3.83305321 105.63585678 -4.8828125 113.36328125 C-5.01905029 114.36834717 -5.15528809 115.37341309 -5.2956543 116.40893555 C-5.98274472 119.10707362 -6.61571966 120.2168632 -8.68359375 122.0390625 C-9.75609375 122.6578125 -10.82859375 123.2765625 -11.93359375 123.9140625 C-12.79984375 124.5121875 -13.66609375 125.1103125 -14.55859375 125.7265625 C-20.97328707 127.98358422 -28.1299464 128.09022577 -34.43359375 125.3515625 C-38.36392888 123.4122524 -40.20894702 119.79132903 -41.93359375 115.9140625 C-42.62475336 113.07267922 -42.87556382 110.25583117 -43.09375 107.34375 C-43.16876236 106.52136337 -43.24377472 105.69897675 -43.32106018 104.85166931 C-43.56200971 102.1652619 -43.77918623 99.47750843 -43.99609375 96.7890625 C-44.15988855 94.91353219 -44.32510881 93.03812586 -44.49169922 91.1628418 C-44.99638428 85.41515213 -45.46879441 79.66509835 -45.93359375 73.9140625 C-46.04250946 72.57272247 -46.04250946 72.57272247 -46.15362549 71.20428467 C-46.36355453 68.61671619 -46.57261037 66.029079 -46.78125 63.44140625 C-46.84802444 62.61421082 -46.91479889 61.78701538 -46.9835968 60.93475342 C-47.29651687 57.043566 -47.60323487 53.15212784 -47.89477539 49.25927734 C-48.51003478 41.18730507 -49.39452599 33.22281277 -50.51025391 25.20239258 C-51.02341161 21.21639426 -51.26737604 17.37028882 -51.30859375 13.3515625 C-51.33695313 12.07152344 -51.3653125 10.79148437 -51.39453125 9.47265625 C-50.73817689 4.40537813 -48.65582636 1.42910923 -44.85546875 -1.9140625 C-29.93803637 -11.68015132 -14.24397225 -9.76347394 0 0 Z " fill="#FDBB30" transform="translate(1653.93359375,558.0859375)"/>
<path d="M0 0 C6.4947634 2.82554045 11.9292074 6.10603252 16 12 C16 12.66 16 13.32 16 14 C16.66 14 17.32 14 18 14 C21.47851984 22.186656 25.26992743 31.21489084 22.28125 40.1484375 C18.58854915 48.15921596 12.19826633 51.10951557 4.5 54.6875 C3.65824219 55.09033203 2.81648438 55.49316406 1.94921875 55.90820312 C-2.05742724 57.79164222 -5.61126319 59.24972672 -10 60 C-10 60.66 -10 61.32 -10 62 C-10.59425781 62.23074219 -11.18851563 62.46148438 -11.80078125 62.69921875 C-19.31541745 65.65598852 -26.70505464 68.85252732 -33.9296875 72.46484375 C-45.087493 78.0437465 -56.52827149 83.08728153 -67.87451172 88.26757812 C-69.3655542 88.94916992 -69.3655542 88.94916992 -70.88671875 89.64453125 C-71.77576904 90.05034424 -72.66481934 90.45615723 -73.58081055 90.87426758 C-75.10031128 91.58134376 -76.60329702 92.32635752 -78.07739258 93.1237793 C-81.31156916 94.59774244 -84.55765409 94.53266474 -88 94 C-94.62568893 90.6221978 -99.36676631 84.92956234 -102 78 C-102.55597336 72.2549419 -102.2983718 66.90428459 -99 62 C-95.60652516 58.91275033 -91.84687438 56.48595184 -88 54 C-85.41268136 52.29767425 -82.83161814 50.58595351 -80.25 48.875 C-79.60337402 48.44968994 -78.95674805 48.02437988 -78.29052734 47.58618164 C-73.89095555 44.66997515 -69.94337114 41.51474384 -66 38 C-64.34796382 36.97601063 -62.67969612 35.97795641 -61 35 C-54.15078396 30.82338485 -47.68786799 26.32212697 -41.30859375 21.4609375 C-35.63385174 17.18880401 -29.71043058 13.26012852 -23.84179688 9.26171875 C-20.47692408 6.95662031 -17.14834587 4.60001453 -13.8203125 2.2421875 C-9.39821045 -0.77547012 -5.21772876 -0.8534317 0 0 Z " fill="#FDBB30" transform="translate(1786,634)"/>
<path d="M0 0 C0.087842 4.47904099 0.14067447 8.95785724 0.1875 13.4375 C0.21263672 14.69755859 0.23777344 15.95761719 0.26367188 17.25585938 C0.35625465 29.07559396 -1.2796988 36.1286178 -9.5234375 44.76171875 C-17.90772223 52.33931363 -26.29859258 53.49575307 -37.32421875 53.27734375 C-43.64763487 52.80023159 -47.66699917 50.74208713 -51.875 46.0625 C-56.89931435 38.82157638 -56.70670257 31.50761166 -56 23 C-54.34550576 16.26683675 -49.54257461 11.87288636 -44 8 C-30.59477922 0.21149184 -15.04065157 -0.17625764 0 0 Z " fill="#FBFDFD" transform="translate(1087,782)"/>
<path d="M0 0 C0.15062046 3.90995254 0.25825104 7.8187368 0.32958984 11.73095703 C0.37387882 13.7001496 0.45019904 15.66853949 0.52734375 17.63671875 C0.69352673 28.54940111 -2.02420662 36.7727101 -9.3125 45 C-17.1346953 52.12688905 -26.34226772 53.32311728 -36.515625 53.20703125 C-42.92514582 52.82619649 -46.98349281 51.43621113 -51.375 46.6875 C-57.03413409 39.90602367 -56.74804915 31.37239623 -56 23 C-54.30688261 16.30254197 -49.60573575 11.77096369 -44 8 C-30.32557367 0.49127483 -15.24399992 -0.54732447 0 0 Z " fill="#FBFCFC" transform="translate(544,782)"/>
<path d="M0 0 C4.57561406 2.34861253 8.09049523 5.13774882 10 10 C10.52188048 16.47131798 9.85698581 20.53987274 5.59375 25.703125 C2.33450405 28.99311855 -0.27220682 30.43629191 -4.9375 30.6875 C-10.12157155 30.36300086 -14.19555495 28.54335568 -18 25 C-20.19821006 21.71695899 -20.26948457 18.89691333 -20.25 15 C-20.25515625 13.96875 -20.2603125 12.9375 -20.265625 11.875 C-20.00499165 9.05402722 -19.45296344 7.39854282 -18 5 C-17.34 5 -16.68 5 -16 5 C-16 4.34 -16 3.68 -16 3 C-10.80598581 -0.28043002 -5.99146883 -1.15220554 0 0 Z " fill="#F9FCF7" transform="translate(1840,843)"/>
<path d="M0 0 C4.57561406 2.34861253 8.09049523 5.13774882 10 10 C10.52188048 16.47131798 9.85698581 20.53987274 5.59375 25.703125 C2.33450405 28.99311855 -0.27220682 30.43629191 -4.9375 30.6875 C-10.12157155 30.36300086 -14.19555495 28.54335568 -18 25 C-20.19821006 21.71695899 -20.26948457 18.89691333 -20.25 15 C-20.25515625 13.96875 -20.2603125 12.9375 -20.265625 11.875 C-20.00499165 9.05402722 -19.45296344 7.39854282 -18 5 C-17.34 5 -16.68 5 -16 5 C-16 4.34 -16 3.68 -16 3 C-10.80598581 -0.28043002 -5.99146883 -1.15220554 0 0 Z M-15 7 C-17.59543534 10.42125567 -17.42462042 13.82456585 -17 18 C-15.39049455 21.93258474 -13.59275791 24.60482806 -10 27 C-5.81426024 27.19932094 -2.01424265 27.33808088 2 26 C2 25.34 2 24.68 2 24 C2.66 24 3.32 24 4 24 C7.10308124 19.34537814 6.74993769 14.44807672 6 9 C4.5729101 6.55136013 3.36462709 5.67254111 1 4 C0.67 3.67 0.34 3.34 0 3 C-6.11079773 2.21524492 -10.22969891 2.81144294 -15 7 Z " fill="#F6C13F" transform="translate(1840,843)"/>
<path d="M0 0 C8.625 -0.25 8.625 -0.25 12 2 C11.814375 3.010625 11.62875 4.02125 11.4375 5.0625 C11.00231753 8.97914227 11.29146979 12.14244663 12 16 C11.01 16 10.02 16 9 16 C8.67 14.02 8.34 12.04 8 10 C6.35 10 4.7 10 3 10 C3 11.98 3 13.96 3 16 C2.01 16 1.02 16 0 16 C0 10.72 0 5.44 0 0 Z " fill="#F6C44B" transform="translate(1829,850)"/>
<path d="M0 0 C4.55142175 2.33619488 8.13908309 5.13582115 10 10 C10.24636612 12.70017269 10.09065666 15.28030006 10 18 C9.34 16.68 8.68 15.36 8 14 C7.67 15.65 7.34 17.3 7 19 C6.67 19 6.34 19 6 19 C5.98582031 18.33613281 5.97164062 17.67226563 5.95703125 16.98828125 C5.71731669 12.55032243 5.43188113 9.67481427 3 5.875 C-1.12548047 3.29657471 -4.26319668 3.14103743 -9 4 C-12.57413578 5.16052203 -12.57413578 5.16052203 -15 8 C-16.07009168 11.29815696 -16.61911149 14.55886931 -17 18 C-17.33 18 -17.66 18 -18 18 C-17.98839844 17.37351562 -17.97679687 16.74703125 -17.96484375 16.1015625 C-17.95582031 15.28429687 -17.94679688 14.46703125 -17.9375 13.625 C-17.92009766 12.40683594 -17.92009766 12.40683594 -17.90234375 11.1640625 C-17.85533666 8.95062858 -17.85533666 8.95062858 -19 7 C-18.67 6.34 -18.34 5.68 -18 5 C-17.34 5 -16.68 5 -16 5 C-16 4.34 -16 3.68 -16 3 C-10.80598581 -0.28043002 -5.99146883 -1.15220554 0 0 Z " fill="#F6C54C" transform="translate(1840,843)"/>
<path d="M0 0 C1.32 0 2.64 0 4 0 C4 12.54 4 25.08 4 38 C2.02 38 0.04 38 -2 38 C-1.67 31.4 -1.34 24.8 -1 18 C-0.01 18 0.98 18 2 18 C2.33 12.39 2.66 6.78 3 1 C2.01 0.67 1.02 0.34 0 0 Z " fill="#1485C4" transform="translate(1370,828)"/>
<path d="M0 0 C3.94514048 1.27950502 5.88874518 2.4059853 8 6 C8.36328125 8.91015625 8.36328125 8.91015625 8.3125 12.0625 C8.30863281 13.10535156 8.30476563 14.14820313 8.30078125 15.22265625 C8 18 8 18 6 21 C5.34 21 4.68 21 4 21 C4 21.66 4 22.32 4 23 C2 22 2 22 1 20 C1.66 20 2.32 20 3 20 C2.84402344 19.40832031 2.68804688 18.81664062 2.52734375 18.20703125 C0.5940246 10.35852373 0.5940246 10.35852373 2 6 C-0.29629994 4.85185003 -2.07698086 4.69230191 -4.625 4.4375 C-5.44226562 4.35371094 -6.25953125 4.26992188 -7.1015625 4.18359375 C-7.72804688 4.12300781 -8.35453125 4.06242188 -9 4 C-9 3.67 -9 3.34 -9 3 C-5.92382812 2.70703125 -5.92382812 2.70703125 -2.84765625 2.4140625 C-2.23792969 2.27742187 -1.62820313 2.14078125 -1 2 C-0.67 1.34 -0.34 0.68 0 0 Z " fill="#F8F7E9" transform="translate(1838,846)"/>
<path d="M0 0 C1.32 0.33 2.64 0.66 4 1 C3.25234375 1.73605469 2.5046875 2.47210937 1.734375 3.23046875 C0.73944821 4.21600944 -0.25533588 5.20169421 -1.25 6.1875 C-1.74113281 6.67025391 -2.23226562 7.15300781 -2.73828125 7.65039062 C-5.08043428 9.9769293 -7.19654785 12.25186989 -9.234375 14.86328125 C-9.81703125 15.56839844 -10.3996875 16.27351562 -11 17 C-11.66 17 -12.32 17 -13 17 C-14.65 13.7 -16.3 10.4 -18 7 C-16.02 7.99 -16.02 7.99 -14 9 C-12.33859237 9.67966676 -10.67299959 10.34938905 -9 11 C-8.9175 10.401875 -8.835 9.80375 -8.75 9.1875 C-7.77705573 6.34974589 -6.55550687 5.50323933 -4 4 C-3.01 4 -2.02 4 -1 4 C-0.67 2.68 -0.34 1.36 0 0 Z " fill="#EBF5F4" transform="translate(860,701)"/>
<path d="M0 0 C7.90868987 4.03504585 13.38766261 9.43576668 18 17 C17.67 17.66 17.34 18.32 17 19 C13.59687262 17.94124926 10.98646769 16.99097846 8 15 C8 14.01 8 13.02 8 12 C8.66 12 9.32 12 10 12 C10 11.01 10 10.02 10 9 C8.68 8.67 7.36 8.34 6 8 C6 7.34 6 6.68 6 6 C5.34 6 4.68 6 4 6 C4 5.34 4 4.68 4 4 C2.68 4.33 1.36 4.66 0 5 C0 3.35 0 1.7 0 0 Z " fill="#0F80C0" transform="translate(827,695)"/>
<path d="M0 0 C1.32 0 2.64 0 4 0 C3.41523944 7.09406894 2.36766005 14.01563899 1 21 C0.67 21 0.34 21 0 21 C-1.58872966 13.97545151 -2.26344149 8.12121569 -1 1 C-0.67 0.67 -0.34 0.34 0 0 Z " fill="#F5FAF8" transform="translate(236,792)"/>
<path d="M0 0 C1.32 0 2.64 0 4 0 C4.38614349 6.8218683 3.00865708 12.49577707 1 19 C-1.30447608 15.54328588 -1.4361206 13.59889563 -1.75 9.5 C-1.84796875 8.3553125 -1.9459375 7.210625 -2.046875 6.03125 C-2 3 -2 3 0 0 Z " fill="#1886C8" transform="translate(1290,816)"/>
<path d="M0 0 C2.97 0 5.94 0 9 0 C9.33 0.66 9.66 1.32 10 2 C7.69 2 5.38 2 3 2 C3 3.98 3 5.96 3 8 C4.65 8 6.3 8 8 8 C8 8.33 8 8.66 8 9 C6.35 9 4.7 9 3 9 C3 11.31 3 13.62 3 16 C2.01 16 1.02 16 0 16 C0 10.72 0 5.44 0 0 Z " fill="#F7BE38" transform="translate(1829,850)"/>
<path d="M0 0 C2.38761318 3.58141977 2.5948362 6.05856662 3.125 10.3125 C3.29257812 11.60800781 3.46015625 12.90351562 3.6328125 14.23828125 C3.95387402 17.52745407 4.07164371 20.69927182 4 24 C2 23 2 23 1.3671875 21.15234375 C1.20476562 20.42144531 1.04234375 19.69054687 0.875 18.9375 C0.70742188 18.20402344 0.53984375 17.47054687 0.3671875 16.71484375 C0.24601562 16.14894531 0.12484375 15.58304688 0 15 C-0.99 16.32 -1.98 17.64 -3 19 C-2.37679879 12.56025419 -1.35991738 6.32427599 0 0 Z " fill="#E0EEF5" transform="translate(300,691)"/>
<path d="M0 0 C2.21918148 3.32877221 2.14064296 4.50528331 1.55859375 8.328125 C0.31329303 14.28466829 -1.3601117 20.14216643 -3 26 C-3.33 26 -3.66 26 -4 26 C-4.29725173 17.08244798 -3.58746019 8.26020245 0 0 Z " fill="#1481C5" transform="translate(268,819)"/>
<path d="M0 0 C0.33 0 0.66 0 1 0 C2.54180974 5.07890267 3.1734877 8.7477906 2.29296875 13.96875 C1.81000968 17.31726625 1.93968237 20.62221246 2 24 C1.34 24.33 0.68 24.66 0 25 C-0.66 25.99 -1.32 26.98 -2 28 C-2.10402152 21.55716721 -1.73459309 15.33540878 -1 8.9375 C-0.85691406 7.6390918 -0.85691406 7.6390918 -0.7109375 6.31445312 C-0.47830736 4.20915031 -0.23978031 2.10450044 0 0 Z " fill="#FBF7EA" transform="translate(1652,632)"/>
<path d="M0 0 C0.66 0.33 1.32 0.66 2 1 C1.04578192 2.14926266 0.08647955 3.29430541 -0.875 4.4375 C-1.40867187 5.07558594 -1.94234375 5.71367188 -2.4921875 6.37109375 C-4 8 -4 8 -6 9 C-6 9.99 -6 10.98 -6 12 C-8.31 12 -10.62 12 -13 12 C-11.64891639 8.90989789 -10.20982067 7.03089847 -7.625 4.875 C-7.03976562 4.37742187 -6.45453125 3.87984375 -5.8515625 3.3671875 C-3.95143888 1.96414264 -2.19508738 0.8762283 0 0 Z " fill="#E8F3F4" transform="translate(504,788)"/>
<path d="M0 0 C2.64 0 5.28 0 8 0 C2.8233497 4.20602837 -2.44891351 8.29927567 -8 12 C-9 9 -9 9 -7.875 6.375 C-6 4 -6 4 -3.3125 3.1875 C-2.549375 3.125625 -1.78625 3.06375 -1 3 C-0.67 2.01 -0.34 1.02 0 0 Z " fill="#EAF5F4" transform="translate(1229,692)"/>
<path d="M0 0 C1.29132785 3.87398355 0.41113572 6.81988786 -0.4375 10.6875 C-0.58509766 11.38939453 -0.73269531 12.09128906 -0.88476562 12.81445312 C-1.2495932 14.54444194 -1.62388689 16.27242963 -2 18 C-2.33 18 -2.66 18 -3 18 C-3.66 12.72 -4.32 7.44 -5 2 C-3.68 1.67 -2.36 1.34 -1 1 C-0.67 0.67 -0.34 0.34 0 0 Z " fill="#EDF6F8" transform="translate(367,794)"/>
<path d="M0 0 C2.10409639 -0.02701408 4.20829178 -0.04640223 6.3125 -0.0625 C7.48425781 -0.07410156 8.65601563 -0.08570313 9.86328125 -0.09765625 C13 0 13 0 16 1 C16 2.32 16 3.64 16 5 C10.72 4.67 5.44 4.34 0 4 C0.99 3.34 1.98 2.68 3 2 C2.01 1.34 1.02 0.68 0 0 Z " fill="#F9F1D7" transform="translate(1624,812)"/>
<path d="M0 0 C2.02907167 3.3146667 2.12742133 5.4315979 1.625 9.25 C1.51414062 10.14203125 1.40328125 11.0340625 1.2890625 11.953125 C1.19367188 12.62859375 1.09828125 13.3040625 1 14 C0.34 14 -0.32 14 -1 14 C-1 15.98 -1 17.96 -1 20 C-2.32 20.33 -3.64 20.66 -5 21 C-4.72285156 19.90300781 -4.44570313 18.80601562 -4.16015625 17.67578125 C-3.79420763 16.22137007 -3.42832573 14.7669421 -3.0625 13.3125 C-2.88009766 12.59126953 -2.69769531 11.87003906 -2.50976562 11.12695312 C-1.58174093 7.43172752 -0.70201539 3.74654531 0 0 Z " fill="#E3F1F2" transform="translate(420,746)"/>
<path d="M0 0 C0.33 0 0.66 0 1 0 C1.70132913 6.70019789 2.11044961 13.26257354 2 20 C1.67 20 1.34 20 1 20 C0.67 23.63 0.34 27.26 0 31 C-0.33 31 -0.66 31 -1 31 C-1.13430792 20.6135207 -0.76214036 10.35694312 0 0 Z " fill="#F7C146" transform="translate(1653,880)"/>
<path d="M0 0 C-4.29 0.66 -8.58 1.32 -13 2 C-13 2.66 -13 3.32 -13 4 C-14.32 4 -15.64 4 -17 4 C-17 3.34 -17 2.68 -17 2 C-19.64 2.66 -22.28 3.32 -25 4 C-25 3.34 -25 2.68 -25 2 C-21.13279563 -0.51985391 -16.96799696 -0.47889233 -12.5 -0.6875 C-11.74074219 -0.73455078 -10.98148438 -0.78160156 -10.19921875 -0.83007812 C-6.48694173 -1.02836963 -3.63861187 -0.90965297 0 0 Z " fill="#1F8AC7" transform="translate(1065,835)"/>
<path d="M0 0 C0.66 0 1.32 0 2 0 C5.26326325 6.18302511 2.8908063 11.71764358 1 18 C-1 15 -1 15 -1 13 C-0.34 13 0.32 13 1 13 C1 12.01 1 11.02 1 10 C0.34 10 -0.32 10 -1 10 C-0.7525 8.824375 -0.7525 8.824375 -0.5 7.625 C0.0623707 5.11791961 0.0623707 5.11791961 0 3 C0 2.01 0 1.02 0 0 Z " fill="#1484C1" transform="translate(394,828)"/>
<path d="M0 0 C0 0.33 0 0.66 0 1 C-1.134375 1.28875 -2.26875 1.5775 -3.4375 1.875 C-4.613125 2.24625 -5.78875 2.6175 -7 3 C-7.33 3.66 -7.66 4.32 -8 5 C-9.4800841 4.88637738 -10.95910074 4.75877092 -12.4375 4.625 C-13.26121094 4.55539062 -14.08492187 4.48578125 -14.93359375 4.4140625 C-15.61550781 4.27742187 -16.29742188 4.14078125 -17 4 C-17.33 3.34 -17.66 2.68 -18 2 C-11.88019467 0.59545452 -6.28260706 -0.23268915 0 0 Z " fill="#268CC9" transform="translate(1064,752)"/>
<path d="M0 0 C0.33 0 0.66 0 1 0 C1.76681614 8.62242152 1.76681614 8.62242152 -0.11328125 12 C-1.5 13.625 -1.5 13.625 -4 16 C-4.99 15.67 -5.98 15.34 -7 15 C-6.67 14.34 -6.34 13.68 -6 13 C-5.34 13 -4.68 13 -4 13 C-3.79503906 12.31292969 -3.59007812 11.62585938 -3.37890625 10.91796875 C-3.10949219 10.01691406 -2.84007812 9.11585938 -2.5625 8.1875 C-2.29566406 7.29417969 -2.02882813 6.40085937 -1.75390625 5.48046875 C-1.19612127 3.64526945 -0.60655425 1.81966274 0 0 Z " fill="#F8B92B" transform="translate(1848,854)"/>
<path d="M0 0 C1.98 0.99 1.98 0.99 4 2 C4 2.66 4 3.32 4 4 C5.32 4.33 6.64 4.66 8 5 C8.33 6.32 8.66 7.64 9 9 C7.02 9 5.04 9 3 9 C0 3.2 0 3.2 0 0 Z " fill="#0F81C3" transform="translate(1338,823)"/>
<path d="M0 0 C1 3 1 3 0.1875 4.875 C-0.204375 5.57625 -0.59625 6.2775 -1 7 C-1.268125 7.86625 -1.53625 8.7325 -1.8125 9.625 C-3 12 -3 12 -5.625 13.3125 C-6.40875 13.539375 -7.1925 13.76625 -8 14 C-6.58036591 8.32146365 -3.60636039 4.46825784 0 0 Z " fill="#E6F2F3" transform="translate(867,735)"/>
<path d="M0 0 C0.66 0 1.32 0 2 0 C2.042721 1.66611905 2.04063832 3.33382885 2 5 C1.67 5.33 1.34 5.66 1 6 C0.50351772 9.06464968 0.09888855 12.13665918 -0.3046875 15.21484375 C-1 18 -1 18 -4 20 C-3.21085905 13.21338787 -1.58725189 6.63850633 0 0 Z " fill="#2288C4" transform="translate(260,704)"/>
<path d="M0 0 C0 0.66 0 1.32 0 2 C-4.29 2 -8.58 2 -13 2 C-13 2.66 -13 3.32 -13 4 C-14.32 3.67 -15.64 3.34 -17 3 C-12.16289324 -1.83710676 -6.18504483 -1.08509558 0 0 Z " fill="#1B85C8" transform="translate(1256,689)"/>
<path d="M0 0 C2.3125 -0.328125 2.3125 -0.328125 5 -0.25 C6.3303125 -0.22679687 6.3303125 -0.22679687 7.6875 -0.203125 C10 0 10 0 12 1 C12 1.66 12 2.32 12 3 C7.38 3 2.76 3 -2 3 C-1.34 2.01 -0.68 1.02 0 0 Z " fill="#FAC040" transform="translate(1830,843)"/>
<path d="M0 0 C5.83657047 0.06911728 8.50787844 1.61116972 12.8125 5.4375 C12.4825 6.4275 12.1525 7.4175 11.8125 8.4375 C11.4825 7.4475 11.1525 6.4575 10.8125 5.4375 C7.8425 4.9425 7.8425 4.9425 4.8125 4.4375 C4.8125 3.7775 4.8125 3.1175 4.8125 2.4375 C0.8525 2.4375 -3.1075 2.4375 -7.1875 2.4375 C-4.64190061 -0.10809939 -3.53805377 0.08296126 0 0 Z " fill="#F4C242" transform="translate(1479.1875,633.5625)"/>
<path d="M0 0 C6.6 0 13.2 0 20 0 C20 0.33 20 0.66 20 1 C17.69 1.33 15.38 1.66 13 2 C13 2.33 13 2.66 13 3 C11.20841511 3.02696365 9.41671527 3.04637917 7.625 3.0625 C6.62726563 3.07410156 5.62953125 3.08570313 4.6015625 3.09765625 C2 3 2 3 0 2 C0 1.34 0 0.68 0 0 Z " fill="#D4E7EF" transform="translate(356,868)"/>
<path d="M0 0 C0.89203125 0.00902344 1.7840625 0.01804687 2.703125 0.02734375 C3.37859375 0.03894531 4.0540625 0.05054688 4.75 0.0625 C4.75 0.7225 4.75 1.3825 4.75 2.0625 C0.99600202 3.2664337 -2.58217412 3.16127617 -6.5 3.125 C-7.76328125 3.11597656 -9.0265625 3.10695313 -10.328125 3.09765625 C-11.29234375 3.08605469 -12.2565625 3.07445312 -13.25 3.0625 C-8.72285147 0.63724186 -5.12788671 -0.06747219 0 0 Z " fill="#F1F8F7" transform="translate(517.25,831.9375)"/>
<path d="M0 0 C3.22695917 1.35522808 6.10431953 3.04156876 9 5 C5.52176885 6.15941038 3.54104422 5.70820884 0 5 C0.33 4.34 0.66 3.68 1 3 C-0.45736087 2.80508548 -1.91594593 2.61930642 -3.375 2.4375 C-4.59316406 2.28087891 -4.59316406 2.28087891 -5.8359375 2.12109375 C-8.04899186 1.81762672 -8.04899186 1.81762672 -10 3 C-10.66 2.34 -11.32 1.68 -12 1 C-8.25099104 -0.87450448 -4.08103368 -0.54413782 0 0 Z " fill="#F5C03E" transform="translate(1786,634)"/>
<path d="M0 0 C-0.99 0.66 -1.98 1.32 -3 2 C-3 2.33 -3 2.66 -3 3 C-5.31 3 -7.62 3 -10 3 C-9.67 3.66 -9.34 4.32 -9 5 C-13.455 4.01 -13.455 4.01 -18 3 C-18 2.67 -18 2.34 -18 2 C-15.75256955 1.46818825 -13.50192898 0.94992874 -11.25 0.4375 C-9.99703125 0.14746094 -8.7440625 -0.14257812 -7.453125 -0.44140625 C-4.40526252 -0.93444283 -2.82358172 -1.07666879 0 0 Z " fill="#E6F4F6" transform="translate(1372,867)"/>
<path d="M0 0 C2.32590854 3.63423209 2.16265833 6.77088331 2 11 C-0.97 11 -3.94 11 -7 11 C-3.25 8 -3.25 8 -1 8 C-0.67 5.36 -0.34 2.72 0 0 Z " fill="#D0E6F0" transform="translate(1084,740)"/>
<path d="M0 0 C0.33 0 0.66 0 1 0 C1 3.63 1 7.26 1 11 C-1.64 11 -4.28 11 -7 11 C-6.01 10.67 -5.02 10.34 -4 10 C-4 9.34 -4 8.68 -4 8 C-3.01 8 -2.02 8 -1 8 C-1 7.34 -1 6.68 -1 6 C-1.66 6 -2.32 6 -3 6 C-2 3 -2 3 0 0 Z " fill="#ECF6F6" transform="translate(541,740)"/>
<path d="M0 0 C0.99 0.33 1.98 0.66 3 1 C3 1.66 3 2.32 3 3 C3.66 3 4.32 3 5 3 C5 4.32 5 5.64 5 7 C0.31479085 5.78184562 -3.70543612 4.30440013 -8 2 C-5.51588385 0.75794193 -3.74800896 0.85907646 -1 1 C-0.67 1.33 -0.34 1.66 0 2 C0 1.34 0 0.68 0 0 Z " fill="#F8C651" transform="translate(1517,705)"/>
<path d="M0 0 C0.33 0 0.66 0 1 0 C1 1.98 1 3.96 1 6 C1.66 6 2.32 6 3 6 C2.34 7.65 1.68 9.3 1 11 C0.34 11 -0.32 11 -1 11 C-1 11.66 -1 12.32 -1 13 C-3 12 -3 12 -4 10 C-3.34 10 -2.68 10 -2 10 C-2.04125 9.278125 -2.0825 8.55625 -2.125 7.8125 C-1.99078695 4.79270631 -1.24829381 2.73064271 0 0 Z " fill="#F9F1D7" transform="translate(1843,856)"/>
<path d="M0 0 C0.66 0 1.32 0 2 0 C3 7.75 3 7.75 3 10 C2.34 10 1.68 10 1 10 C0.67 9.34 0.34 8.68 0 8 C-0.66 9.98 -1.32 11.96 -2 14 C-3.49341969 11.01316063 -2.40648676 9.04839022 -1.5625 5.875 C-1.27503906 4.77929688 -0.98757813 3.68359375 -0.69140625 2.5546875 C-0.46324219 1.71164062 -0.23507812 0.86859375 0 0 Z " fill="#E9F6F7" transform="translate(268,830)"/>
<path d="M0 0 C0 0.99 0 1.98 0 3 C-0.66 3 -1.32 3 -2 3 C-2.33 3.66 -2.66 4.32 -3 5 C-5.54868779 6.72946672 -6.65256571 7.0473774 -9.75 6.625 C-10.4925 6.41875 -11.235 6.2125 -12 6 C-8.40461874 2.91824463 -4.933456 0 0 0 Z " fill="#E7F2F7" transform="translate(1017,729)"/>
<path d="M0 0 C0.33 0 0.66 0 1 0 C3.48063781 10.37357631 3.48063781 10.37357631 2 16 C-1.22262234 11.16606649 -1.2207471 6.73942451 -1 1 C-0.67 0.67 -0.34 0.34 0 0 Z " fill="#1D88CA" transform="translate(211,680)"/>
<path d="M0 0 C0 0.66 0 1.32 0 2 C-0.99 2 -1.98 2 -3 2 C-3 2.66 -3 3.32 -3 4 C-2.34 4.33 -1.68 4.66 -1 5 C-4 7 -4 7 -8 7 C-8 6.34 -8 5.68 -8 5 C-8.66 4.67 -9.32 4.34 -10 4 C-8.71086513 3.32845067 -7.41859796 2.66291141 -6.125 2 C-5.40570312 1.62875 -4.68640625 1.2575 -3.9453125 0.875 C-2 0 -2 0 0 0 Z " fill="#F8C44C" transform="translate(1530,784)"/>
<path d="M0 0 C0.33 0.99 0.66 1.98 1 3 C-0.9628843 6.1708131 -2.12536 7.74158364 -5.75 8.8125 C-6.4925 8.874375 -7.235 8.93625 -8 9 C-5.89851796 5.01824456 -3.63094642 2.64960955 0 0 Z " fill="#E0EEF2" transform="translate(1229,741)"/>
<path d="M0 0 C0.33 0.66 0.66 1.32 1 2 C1.99 1.67 2.98 1.34 4 1 C4.6875 2.625 4.6875 2.625 5 5 C3.5625 8.25 3.5625 8.25 2 11 C-0.15157675 7.77263488 -1.19090344 6.17269253 -0.5625 2.3125 C-0.376875 1.549375 -0.19125 0.78625 0 0 Z " fill="#1382C3" transform="translate(858,736)"/>
<path d="M0 0 C0 0.99 0 1.98 0 3 C-4.21627805 5.81085203 -7.02951792 6.11045516 -12 6 C-12.33 6.99 -12.66 7.98 -13 9 C-13 7.68 -13 6.36 -13 5 C-11.21046815 4.16209211 -9.41830305 3.32980604 -7.625 2.5 C-6.62726562 2.0359375 -5.62953125 1.571875 -4.6015625 1.09375 C-2 0 -2 0 0 0 Z " fill="#258AC6" transform="translate(1008,697)"/>
<path d="M0 0 C0.99 0.33 1.98 0.66 3 1 C-0.16952847 4.26008643 -3.39937989 7.22237877 -7 10 C-7 7 -7 7 -6 4 C-5.34 4 -4.68 4 -4 4 C-4 3.34 -4 2.68 -4 2 C-2.68 2 -1.36 2 0 2 C0 1.34 0 0.68 0 0 Z " fill="#E8F4F3" transform="translate(761,697)"/>
<path d="M0 0 C0.33 0 0.66 0 1 0 C1 5.28 1 10.56 1 16 C1.99 16 2.98 16 4 16 C4 14.02 4 12.04 4 10 C4.33 10 4.66 10 5 10 C5 12.31 5 14.62 5 17 C3.02 17.33 1.04 17.66 -1 18 C-1.33 17.01 -1.66 16.02 -2 15 C-1.34 15 -0.68 15 0 15 C0 10.05 0 5.1 0 0 Z " fill="#FCF1DD" transform="translate(1828,850)"/>
<path d="M0 0 C0 0.66 0 1.32 0 2 C-0.99 2 -1.98 2 -3 2 C-3 2.66 -3 3.32 -3 4 C-9.27692308 8.06153846 -9.27692308 8.06153846 -12.9375 7.75 C-13.618125 7.5025 -14.29875 7.255 -15 7 C-12.87014687 4.87014687 -11.24646669 4.1100986 -8.5 2.9375 C-1.67169811 0 -1.67169811 0 0 0 Z " fill="#DAECF0" transform="translate(533,860)"/>
<path d="M0 0 C-0.75 1.9375 -0.75 1.9375 -2 4 C-4 4.875 -4 4.875 -6 5 C-6.66 4.34 -7.32 3.68 -8 3 C-8 2.01 -8 1.02 -8 0 C-4.94736336 -0.98120464 -3.05263664 -0.98120464 0 0 Z " fill="#F9C03B" transform="translate(1538,827)"/>
<path d="M0 0 C0.99 0 1.98 0 3 0 C3.2295711 3.36704285 3.33943529 5.41370268 1.625 8.375 C1.08875 8.91125 0.5525 9.4475 0 10 C-0.66 10 -1.32 10 -2 10 C-1.125 2.25 -1.125 2.25 0 0 Z " fill="#E4F0F6" transform="translate(404,808)"/>
<path d="M0 0 C0.33 0 0.66 0 1 0 C0.50769231 6.4 0.50769231 6.4 -2.0625 9.4375 C-3.0215625 10.2109375 -3.0215625 10.2109375 -4 11 C-5.09658936 7.71023192 -4.79953138 6.28696233 -4 3 C-2.68 2.67 -1.36 2.34 0 2 C0 1.34 0 0.68 0 0 Z " fill="#F6C03B" transform="translate(1573,713)"/>
<path d="M0 0 C-0.33 0.99 -0.66 1.98 -1 3 C-5.76307437 3.95261487 -10.1666528 4.08333357 -15 4 C-12.73625389 1.73625389 -11.68987631 1.51648574 -8.625 0.875 C-7.85414062 0.70742188 -7.08328125 0.53984375 -6.2890625 0.3671875 C-4 0 -4 0 0 0 Z " fill="#F0F6F4" transform="translate(1135,867)"/>
<path d="M0 0 C0.33 0 0.66 0 1 0 C1.33 2.64 1.66 5.28 2 8 C2.33 8 2.66 8 3 8 C3 10.64 3 13.28 3 16 C2.67 15.01 2.34 14.02 2 13 C1.34 13 0.68 13 0 13 C-0.33 13.99 -0.66 14.98 -1 16 C-0.67 10.72 -0.34 5.44 0 0 Z " fill="#F6C956" transform="translate(1612,824)"/>
<path d="M0 0 C0.96291417 3.8516567 0.92891881 4.51655446 0 8 C0.33 8.66 0.66 9.32 1 10 C-1.66666667 10 -4.33333333 10 -7 10 C-3.535 5.05 -3.535 5.05 0 0 Z " fill="#2089C4" transform="translate(542,815)"/>
<path d="M0 0 C0.99 0.99 1.98 1.98 3 3 C1.35 3 -0.3 3 -2 3 C-1.67 3.99 -1.34 4.98 -1 6 C-6.2734375 9.22265625 -6.2734375 9.22265625 -8 10 C-8.66 9.67 -9.32 9.34 -10 9 C-8.89902432 7.87187697 -7.79408444 6.74762189 -6.6875 5.625 C-6.07261719 4.99851562 -5.45773437 4.37203125 -4.82421875 3.7265625 C-3 2 -3 2 0 0 Z " fill="#147FBF" transform="translate(765,697)"/>
<path d="M0 0 C0 3.69418201 -1.28179295 5.77836178 -3 9 C-4.32 8.01 -5.64 7.02 -7 6 C-3.375 1.125 -3.375 1.125 0 0 Z " fill="#F8C041" transform="translate(1723,671)"/>
<path d="M0 0 C2.38672669 2.96283313 4.7353371 5.94270509 7 9 C6.01 9.495 6.01 9.495 5 10 C5 9.34 5 8.68 5 8 C4.01 8 3.02 8 2 8 C1.67 8.66 1.34 9.32 1 10 C0.63720544 8.71073008 0.28503302 7.41846728 -0.0625 6.125 C-0.35833984 5.04605469 -0.35833984 5.04605469 -0.66015625 3.9453125 C-1 2 -1 2 0 0 Z " fill="#DFEEF2" transform="translate(1092,853)"/>
<path d="M0 0 C1.38226016 2.76452033 1.09525387 5.0461363 1.0625 8.125 C1.05347656 9.22070312 1.04445313 10.31640625 1.03515625 11.4453125 C1.02355469 12.28835938 1.01195312 13.13140625 1 14 C0.01 13.67 -0.98 13.34 -2 13 C-2 9.04 -2 5.08 -2 1 C-1.34 0.67 -0.68 0.34 0 0 Z " fill="#F8BC2F" transform="translate(1822,851)"/>
<path d="M0 0 C0.66 0 1.32 0 2 0 C2 0.66 2 1.32 2 2 C2.66 2.33 3.32 2.66 4 3 C6.125 4.8125 6.125 4.8125 8 7 C8 8.32 8 9.64 8 11 C7.34 11 6.68 11 6 11 C4.4921875 9.1015625 4.4921875 9.1015625 2.875 6.625 C2.33617187 5.81289063 1.79734375 5.00078125 1.2421875 4.1640625 C0 2 0 2 0 0 Z " fill="#E0F1F5" transform="translate(1336,816)"/>
<path d="M0 0 C0.66 0 1.32 0 2 0 C2.75 3.25 2.75 3.25 3 7 C1.0625 9.4375 1.0625 9.4375 -1 11 C-2.0257259 6.58937864 -2.03684712 4.07369424 0 0 Z " fill="#0F81C5" transform="translate(188,777)"/>
<path d="M0 0 C1.83979073 2.7596861 2.48323221 4.29741882 3.1875 7.4375 C3.36667969 8.19933594 3.54585937 8.96117187 3.73046875 9.74609375 C4.0154963 12.12958496 3.72875415 13.73104204 3 16 C3 15.01 3 14.02 3 13 C1.68 13.33 0.36 13.66 -1 14 C-0.9278125 13.32453125 -0.855625 12.6490625 -0.78125 11.953125 C-0.6884375 11.06109375 -0.595625 10.1690625 -0.5 9.25 C-0.4071875 8.36828125 -0.314375 7.4865625 -0.21875 6.578125 C0.05636313 3.76695165 0.05636313 3.76695165 0 0 Z " fill="#C6E2ED" transform="translate(177,746)"/>
<path d="M0 0 C8.57142857 -0.28571429 8.57142857 -0.28571429 12 2 C12 2.66 12 3.32 12 4 C9.03 4 6.06 4 3 4 C3 3.34 3 2.68 3 2 C2.01 1.34 1.02 0.68 0 0 Z " fill="#EDF8FA" transform="translate(1053,722)"/>
<path d="M0 0 C1.32 0.33 2.64 0.66 4 1 C1.03 3.97 -1.94 6.94 -5 10 C-5.33 8.68 -5.66 7.36 -6 6 C-5.34 5.34 -4.68 4.68 -4 4 C-3.01 4 -2.02 4 -1 4 C-0.67 2.68 -0.34 1.36 0 0 Z " fill="#D9EDF2" transform="translate(860,701)"/>
<path d="M0 0 C1 2 1 2 0.0625 5.125 C-0.288125 6.07375 -0.63875 7.0225 -1 8 C-2.32 7.67 -3.64 7.34 -5 7 C-5.66 8.65 -6.32 10.3 -7 12 C-7.66 11.67 -8.32 11.34 -9 11 C-8.06558465 9.72689688 -7.12732889 8.456612 -6.1875 7.1875 C-5.66542969 6.47980469 -5.14335938 5.77210938 -4.60546875 5.04296875 C-3.16871123 3.21468607 -1.68184237 1.60103312 0 0 Z " fill="#1D85C0" transform="translate(1225,700)"/>
<path d="M0 0 C0.33 0 0.66 0 1 0 C1.10854617 2.39706123 1.18753157 4.78915838 1.25 7.1875 C1.28351563 7.86103516 1.31703125 8.53457031 1.3515625 9.22851562 C1.42503051 12.99375127 1.11393243 14.83108854 -1.015625 17.98828125 C-1.99789063 18.98408203 -1.99789063 18.98408203 -3 20 C-2.22602467 13.29221378 -1.14231412 6.65425699 0 0 Z " fill="#3998CA" transform="translate(378,738)"/>
<path d="M0 0 C0.66 0.33 1.32 0.66 2 1 C0.625 3.5 0.625 3.5 -1 6 C-1.66 6 -2.32 6 -3 6 C-3 6.66 -3 7.32 -3 8 C-5.13093906 6.93453047 -6.36587557 5.70840281 -8 4 C-6.71349294 3.30289269 -5.42059335 2.61757124 -4.125 1.9375 C-3.40570312 1.55464844 -2.68640625 1.17179688 -1.9453125 0.77734375 C-1.30335938 0.52082031 -0.66140625 0.26429688 0 0 Z " fill="#E0EFF4" transform="translate(773,728)"/>
<path d="M0 0 C0 0.66 0 1.32 0 2 C-1.269553 2.64834654 -2.54069706 3.29357815 -3.8125 3.9375 C-4.52019531 4.29714844 -5.22789062 4.65679688 -5.95703125 5.02734375 C-8 6 -8 6 -11 7 C-10.67 6.01 -10.34 5.02 -10 4 C-9.34 4 -8.68 4 -8 4 C-8 3.34 -8 2.68 -8 2 C-4.77208445 -0.1519437 -3.71599191 -0.20086443 0 0 Z " fill="#ECF5F5" transform="translate(461,697)"/>
<path d="M0 0 C4.29 0.99 8.58 1.98 13 3 C13 3.33 13 3.66 13 4 C11.63875 3.9690625 11.63875 3.9690625 10.25 3.9375 C7.55264733 3.98937217 5.5552 4.26994286 3 5 C2.34 5 1.68 5 1 5 C0.67 3.35 0.34 1.7 0 0 Z " fill="#E8F3F4" transform="translate(1015,866)"/>
<path d="M0 0 C1.65 0 3.3 0 5 0 C5.5625 1.9375 5.5625 1.9375 6 4 C5 5 5 5 2.4375 5.0625 C1.2309375 5.0315625 1.2309375 5.0315625 0 5 C0 3.35 0 1.7 0 0 Z " fill="#FAF1DA" transform="translate(1832,852)"/>
<path d="M0 0 C0.66 0.66 1.32 1.32 2 2 C0.71086513 2.67154933 -0.58140204 3.33708859 -1.875 4 C-2.59429688 4.37125 -3.31359375 4.7425 -4.0546875 5.125 C-6 6 -6 6 -8 6 C-8 4.68 -8 3.36 -8 2 C-6.71254964 1.61077082 -5.41980403 1.23901964 -4.125 0.875 C-3.04605469 0.56175781 -3.04605469 0.56175781 -1.9453125 0.2421875 C-1.30335937 0.16226563 -0.66140625 0.08234375 0 0 Z " fill="#F9F9F1" transform="translate(1520,786)"/>
<path d="M0 0 C0.66 0 1.32 0 2 0 C3.512545 5.16044765 4.33500455 8.65998179 3 14 C2.67 14 2.34 14 2 14 C1.66179834 12.4176994 1.32964061 10.83410625 1 9.25 C0.814375 8.36828125 0.62875 7.4865625 0.4375 6.578125 C0 4 0 4 0 0 Z " fill="#E5F2F3" transform="translate(219,718)"/>
<path d="M0 0 C0.66 0.33 1.32 0.66 2 1 C2.08159574 5.16138263 1.98248524 8.9472484 1 13 C-0.55078125 11.82421875 -0.55078125 11.82421875 -2 10 C-1.85546875 7.51953125 -1.85546875 7.51953125 -1.1875 4.8125 C-0.97480469 3.91144531 -0.76210938 3.01039063 -0.54296875 2.08203125 C-0.36378906 1.39496094 -0.18460937 0.70789063 0 0 Z " fill="#EFF6F4" transform="translate(430,709)"/>
<path d="M0 0 C0.66 0 1.32 0 2 0 C1.67 5.28 1.34 10.56 1 16 C0.67 16 0.34 16 0 16 C-0.1958009 14.08416353 -0.38132214 12.16727461 -0.5625 10.25 C-0.66691406 9.18265625 -0.77132813 8.1153125 -0.87890625 7.015625 C-0.98560074 4.35858796 -0.81930395 2.50039428 0 0 Z " fill="#F8C755" transform="translate(1654,592)"/>
<path d="M0 0 C0.33 1.32 0.66 2.64 1 4 C1.66 4 2.32 4 3 4 C2.34 7.3 1.68 10.6 1 14 C0.34 13.34 -0.32 12.68 -1 12 C-0.9765625 9.1796875 -0.9765625 9.1796875 -0.625 5.875 C-0.51414062 4.77929688 -0.40328125 3.68359375 -0.2890625 2.5546875 C-0.14597656 1.29011719 -0.14597656 1.29011719 0 0 Z " fill="#1E88C3" transform="translate(412,764)"/>
<path d="M0 0 C1.58294782 -0.05437607 3.16644256 -0.09296271 4.75 -0.125 C5.63171875 -0.14820313 6.5134375 -0.17140625 7.421875 -0.1953125 C10.1135858 0.00860498 11.69904974 0.63448279 14 2 C12.43022426 3.56977574 10.85803613 3.20737081 8.6875 3.25 C7.51767578 3.28867187 7.51767578 3.28867187 6.32421875 3.328125 C3.49082615 2.92811663 2.13274196 1.85455823 0 0 Z " fill="#F6C54E" transform="translate(1550,725)"/>
<path d="M0 0 C0.33 0.99 0.66 1.98 1 3 C2.65 3.33 4.3 3.66 6 4 C6 4.99 6 5.98 6 7 C5.01 7.33 4.02 7.66 3 8 C2.67 7.01 2.34 6.02 2 5 C0.68352881 4.30062468 -0.65022151 3.63270867 -2 3 C-2.33 2.34 -2.66 1.68 -3 1 C-2.01 0.67 -1.02 0.34 0 0 Z " fill="#E3F1F3" transform="translate(942,697)"/>
<path d="M0 0 C3.5218253 1.95656961 6.34442785 3.95100975 9 7 C9 7.66 9 8.32 9 9 C7.125 8.8125 7.125 8.8125 5 8 C4.29788106 6.34795544 3.63028587 4.68076231 3 3 C2.01 2.67 1.02 2.34 0 2 C0 1.34 0 0.68 0 0 Z " fill="#F4C038" transform="translate(1648,555)"/>
<path d="M0 0 C1.32 1.65 2.64 3.3 4 5 C0.91111478 7.05925681 0.29064073 7.2390374 -3.1875 7.125 C-5.0746875 7.063125 -5.0746875 7.063125 -7 7 C-7 6.67 -7 6.34 -7 6 C-4.69 6 -2.38 6 0 6 C0 5.34 0 4.68 0 4 C-0.66 4 -1.32 4 -2 4 C-2.33 3.01 -2.66 2.02 -3 1 C-2.01 0.67 -1.02 0.34 0 0 Z " fill="#FAF6E9" transform="translate(1837,863)"/>
<path d="M0 0 C0.70125 0.7425 1.4025 1.485 2.125 2.25 C4.97718006 4.97817223 7.6763063 6.91302954 11 9 C10.01 9.66 9.02 10.32 8 11 C7.01 10.34 6.02 9.68 5 9 C5 8.34 5 7.68 5 7 C4.01 6.67 3.02 6.34 2 6 C0.8125 2.9375 0.8125 2.9375 0 0 Z " fill="#E7F2F4" transform="translate(337,854)"/>
<path d="M0 0 C0 0.66 0 1.32 0 2 C-4.38461538 5 -4.38461538 5 -7 5 C-7 5.66 -7 6.32 -7 7 C-6.34 7.33 -5.68 7.66 -5 8 C-6.32 7.67 -7.64 7.34 -9 7 C-9 6.01 -9 5.02 -9 4 C-5.7309841 0.8217901 -4.67834007 0 0 0 Z " fill="#E5F2F5" transform="translate(543,854)"/>
<path d="M0 0 C0 0.99 0 1.98 0 3 C-0.99 3.33 -1.98 3.66 -3 4 C-3.33 4.66 -3.66 5.32 -4 6 C-6.97 5.505 -6.97 5.505 -10 5 C-3.40909091 0 -3.40909091 0 0 0 Z " fill="#1582C1" transform="translate(1076,829)"/>
<path d="M0 0 C0.5534764 2.07553648 1 3.84365964 1 6 C0.01 6.495 0.01 6.495 -1 7 C-1.65555119 9.52733235 -1.65555119 9.52733235 -2 12 C-2.66 12 -3.32 12 -4 12 C-3.5317879 7.22423661 -2.75668002 3.95523655 0 0 Z " fill="#D7EAF3" transform="translate(1035,797)"/>
<path d="M0 0 C3.37503669 1.1858237 5.64722731 2.27573689 8 5 C6.3125 5.6875 6.3125 5.6875 4 6 C1.25 4.5625 1.25 4.5625 -1 3 C-0.67 2.01 -0.34 1.02 0 0 Z " fill="#1082C1" transform="translate(1100,696)"/>
<path d="M0 0 C-1.12073862 0.83905565 -2.24674547 1.67107831 -3.375 2.5 C-4.00148438 2.9640625 -4.62796875 3.428125 -5.2734375 3.90625 C-7 5 -7 5 -9 5 C-8.67 3.35 -8.34 1.7 -8 0 C-4.90645403 -0.99435406 -3.09720845 -0.87840996 0 0 Z " fill="#FAF5E6" transform="translate(1740,660)"/>
<path d="M0 0 C0.66 0 1.32 0 2 0 C0.14285714 7.57142857 0.14285714 7.57142857 -3 10 C-3.33 8.35 -3.66 6.7 -4 5 C-3.01 4.34 -2.02 3.68 -1 3 C-0.67 2.01 -0.34 1.02 0 0 Z " fill="#E4F1F5" transform="translate(1084,812)"/>
<path d="M0 0 C0.66 0 1.32 0 2 0 C2.36923077 6.4 2.36923077 6.4 0.5 9.4375 C0.005 9.953125 -0.49 10.46875 -1 11 C-1.33 8.36 -1.66 5.72 -2 3 C-1.34 3 -0.68 3 0 3 C0 2.01 0 1.02 0 0 Z " fill="#1182C6" transform="translate(324,797)"/>
<path d="M0 0 C6.875 3.75 6.875 3.75 8 6 C6.25 6.75 6.25 6.75 4 7 C1.75 5.25 1.75 5.25 0 3 C0 2.01 0 1.02 0 0 Z " fill="#1A85C1" transform="translate(560,697)"/>
<path d="M0 0 C0.33 0 0.66 0 1 0 C1.89604368 6.04829486 2.11269443 11.8894576 2 18 C1.67 18 1.34 18 1 18 C0.67 16.35 0.34 14.7 0 13 C-0.33 13 -0.66 13 -1 13 C-0.67 8.71 -0.34 4.42 0 0 Z " fill="#FCEFD3" transform="translate(1609,643)"/>
<path d="M0 0 C7.425 0.99 7.425 0.99 15 2 C15 2.33 15 2.66 15 3 C10.05 3.33 5.1 3.66 0 4 C0 2.68 0 1.36 0 0 Z " fill="#3090C9" transform="translate(499,833)"/>
<path d="M0 0 C0.66 0.33 1.32 0.66 2 1 C1.67 2.65 1.34 4.3 1 6 C-1.97 5.505 -1.97 5.505 -5 5 C-3.35 3.35 -1.7 1.7 0 0 Z " fill="#F8BF3C" transform="translate(1741,658)"/>
<path d="M0 0 C0.33 0 0.66 0 1 0 C0.67 5.28 0.34 10.56 0 16 C-0.33 16 -0.66 16 -1 16 C-1.66 12.37 -2.32 8.74 -3 5 C-2.34 4.67 -1.68 4.34 -1 4 C-0.34786708 1.97536745 -0.34786708 1.97536745 0 0 Z " fill="#F7CE6D" transform="translate(1653,616)"/>
<path d="M0 0 C4.54195365 -0.37849614 5.0144396 0.0108297 9 3 C5.7 3.33 2.4 3.66 -1 4 C-0.67 2.68 -0.34 1.36 0 0 Z " fill="#1985BD" transform="translate(1356,865)"/>
<path d="M0 0 C2.875 -0.125 2.875 -0.125 6 0 C6.66 0.66 7.32 1.32 8 2 C7.67 2.66 7.34 3.32 7 4 C7.66 4 8.32 4 9 4 C8.67 4.66 8.34 5.32 8 6 C6.66402348 5.19185349 5.331275 4.37836819 4 3.5625 C3.2575 3.11003906 2.515 2.65757812 1.75 2.19140625 C1.1725 1.79824219 0.595 1.40507813 0 1 C0 0.67 0 0.34 0 0 Z " fill="#1D87C0" transform="translate(342,859)"/>
<path d="M0 0 C1.33332095 2.6666419 0.67102033 4.16680303 0 7 C-0.66 7 -1.32 7 -2 7 C-2 7.99 -2 8.98 -2 10 C-2.66 10 -3.32 10 -4 10 C-3.38461538 3.47692308 -3.38461538 3.47692308 -1.4375 1.0625 C-0.7259375 0.5365625 -0.7259375 0.5365625 0 0 Z " fill="#FAF6E2" transform="translate(1827,848)"/>
<path d="M0 0 C0.66 0.33 1.32 0.66 2 1 C1 4 1 4 -2.4375 5.75 C-3.613125 6.1625 -4.78875 6.575 -6 7 C-6.66 6.67 -7.32 6.34 -8 6 C-5.36 4.02 -2.72 2.04 0 0 Z " fill="#FAF1D9" transform="translate(1532,832)"/>
<path d="M0 0 C2.64 0 5.28 0 8 0 C8 1.32 8 2.64 8 4 C4.31245243 3.50168276 2.39509338 2.89932357 0 0 Z " fill="#F8F5E0" transform="translate(1784,808)"/>
<path d="M0 0 C0.66 0.33 1.32 0.66 2 1 C1.34 4.3 0.68 7.6 0 11 C-2 9 -2 9 -2.01171875 7.08984375 C-1.11111111 1.11111111 -1.11111111 1.11111111 0 0 Z " fill="#EAF5F4" transform="translate(244,767)"/>
<path d="M0 0 C1.98 0 3.96 0 6 0 C6 0.66 6 1.32 6 2 C7.32 2.33 8.64 2.66 10 3 C9.34 4.32 8.68 5.64 8 7 C7.236875 6.21625 6.47375 5.4325 5.6875 4.625 C3.09108195 1.92742283 3.09108195 1.92742283 0 0 Z " fill="#1C85C2" transform="translate(792,729)"/>
<path d="M0 0 C0 0.66 0 1.32 0 2 C-6.625 5.125 -6.625 5.125 -10 4 C-10 3.01 -10 2.02 -10 1 C-3.375 0 -3.375 0 0 0 Z " fill="#F5C038" transform="translate(1730,715)"/>
<path d="M0 0 C-0.33 1.65 -0.66 3.3 -1 5 C-1.33 4.34 -1.66 3.68 -2 3 C-2.598125 3.515625 -3.19625 4.03125 -3.8125 4.5625 C-4.534375 5.036875 -5.25625 5.51125 -6 6 C-6.99 5.67 -7.98 5.34 -9 5 C-7.87926138 4.16094435 -6.75325453 3.32892169 -5.625 2.5 C-4.99851562 2.0359375 -4.37203125 1.571875 -3.7265625 1.09375 C-2 0 -2 0 0 0 Z " fill="#1B87C3" transform="translate(872,697)"/>
<path d="M0 0 C0.33 0.66 0.66 1.32 1 2 C1.66 2 2.32 2 3 2 C3 2.66 3 3.32 3 4 C3.99 4 4.98 4 6 4 C6 4.66 6 5.32 6 6 C5.01 6.33 4.02 6.66 3 7 C0.7363436 5.59554165 -1.0208685 3.8032087 -3 2 C-2.01 1.34 -1.02 0.68 0 0 Z " fill="#E2F1F6" transform="translate(834,696)"/>
<path d="M0 0 C3.3 0.66 6.6 1.32 10 2 C9.67 2.66 9.34 3.32 9 4 C6.03 4 3.06 4 0 4 C-0.33 3.34 -0.66 2.68 -1 2 C-0.67 1.34 -0.34 0.68 0 0 Z " fill="#EBF5F6" transform="translate(475,867)"/>
<path d="M0 0 C7.57142857 1.85714286 7.57142857 1.85714286 10 5 C9.01 5.33 8.02 5.66 7 6 C5.17578125 5.0390625 5.17578125 5.0390625 3.3125 3.625 C2.68988281 3.16351562 2.06726562 2.70203125 1.42578125 2.2265625 C0.95527344 1.82179688 0.48476562 1.41703125 0 1 C0 0.67 0 0.34 0 0 Z " fill="#1783C3" transform="translate(1305,858)"/>
<path d="M0 0 C3.16115776 1.36983503 3.9927092 1.9890638 6 5 C4.02 5.33 2.04 5.66 0 6 C0 4.02 0 2.04 0 0 Z " fill="#E3F1F2" transform="translate(992,850)"/>
<path d="M0 0 C-0.99 1.485 -0.99 1.485 -2 3 C-4.92879371 2.37240135 -7.36095629 1.41377341 -10 0 C-6.7169902 -1.6415049 -3.57454967 -0.51888624 0 0 Z " fill="#FAF7E8" transform="translate(1730,779)"/>
<path d="M0 0 C0.33 0 0.66 0 1 0 C1.33 3.63 1.66 7.26 2 11 C1.34 11 0.68 11 0 11 C-1.125 3.375 -1.125 3.375 0 0 Z " fill="#248DC6" transform="translate(227,763)"/>
<path d="M0 0 C0.86625 0.556875 0.86625 0.556875 1.75 1.125 C1.42 1.785 1.09 2.445 0.75 3.125 C-2.3125 3.75 -2.3125 3.75 -5.25 4.125 C-5.58 3.135 -5.91 2.145 -6.25 1.125 C-2.80384615 -1.09038462 -2.80384615 -1.09038462 0 0 Z " fill="#1A86C5" transform="translate(1021.25,762.875)"/>
<path d="M0 0 C1.1577506 3.47325181 1.06866652 6.36067448 1 10 C-0.94268841 7.08596738 -2.46395304 4.14191424 -4 1 C-2 0 -2 0 0 0 Z " fill="#1582C2" transform="translate(806,736)"/>
<path d="M0 0 C2.66355234 -0.39169887 4.39224373 -0.40564529 6.66796875 1.11328125 C8.1510888 2.36389317 9.57954352 3.67864514 11 5 C10.01 5.66 9.02 6.32 8 7 C8 6.01 8 5.02 8 4 C6.68 3.67 5.36 3.34 4 3 C4 2.34 4 1.68 4 1 C2.68 0.67 1.36 0.34 0 0 Z " fill="#DCEFF2" transform="translate(526,726)"/>
<path d="M0 0 C3.375 -0.125 3.375 -0.125 7 0 C9 2 9 2 9 4 C4.545 3.01 4.545 3.01 0 2 C0 1.34 0 0.68 0 0 Z " fill="#2D91CC" transform="translate(1061,721)"/>
<path d="M0 0 C2.97 0.495 2.97 0.495 6 1 C2.93882432 3.62386487 2.26826873 4 -2 4 C-2 4.66 -2 5.32 -2 6 C-2.99 6 -3.98 6 -5 6 C-5 5.01 -5 4.02 -5 3 C-3.02 3 -1.04 3 1 3 C0.67 2.01 0.34 1.02 0 0 Z " fill="#F7C44D" transform="translate(1778,690)"/>
<path d="M0 0 C0.99 0.99 1.98 1.98 3 3 C2.67 3.99 2.34 4.98 2 6 C0.02 5.34 -1.96 4.68 -4 4 C-2.68 2.68 -1.36 1.36 0 0 Z " fill="#EAF4F5" transform="translate(1100,690)"/>
<path d="M0 0 C0.66 0 1.32 0 2 0 C2.33 0.99 2.66 1.98 3 3 C0.69 4.32 -1.62 5.64 -4 7 C-4 6.01 -4 5.02 -4 4 C-3.34 4 -2.68 4 -2 4 C-2 3.34 -2 2.68 -2 2 C-1.34 2 -0.68 2 0 2 C0 1.34 0 0.68 0 0 Z " fill="#127FBF" transform="translate(529,857)"/>
<path d="M0 0 C0.66 0 1.32 0 2 0 C1.67 4.62 1.34 9.24 1 14 C0.67 14 0.34 14 0 14 C-0.19456705 12.04235617 -0.38044247 10.08384679 -0.5625 8.125 C-0.66691406 7.03445313 -0.77132813 5.94390625 -0.87890625 4.8203125 C-1 2 -1 2 0 0 Z " fill="#F7F0D2" transform="translate(1819,848)"/>
<path d="M0 0 C0.99 0.33 1.98 0.66 3 1 C2.67 2.32 2.34 3.64 2 5 C-1.63 4.67 -5.26 4.34 -9 4 C-9 3.67 -9 3.34 -9 3 C-5.92382812 2.70703125 -5.92382812 2.70703125 -2.84765625 2.4140625 C-2.23792969 2.27742187 -1.62820313 2.14078125 -1 2 C-0.67 1.34 -0.34 0.68 0 0 Z " fill="#F9F2D8" transform="translate(1838,846)"/>
<path d="M0 0 C2.1991413 4.39828259 2.51855059 7.18550592 3 12 C2.01 11.67 1.02 11.34 0 11 C0 7.37 0 3.74 0 0 Z " fill="#E0F0F2" transform="translate(323,808)"/>
<path d="M0 0 C-1.12073862 0.83905565 -2.24674547 1.67107831 -3.375 2.5 C-4.00148438 2.9640625 -4.62796875 3.428125 -5.2734375 3.90625 C-7 5 -7 5 -9 5 C-9 2 -9 2 -7 0 C-3.99340864 -1.066855 -3.14820941 -1.04940314 0 0 Z " fill="#F6C037" transform="translate(1564,811)"/>
<path d="M0 0 C2.625 0.9375 2.625 0.9375 5 2 C5 2.66 5 3.32 5 4 C1.7 4 -1.6 4 -5 4 C-2 1 -2 1 0 0 Z " fill="#E7F4F4" transform="translate(1235,737)"/>
<path d="M0 0 C0.66 0.33 1.32 0.66 2 1 C2.40729228 3.32156597 2.74438677 5.6568787 3 8 C2.01 8 1.02 8 0 8 C-0.98120464 4.94736336 -0.98120464 3.05263664 0 0 Z " fill="#1C87C4" transform="translate(347,726)"/>
<path d="M0 0 C2.29013653 3.4352048 2.17842973 4.985331 2 9 C1.01 9.33 0.02 9.66 -1 10 C-0.67 6.7 -0.34 3.4 0 0 Z " fill="#CEE8F3" transform="translate(300,691)"/>
<path d="M0 0 C0.94875 0.04125 1.8975 0.0825 2.875 0.125 C2.545 0.785 2.215 1.445 1.875 2.125 C1.215 2.125 0.555 2.125 -0.125 2.125 C-0.125 2.785 -0.125 3.445 -0.125 4.125 C0.535 4.125 1.195 4.125 1.875 4.125 C1.545 4.785 1.215 5.445 0.875 6.125 C-1.105 4.805 -3.085 3.485 -5.125 2.125 C-3.125 0.125 -3.125 0.125 0 0 Z " fill="#E3F3F6" transform="translate(1109.125,695.875)"/>
<path d="M0 0 C0.33 0.66 0.66 1.32 1 2 C0.01 2.66 -0.98 3.32 -2 4 C-3.19232613 6.05003955 -3.19232613 6.05003955 -4 8 C-5.32 7.34 -6.64 6.68 -8 6 C-5.36 4.02 -2.72 2.04 0 0 Z " fill="#F9C54F" transform="translate(1698,688)"/>
<path d="M0 0 C0.66 0.66 1.32 1.32 2 2 C1.57044137 4.87985784 0.47704949 7.53813177 -0.5625 10.25 C-0.83191406 10.95640625 -1.10132813 11.6628125 -1.37890625 12.390625 C-1.68634766 13.18726563 -1.68634766 13.18726563 -2 14 C-3.49341969 11.01316063 -2.40648676 9.04839022 -1.5625 5.875 C-1.27503906 4.77929688 -0.98757813 3.68359375 -0.69140625 2.5546875 C-0.46324219 1.71164062 -0.23507812 0.86859375 0 0 Z " fill="#C9E4F2" transform="translate(438,678)"/>
<path d="M0 0 C1.41687119 4.25061356 0.19320039 6.71851625 -1 11 C-1.66 11 -2.32 11 -3 11 C-2.25 3.375 -2.25 3.375 0 0 Z " fill="#1080C6" transform="translate(391,685)"/>
<path d="M0 0 C0.33 0.66 0.66 1.32 1 2 C-2.48520451 5.48520451 -4.04613656 6.3538439 -9 7 C-6.24479785 4.04070881 -3.53372712 1.96318174 0 0 Z " fill="#F5C444" transform="translate(1763,643)"/>
<path d="M0 0 C-0.33 0.66 -0.66 1.32 -1 2 C-3.64 2 -6.28 2 -9 2 C-9 1.34 -9 0.68 -9 0 C-5.62182575 -0.84454356 -3.32534757 -1.10844919 0 0 Z " fill="#E2EFF1" transform="translate(1057,869)"/>
<path d="M0 0 C0 0.66 0 1.32 0 2 C-2.91482778 2.80967438 -4.46113217 3.21845993 -7.3125 2.0625 C-7.869375 1.711875 -8.42625 1.36125 -9 1 C-3.375 -1.125 -3.375 -1.125 0 0 Z " fill="#D9ECF2" transform="translate(389,867)"/>
<path d="M0 0 C0 0.66 0 1.32 0 2 C-2.64738916 3.4606285 -3.89448334 4 -7 4 C-7 3.01 -7 2.02 -7 1 C-4.53721199 -0.231394 -2.7204945 -0.07159196 0 0 Z " fill="#1785C7" transform="translate(520,864)"/>
<path d="M0 0 C2.15377564 2.62198774 3.40072174 4.64404172 4 8 C3.01 8.33 2.02 8.66 1 9 C1 8.01 1 7.02 1 6 C0.34 6 -0.32 6 -1 6 C-0.67 4.02 -0.34 2.04 0 0 Z " fill="#DFF0F2" transform="translate(443,838)"/>
<path d="M0 0 C6.625 -0.25 6.625 -0.25 10 2 C6.6875 2.6875 6.6875 2.6875 3 3 C1.0625 1.5625 1.0625 1.5625 0 0 Z " fill="#F7C040" transform="translate(1698,772)"/>
<path d="M0 0 C0.99 0.33 1.98 0.66 3 1 C2.67 3.31 2.34 5.62 2 8 C1.01 7.67 0.02 7.34 -1 7 C-0.67 4.69 -0.34 2.38 0 0 Z " fill="#1385C6" transform="translate(281,765)"/>
<path d="M0 0 C2.56616632 3.84924948 2.55097676 6.4349304 3 11 C2.01 11 1.02 11 0 11 C0 7.37 0 3.74 0 0 Z " fill="#2B8CC4" transform="translate(586,729)"/>
<path d="M0 0 C0.66 0.33 1.32 0.66 2 1 C0.625 2.5 0.625 2.5 -1 4 C-1.66 4 -2.32 4 -3 4 C-4.34882408 4.63474075 -5.6846659 5.29848848 -7 6 C-7.66 5.34 -8.32 4.68 -9 4 C-7.54618103 3.30300448 -6.08677047 2.61766134 -4.625 1.9375 C-3.40683594 1.36322266 -3.40683594 1.36322266 -2.1640625 0.77734375 C-1.44992187 0.52082031 -0.73578125 0.26429688 0 0 Z " fill="#FBF2E0" transform="translate(1734,714)"/>
<path d="M0 0 C0.66 0 1.32 0 2 0 C2.33 0.99 2.66 1.98 3 3 C-0.75 6 -0.75 6 -3 6 C-2.42655063 3.13275314 -2.1385485 2.1385485 0 0 Z " fill="#F9F8EA" transform="translate(1691,689)"/>
<path d="M0 0 C2 2 2 2 2.125 5.125 C2.08375 6.07375 2.0425 7.0225 2 8 C1.34 8 0.68 8 0 8 C-0.66 8.66 -1.32 9.32 -2 10 C-1.46274105 6.62294375 -0.88935377 3.303314 0 0 Z " fill="#E1EFF1" transform="translate(450,634)"/>
<path d="M0 0 C3 1 3 1 4 3 C1.09399739 4.25664978 -0.79604584 5 -4 5 C-4 4.34 -4 3.68 -4 3 C-2.1875 1.3125 -2.1875 1.3125 0 0 Z " fill="#FAFAEE" transform="translate(1772,632)"/>
<path d="M0 0 C3.3 0.33 6.6 0.66 10 1 C10 1.33 10 1.66 10 2 C6.37 2.66 2.74 3.32 -1 4 C-0.67 2.68 -0.34 1.36 0 0 Z " fill="#FAF9EB" transform="translate(1472,632)"/>
<path d="M0 0 C1.32 0.66 2.64 1.32 4 2 C4 2.66 4 3.32 4 4 C2.02 4.33 0.04 4.66 -2 5 C-2 4.01 -2 3.02 -2 2 C-1.34 2 -0.68 2 0 2 C0 1.34 0 0.68 0 0 Z " fill="#F9BE3C" transform="translate(1640,944)"/>
<path d="M0 0 C-0.99 1.485 -0.99 1.485 -2 3 C-4.64 2.67 -7.28 2.34 -10 2 C-10 1.67 -10 1.34 -10 1 C-8.71073008 0.63720544 -7.41846728 0.28503302 -6.125 -0.0625 C-5.40570312 -0.25972656 -4.68640625 -0.45695313 -3.9453125 -0.66015625 C-2 -1 -2 -1 0 0 Z " fill="#DFF0F2" transform="translate(594,867)"/>
<path d="M0 0 C2.31 0.33 4.62 0.66 7 1 C5 3 5 3 1.875 3.125 C0.451875 3.063125 0.451875 3.063125 -1 3 C-0.67 2.01 -0.34 1.02 0 0 Z " fill="#1B86C5" transform="translate(227,865)"/>
<path d="M0 0 C3.3 0.99 6.6 1.98 10 3 C10 3.99 10 4.98 10 6 C6.40992874 4.66654496 3.20429093 3.1056769 0 1 C0 0.67 0 0.34 0 0 Z " fill="#2D8BBF" transform="translate(462,860)"/>
<path d="M0 0 C2.38672669 2.96283313 4.7353371 5.94270509 7 9 C6.01 9 5.02 9 4 9 C2.4375 6.625 2.4375 6.625 1 4 C0.34 3.34 -0.32 2.68 -1 2 C-0.67 1.34 -0.34 0.68 0 0 Z " fill="#CEE6EE" transform="translate(549,853)"/>
<path d="M0 0 C0.33 0.66 0.66 1.32 1 2 C0.34 2.66 -0.32 3.32 -1 4 C-1.66 3.67 -2.32 3.34 -3 3 C-3.33 3.99 -3.66 4.98 -4 6 C-4.33 5.34 -4.66 4.68 -5 4 C-6.32 3.67 -7.64 3.34 -9 3 C-6.03 2.01 -3.06 1.02 0 0 Z " fill="#288BBF" transform="translate(527,831)"/>
<path d="M0 0 C1.32 0.66 2.64 1.32 4 2 C2.02 3.32 0.04 4.64 -2 6 C-2 5.34 -2 4.68 -2 4 C-2.66 3.67 -3.32 3.34 -4 3 C-2.68 2.67 -1.36 2.34 0 2 C0 1.34 0 0.68 0 0 Z " fill="#F7BD3A" transform="translate(1528,831)"/>
<path d="M0 0 C2.97 1.98 2.97 1.98 6 4 C5.67 4.66 5.34 5.32 5 6 C3.68 5.67 2.36 5.34 1 5 C1 4.34 1 3.68 1 3 C0.34 3 -0.32 3 -1 3 C-0.67 2.01 -0.34 1.02 0 0 Z " fill="#F9F8EC" transform="translate(1719,826)"/>
<path d="M0 0 C0.66 0.33 1.32 0.66 2 1 C0.875 3.5 0.875 3.5 -1 6 C-4.1875 6.3125 -4.1875 6.3125 -7 6 C-4.74259377 3.66475218 -2.7194239 1.81294927 0 0 Z " fill="#FBF0D5" transform="translate(1555,816)"/>
<path d="M0 0 C0 0.99 0 1.98 0 3 C-2.35438733 4.42944945 -3.48032433 5.08661261 -6.25 4.625 C-6.8275 4.41875 -7.405 4.2125 -8 4 C-2.25 0 -2.25 0 0 0 Z " fill="#1B86C2" transform="translate(1012,767)"/>
<path d="M0 0 C0.33 0 0.66 0 1 0 C1.33 3.3 1.66 6.6 2 10 C1.01 10 0.02 10 -1 10 C-0.67 6.7 -0.34 3.4 0 0 Z " fill="#DEEEF1" transform="translate(181,762)"/>
<path d="M0 0 C-2.38573379 1.89213369 -4.07175348 3.02391783 -7 4 C-7.33 3.01 -7.66 2.02 -8 1 C-4.93251126 -0.86240388 -3.40254489 -1.2151946 0 0 Z " fill="#1785C8" transform="translate(470,730)"/>
<path d="M0 0 C3.96 0.99 3.96 0.99 8 2 C4.1496895 4.56687367 2.41430237 3.83288724 -2 3 C-1.34 2.67 -0.68 2.34 0 2 C0 1.34 0 0.68 0 0 Z " fill="#1D86C3" transform="translate(1088,691)"/>
<path d="M0 0 C0.66 0.99 1.32 1.98 2 3 C2.66 3.33 3.32 3.66 4 4 C2.515 6.475 2.515 6.475 1 9 C0.34 8.67 -0.32 8.34 -1 8 C-0.67 5.36 -0.34 2.72 0 0 Z " fill="#2089C6" transform="translate(276,634)"/>
<path d="M0 0 C0.99 0.495 0.99 0.495 2 1 C2.625 4.0625 2.625 4.0625 3 7 C2.34 7 1.68 7 1 7 C0.67 7.66 0.34 8.32 0 9 C0 6.03 0 3.06 0 0 Z " fill="#FABA23" transform="translate(1604,924)"/>
<path d="M0 0 C1.41377341 2.63904371 2.37240135 5.07120629 3 8 C1.68 8 0.36 8 -1 8 C-0.67 5.36 -0.34 2.72 0 0 Z " fill="#DBECF0" transform="translate(393,848)"/>
<path d="M0 0 C0.66 0.33 1.32 0.66 2 1 C-3.14285714 6.57142857 -3.14285714 6.57142857 -7 7 C-4.78071806 4.09197539 -3.07030857 2.04687238 0 0 Z " fill="#D9F0F4" transform="translate(1043,790)"/>
<path d="M0 0 C1.9078584 3.1749094 2.1609041 5.10585211 1.625 8.75 C1.51414062 9.54921875 1.40328125 10.3484375 1.2890625 11.171875 C1.19367188 11.77515625 1.09828125 12.3784375 1 13 C0.67 13 0.34 13 0 13 C-0.19466332 11.20909747 -0.38051213 9.41723495 -0.5625 7.625 C-0.66691406 6.62726562 -0.77132813 5.62953125 -0.87890625 4.6015625 C-1 2 -1 2 0 0 Z " fill="#FAF6E2" transform="translate(1683,784)"/>
<path d="M0 0 C1.125 3.75 1.125 3.75 0 6 C0.99 6 1.98 6 3 6 C3 6.99 3 7.98 3 9 C1.68 8.67 0.36 8.34 -1 8 C-0.67 5.36 -0.34 2.72 0 0 Z " fill="#3594CA" transform="translate(243,778)"/>
<path d="M0 0 C0.53625 0.226875 1.0725 0.45375 1.625 0.6875 C0.201875 1.368125 0.201875 1.368125 -1.25 2.0625 C-4.37813679 3.48988254 -4.37813679 3.48988254 -6.375 5.6875 C-6.375 5.0275 -6.375 4.3675 -6.375 3.6875 C-7.035 3.3575 -7.695 3.0275 -8.375 2.6875 C-2.95961538 -0.38942308 -2.95961538 -0.38942308 0 0 Z " fill="#F3C95B" transform="translate(1556.375,772.3125)"/>
<path d="M0 0 C-2.75924185 1.80411967 -3.88972103 2.0127245 -7.25 1.625 C-8.1575 1.41875 -9.065 1.2125 -10 1 C-6.1496895 -1.56687367 -4.41430237 -0.83288724 0 0 Z " fill="#228ACB" transform="translate(508,755)"/>
<path d="M0 0 C0.99 0.495 0.99 0.495 2 1 C2.40729228 3.32156597 2.74438677 5.6568787 3 8 C2.01 8 1.02 8 0 8 C0 5.36 0 2.72 0 0 Z " fill="#1684C3" transform="translate(349,735)"/>
<path d="M0 0 C1.32 1.32 2.64 2.64 4 4 C3.34 5.32 2.68 6.64 2 8 C0.4375 6.25 0.4375 6.25 -1 4 C-0.6875 1.75 -0.6875 1.75 0 0 Z " fill="#E1F0EF" transform="translate(906,735)"/>
<path d="M0 0 C0.33 0.66 0.66 1.32 1 2 C0.0625 4.625 0.0625 4.625 -1 7 C-2.32 6.34 -3.64 5.68 -5 5 C-3.35 3.35 -1.7 1.7 0 0 Z " fill="#E6F2F5" transform="translate(764,733)"/>
<path d="M0 0 C0.53625 0.226875 1.0725 0.45375 1.625 0.6875 C0.820625 0.97625 0.01625 1.265 -0.8125 1.5625 C-3.5076468 2.42012568 -3.5076468 2.42012568 -4.375 4.6875 C-5.695 4.0275 -7.015 3.3675 -8.375 2.6875 C-2.95961538 -0.38942308 -2.95961538 -0.38942308 0 0 Z " fill="#D7EBF0" transform="translate(880.375,728.3125)"/>
<path d="M0 0 C0.66 1.98 1.32 3.96 2 6 C1.34 6.66 0.68 7.32 0 8 C-0.33 6.02 -0.66 4.04 -1 2 C-2.32 1.67 -3.64 1.34 -5 1 C-3 0 -3 0 0 0 Z " fill="#1985C6" transform="translate(582,718)"/>
<path d="M0 0 C0.33 0 0.66 0 1 0 C1.125 3.375 1.125 3.375 1 7 C0.34 7.66 -0.32 8.32 -1 9 C-1.625 5.625 -1.625 5.625 -2 2 C-1.34 1.34 -0.68 0.68 0 0 Z " fill="#1986C7" transform="translate(308,723)"/>
<path d="M0 0 C1.5625 1.1875 1.5625 1.1875 3 3 C2.6875 5.6875 2.6875 5.6875 2 8 C0.4375 6.8125 0.4375 6.8125 -1 5 C-0.6875 2.3125 -0.6875 2.3125 0 0 Z " fill="#1085C7" transform="translate(1212,717)"/>
<path d="M0 0 C2.31 0 4.62 0 7 0 C7.66 1.32 8.32 2.64 9 4 C5.65626525 3.44271087 2.96687001 2.64826111 0 1 C0 0.67 0 0.34 0 0 Z " fill="#F7C85C" transform="translate(1533,717)"/>
<path d="M0 0 C0.103125 0.639375 0.20625 1.27875 0.3125 1.9375 C0.539375 2.618125 0.76625 3.29875 1 4 C1.99 4.33 2.98 4.66 4 5 C4 5.66 4 6.32 4 7 C2.02 6.34 0.04 5.68 -2 5 C-2 4.34 -2 3.68 -2 3 C-1.34 3 -0.68 3 0 3 C0 2.01 0 1.02 0 0 Z " fill="#F6C041" transform="translate(1527,709)"/>
<path d="M0 0 C1.65 0 3.3 0 5 0 C5 1.32 5 2.64 5 4 C4.01 4.33 3.02 4.66 2 5 C1.34 4.34 0.68 3.68 0 3 C0 2.01 0 1.02 0 0 Z " fill="#E8F2F1" transform="translate(573,705)"/>
<path d="M0 0 C1.76462683 3.08809695 2 4.23312136 2 8 C1.34 8 0.68 8 0 8 C0 7.34 0 6.68 0 6 C-0.99 5.67 -1.98 5.34 -3 5 C-2.01 3.35 -1.02 1.7 0 0 Z " fill="#258DC5" transform="translate(342,698)"/>
<path d="M0 0 C0 0.66 0 1.32 0 2 C-3.13498292 3.85776765 -5.37471432 4.20140476 -9 4 C-3.7826087 0 -3.7826087 0 0 0 Z " fill="#FCF3DD" transform="translate(1775,696)"/>
<path d="M0 0 C0.33 0 0.66 0 1 0 C1 2.66666667 1 5.33333333 1 8 C0.01 8.66 -0.98 9.32 -2 10 C-1.54177532 6.53058454 -1.10868317 3.32604951 0 0 Z " fill="#DAECF0" transform="translate(445,653)"/>
<path d="M0 0 C4.51720311 -0.36625971 4.51720311 -0.36625971 6.8125 1.375 C8 3 8 3 8 5 C4.62496331 3.8141763 2.35277269 2.72426311 0 0 Z " fill="#FAF4E0" transform="translate(1512,653)"/>
<path d="M0 0 C2 1 2 1 2.75 2.875 C3 5 3 5 1 8 C0.34 8 -0.32 8 -1 8 C-0.67 5.36 -0.34 2.72 0 0 Z " fill="#1687C6" transform="translate(274,644)"/>
<path d="M0 0 C0.66 0.33 1.32 0.66 2 1 C2.625 3.0625 2.625 3.0625 3 5 C0.69 4.67 -1.62 4.34 -4 4 C-2.68 2.68 -1.36 1.36 0 0 Z " fill="#F6C13D" transform="translate(1612,554)"/>
<path d="M0 0 C-0.99 0.66 -1.98 1.32 -3 2 C-3 2.33 -3 2.66 -3 3 C-4.65 3 -6.3 3 -8 3 C-7.67 2.01 -7.34 1.02 -7 0 C-3.86650268 -1.04449911 -3.01031744 -0.93423645 0 0 Z " fill="#D7ECF3" transform="translate(1372,867)"/>
<path d="M0 0 C1.32 1.65 2.64 3.3 4 5 C1 7 1 7 -1 7 C-1.625 5.1875 -1.625 5.1875 -2 3 C-1.34 2.01 -0.68 1.02 0 0 Z " fill="#F8CD67" transform="translate(1823,861)"/>
<path d="M0 0 C0.99 0.33 1.98 0.66 3 1 C3 2.65 3 4.3 3 6 C2.01 6 1.02 6 0 6 C0 4.02 0 2.04 0 0 Z " fill="#F5C038" transform="translate(1838,860)"/>
<path d="M0 0 C0.99 0.33 1.98 0.66 3 1 C3 1.99 3 2.98 3 4 C2.01 4.33 1.02 4.66 0 5 C-0.99 4.34 -1.98 3.68 -3 3 C-2.01 2.01 -1.02 1.02 0 0 Z " fill="#D7EBF3" transform="translate(545,848)"/>
<path d="M0 0 C2.78637633 4.1795645 1.79562512 6.14668677 1 11 C0.67 11 0.34 11 0 11 C-1.125 3.375 -1.125 3.375 0 0 Z " fill="#238CC6" transform="translate(268,819)"/>
<path d="M0 0 C0.66 1.32 1.32 2.64 2 4 C1.01 5.485 1.01 5.485 0 7 C-0.99 7 -1.98 7 -3 7 C-1.125 2.25 -1.125 2.25 0 0 Z " fill="#2088C3" transform="translate(449,783)"/>
<path d="M0 0 C0.66 0 1.32 0 2 0 C2.33 0.99 2.66 1.98 3 3 C1.35 4.32 -0.3 5.64 -2 7 C-1.125 2.25 -1.125 2.25 0 0 Z " fill="#E3F3F4" transform="translate(1001,769)"/>
<path d="M0 0 C0.66 0.99 1.32 1.98 2 3 C1.125 6.6875 1.125 6.6875 0 10 C-0.66 10 -1.32 10 -2 10 C-1.125 2.25 -1.125 2.25 0 0 Z " fill="#1785BC" transform="translate(250,750)"/>
<path d="M0 0 C0.66 0 1.32 0 2 0 C2.6875 2.3125 2.6875 2.3125 3 5 C1.5625 6.8125 1.5625 6.8125 0 8 C0.33 6.35 0.66 4.7 1 3 C0.34 3 -0.32 3 -1 3 C-0.67 2.01 -0.34 1.02 0 0 Z " fill="#0F7FBC" transform="translate(1219,744)"/>
<path d="M0 0 C0.99 0.33 1.98 0.66 3 1 C2.67 2.65 2.34 4.3 2 6 C1.01 6.33 0.02 6.66 -1 7 C-0.67 4.69 -0.34 2.38 0 0 Z " fill="#2A8FC5" transform="translate(252,738)"/>
<path d="M0 0 C4 4.75 4 4.75 4 7 C3.01 7 2.02 7 1 7 C-0.0625 4.625 -0.0625 4.625 -1 2 C-0.67 1.34 -0.34 0.68 0 0 Z " fill="#DFEFF1" transform="translate(801,736)"/>
<path d="M0 0 C2.0625 0.4375 2.0625 0.4375 4 1 C3.01 2.98 2.02 4.96 1 7 C0.67 7 0.34 7 0 7 C-0.38133299 5.0085944 -0.71325582 3.00720923 -1 1 C-0.67 0.67 -0.34 0.34 0 0 Z " fill="#1B86C2" transform="translate(754,739)"/>
<path d="M0 0 C0.99 0.495 0.99 0.495 2 1 C2.59355614 3.64860427 2.74209269 6.29197322 3 9 C1.5 7.875 1.5 7.875 0 6 C-0.1875 2.8125 -0.1875 2.8125 0 0 Z " fill="#3292C1" transform="translate(958,728)"/>
<path d="M0 0 C0.66 0.66 1.32 1.32 2 2 C1.75 4.0625 1.75 4.0625 1 6 C0.01 6.495 0.01 6.495 -1 7 C-1.33 5.02 -1.66 3.04 -2 1 C-1.34 0.67 -0.68 0.34 0 0 Z " fill="#1C86C1" transform="translate(300,688)"/>
</svg>
