<?xml version="1.0" encoding="UTF-8"?>
<svg version="1.1" xmlns="http://www.w3.org/2000/svg" width="1600" height="1200">
<path d="M0 0 C528 0 1056 0 1600 0 C1600 396 1600 792 1600 1200 C1072 1200 544 1200 0 1200 C0 804 0 408 0 0 Z " fill="#FEFEFE" transform="translate(0,0)"/>
<path d="M0 0 C1.09505859 -0.020625 2.19011719 -0.04125 3.31835938 -0.0625 C17.65159596 -0.13079416 28.0894645 4.75683431 38.6875 14.4375 C44.23196732 20.32253657 48.46067086 27.99631079 51.9375 35.25 C52.45699219 34.38117188 52.97648438 33.51234375 53.51171875 32.6171875 C60.83326789 20.47494482 60.83326789 20.47494482 64.9375 16.25 C65.5975 16.25 66.2575 16.25 66.9375 16.25 C66.9375 15.59 66.9375 14.93 66.9375 14.25 C78.52146273 4.61252281 91.20373457 -0.34627969 106.25 -0.1875 C107.2596582 -0.17992676 108.26931641 -0.17235352 109.30957031 -0.16455078 C117.16421521 0.00839784 123.71332023 0.98845048 130.9375 4.25 C131.88496094 4.67410156 132.83242188 5.09820312 133.80859375 5.53515625 C147.05077764 12.12869858 156.31625693 22.39439429 161.3125 36.3125 C164.72073765 46.64094193 164.1056338 57.79727359 164.14624023 68.54418945 C164.15579623 70.17300101 164.16568811 71.80181063 164.17588806 73.43061829 C164.20702978 78.74148211 164.22749156 84.05236057 164.24609375 89.36328125 C164.24939107 90.26886142 164.25268839 91.1744416 164.25608563 92.1074636 C164.28682068 100.6527581 164.31350815 109.19805647 164.33050442 117.74339008 C164.35246435 128.65209366 164.39461054 139.56030876 164.46394199 150.46881706 C164.51113235 158.15480544 164.53542998 165.84066159 164.5427013 173.52679032 C164.54765863 178.11292378 164.56275095 182.6985037 164.6024456 187.28447914 C164.63924531 191.59148595 164.6477441 195.89762124 164.63443947 200.20475578 C164.6344935 201.78461823 164.64482443 203.3645188 164.6661911 204.94423676 C164.69381676 207.10188608 164.68439652 209.25634228 164.66575623 211.41401672 C164.67210413 213.22383262 164.67210413 213.22383262 164.67858028 215.07021046 C163.62363412 219.59671975 161.73846595 220.66431855 157.9375 223.25 C155.53451538 223.87818909 155.53451538 223.87818909 153.18896484 223.88110352 C152.30139496 223.89363663 151.41382507 223.90616974 150.49935913 223.91908264 C149.08815292 223.89919533 149.08815292 223.89919533 147.6484375 223.87890625 C146.66759186 223.88131821 145.68674622 223.88373016 144.67617798 223.88621521 C142.61024924 223.88523871 140.5442937 223.87189229 138.47851562 223.84692383 C135.31550485 223.81253267 132.1552766 223.82629616 128.9921875 223.84570312 C126.98175894 223.83880665 124.97133758 223.82913606 122.9609375 223.81640625 C122.0160849 223.82136612 121.0712323 223.82632599 120.0977478 223.83143616 C119.21648224 223.81559982 118.33521667 223.79976349 117.42724609 223.78344727 C116.26858536 223.7741494 116.26858536 223.7741494 115.08651733 223.7646637 C112.02338661 223.03108088 110.9044799 221.68453677 108.9375 219.25 C108.44086456 216.45875359 108.44086456 216.45875359 108.44543457 213.17965698 C108.4373024 211.93490097 108.42917023 210.69014496 108.42079163 209.40766907 C108.43188405 208.03072845 108.44332459 206.6537906 108.45507812 205.27685547 C108.45289185 203.82452528 108.44889448 202.37219685 108.44322205 200.9198761 C108.43465609 197.792644 108.43844245 194.66575508 108.4516449 191.53853989 C108.47199123 186.58703144 108.46199854 181.63586838 108.4473877 176.68435669 C108.41834887 165.27206987 108.42906218 153.85988422 108.44008636 142.44757843 C108.44977378 132.00301977 108.45095511 121.55864194 108.42020559 111.11411393 C108.40687746 106.19932967 108.41272835 101.28506529 108.43357086 96.37031245 C108.44260277 93.30070987 108.43504103 90.23130438 108.42315865 87.16171837 C108.42104063 85.74685805 108.42567371 84.33196751 108.4378643 82.91715813 C108.50949788 74.10037664 108.36275591 65.25573213 102.22942352 58.31786919 C96.41517322 52.84912166 90.47404174 51.8178684 82.67578125 52.0078125 C75.83805609 52.61257564 70.78315103 55.38123822 65.765625 60.0234375 C59.72352404 67.38240662 57.81254311 76.8779343 57.81292725 86.17689514 C57.81036423 87.33907059 57.80780121 88.50124603 57.80516052 89.69863892 C57.80726028 90.95961395 57.80936005 92.22058899 57.81152344 93.51977539 C57.81012724 94.87213703 57.80822699 96.22449823 57.80586243 97.57685852 C57.80137951 100.48077305 57.79950966 103.38467349 57.79940033 106.28859138 C57.7982567 110.88175642 57.78539582 115.47484171 57.76983643 120.06797791 C57.76726357 120.8442181 57.76469072 121.62045829 57.7620399 122.42022091 C57.75677394 124.00693328 57.75148846 125.59364558 57.74618387 127.18035781 C57.71110304 137.8677287 57.68452649 148.55499832 57.68701172 159.24243164 C57.68859998 166.46075228 57.67257807 173.67879895 57.63630509 180.89703172 C57.61784769 184.7140633 57.60850056 188.53063735 57.62078094 192.34770393 C57.63221424 195.93572003 57.62052371 199.52291574 57.59114647 203.11082268 C57.5813414 205.05283263 57.59627544 206.99491823 57.61195374 208.93688965 C57.51073143 217.41470893 57.51073143 217.41470893 54.68597412 221.53083801 C51.90370538 223.27113843 50.55171547 223.88033843 47.31835938 223.89697266 C46.43394165 223.91273346 45.54952393 223.92849426 44.63830566 223.94473267 C43.69547729 223.93461151 42.75264893 223.92449036 41.78125 223.9140625 C40.31141663 223.92123795 40.31141663 223.92123795 38.81188965 223.92855835 C36.74420564 223.93195441 34.67646772 223.92277263 32.60888672 223.90185547 C29.44767298 223.87508615 26.29000982 223.90161371 23.12890625 223.93359375 C21.11717968 223.9302896 19.10545531 223.92388326 17.09375 223.9140625 C16.15092163 223.92418365 15.20809326 223.93430481 14.23669434 223.94473267 C12.91006775 223.92109146 12.91006775 223.92109146 11.55664062 223.89697266 C10.78340454 223.89299469 10.01016846 223.88901672 9.21350098 223.88491821 C6.60171213 223.15632788 4.76589514 222.20011672 2.92905807 220.17613029 C0.5253444 215.50684683 1.27379668 209.71933324 1.32568359 204.60644531 C1.32214079 203.20160211 1.31636135 201.79676303 1.30851746 200.39193726 C1.29634883 197.37050571 1.29979319 194.34963904 1.31534958 191.32822418 C1.33969746 186.54488769 1.32815756 181.76204411 1.31167603 176.97869873 C1.28718561 168.54517757 1.29297692 160.11188088 1.30548096 151.67834473 C1.32405501 138.99693476 1.319128 126.31556891 1.28544676 113.63419032 C1.27397182 108.88560566 1.27831917 104.1373816 1.29546714 99.38881731 C1.30340252 96.42527966 1.29908967 93.46184542 1.29175758 90.49831009 C1.29056975 88.48307617 1.3043479 86.46785054 1.31867981 84.45266724 C1.28820911 77.47340356 0.71336175 71.67997108 -2.0625 65.25 C-2.495625 64.1775 -2.92875 63.105 -3.375 62 C-6.0808747 57.59042642 -9.77051239 55.11132507 -14.0625 52.25 C-22.09865872 51.45059154 -30.7567834 50.60795551 -37.51953125 55.66796875 C-41.27600694 59.51954509 -43.76557688 63.24199212 -45.75 68.25 C-46.16636719 69.260625 -46.58273437 70.27125 -47.01171875 71.3125 C-50.03074906 80.80893619 -49.20613291 91.83334285 -49.18847656 101.68774414 C-49.19134382 103.64186998 -49.19421892 105.59599582 -49.19739199 107.55012119 C-49.20004782 109.62104821 -49.20051639 111.69196698 -49.20059967 113.76289558 C-49.20175216 118.09590994 -49.21467304 122.42884151 -49.23016357 126.76182556 C-49.23273643 127.49667854 -49.23530928 128.23153152 -49.2379601 128.98865277 C-49.24322455 130.48929158 -49.24851003 131.98993033 -49.25381613 133.490569 C-49.28881669 143.55809934 -49.31546418 153.6255187 -49.31298828 163.69311523 C-49.31140089 170.51521898 -49.32738936 177.33703262 -49.36369491 184.15904325 C-49.38214323 187.76076548 -49.39150592 191.36200301 -49.37921906 194.96376228 C-49.3656829 198.96851511 -49.39067222 202.9721308 -49.41894531 206.97680664 C-49.40874863 208.1669487 -49.39855194 209.35709076 -49.38804626 210.58329773 C-49.48936683 218.55411917 -49.48936683 218.55411917 -52.31402588 221.98373413 C-55.02579892 223.23309123 -56.72122393 223.75971535 -59.68164062 223.78344727 C-61.00826721 223.80720177 -61.00826721 223.80720177 -62.36169434 223.83143616 C-63.30452271 223.82647629 -64.24735107 223.82151642 -65.21875 223.81640625 C-66.19863892 223.82260483 -67.17852783 223.82880341 -68.18811035 223.83518982 C-70.25576791 223.84228028 -72.32348264 223.83912752 -74.39111328 223.82641602 C-77.55217599 223.8125453 -80.71028069 223.84663909 -83.87109375 223.88476562 C-85.88281322 223.88571682 -87.8945364 223.883858 -89.90625 223.87890625 C-90.84907837 223.89216446 -91.79190674 223.90542267 -92.76330566 223.91908264 C-93.64772339 223.90654953 -94.53214111 223.89401642 -95.44335938 223.88110352 C-96.21659546 223.88014175 -96.98983154 223.87917999 -97.78649902 223.87818909 C-101.34045362 222.8972776 -102.77389915 221.10629064 -105.0625 218.25 C-105.55475125 215.22602826 -105.73976902 212.7674659 -105.69741821 209.7479248 C-105.70521817 208.89371807 -105.71301812 208.03951133 -105.72105443 207.15941954 C-105.74099384 204.2978979 -105.72520243 201.43770332 -105.70947266 198.57617188 C-105.71624791 196.52445194 -105.72515052 194.47273808 -105.73602295 192.42103577 C-105.75883366 186.84870837 -105.74997243 181.2768434 -105.73412752 175.70450783 C-105.72147782 169.87586842 -105.73320605 164.04726888 -105.74105835 158.21862793 C-105.7501576 148.43002201 -105.73815966 138.64160464 -105.71435547 128.85302734 C-105.68714381 117.5324548 -105.69595777 106.21233248 -105.7234875 94.89177084 C-105.74616961 85.17613413 -105.749383 75.46063305 -105.73629415 65.74497843 C-105.72849476 59.94050115 -105.72747163 54.13623557 -105.74397659 48.33177185 C-105.75840887 42.87495766 -105.74842187 37.41872453 -105.71950531 31.96197319 C-105.71288792 29.95805769 -105.71480326 27.95409337 -105.72581863 25.95019722 C-105.73945983 23.21682741 -105.72237613 20.48532558 -105.69741821 17.7520752 C-105.70857182 16.95684181 -105.71972543 16.16160842 -105.73121703 15.34227705 C-105.65920473 11.28345294 -105.23535494 9.46527535 -102.66032219 6.25830269 C-99.97907439 4.18550602 -98.9396466 3.62089053 -95.62695312 3.60302734 C-94.7825769 3.58726654 -93.93820068 3.57150574 -93.0682373 3.55526733 C-91.71961609 3.57044907 -91.71961609 3.57044907 -90.34375 3.5859375 C-88.94050476 3.57876205 -88.94050476 3.57876205 -87.50891113 3.57144165 C-85.53538324 3.5680464 -83.56179882 3.57722261 -81.58837891 3.59814453 C-78.57196344 3.62491601 -75.55926883 3.59838464 -72.54296875 3.56640625 C-70.62238764 3.56971042 -68.70180884 3.57611679 -66.78125 3.5859375 C-65.88216919 3.57581635 -64.98308838 3.56569519 -64.0567627 3.55526733 C-59.70978148 3.63640642 -57.62999813 3.84813334 -53.99926758 6.41918945 C-51.79033721 9.6477975 -51.41512365 11.329463 -51.35546875 15.20703125 C-51.32646484 16.31884766 -51.29746094 17.43066406 -51.26757812 18.57617188 C-51.26177734 19.72666016 -51.25597656 20.87714844 -51.25 22.0625 C-51.22486328 23.23232422 -51.19972656 24.40214844 -51.17382812 25.60742188 C-51.11502818 28.4886193 -51.07869468 31.36829983 -51.0625 34.25 C-50.69471436 33.43152588 -50.32692871 32.61305176 -49.94799805 31.76977539 C-44.33589661 19.49026133 -35.68726645 9.39838817 -23.08984375 3.96875 C-20.43086589 2.9878359 -17.76946495 2.08776286 -15.0625 1.25 C-10.16518911 -0.38243696 -5.12838519 0.02356524 0 0 Z " fill="#2A2A2A" transform="translate(479.0625,346.75)"/>
<path d="M0 0 C0.92570801 0.38551025 0.92570801 0.38551025 1.87011719 0.77880859 C10.66953085 4.5175266 17.95208911 9.55985147 25 16 C25.84175781 16.73734375 26.68351562 17.4746875 27.55078125 18.234375 C48.96882865 38.08687306 57.97451492 69.43266919 59.15820312 97.79003906 C59.73860359 116.46449399 59.29365343 133.92814503 54 152 C53.7009375 153.14339844 53.401875 154.28679687 53.09375 155.46484375 C49.07778976 169.3161881 41.02537805 181.91316324 32 193 C31.52433594 193.639375 31.04867188 194.27875 30.55859375 194.9375 C19.16880881 209.62522267 -0.48516243 218.44254321 -18.34765625 221.58984375 C-43.85724984 224.45455747 -66.60006128 219.22959898 -86.8125 203.125 C-106.80517845 184.84454086 -118.75666149 155.50280767 -122 129 C-122.09982927 126.50527497 -122.1532759 124.00839714 -122.16796875 121.51171875 C-122.17229416 120.81563004 -122.17661957 120.11954132 -122.18107605 119.40235901 C-122.19112428 117.1640021 -122.19126992 114.92587478 -122.1875 112.6875 C-122.18623108 111.92167603 -122.18496216 111.15585205 -122.18365479 110.36682129 C-122.07592435 76.3685218 -115.28485572 42.8159162 -90.734375 17.6796875 C-67.31933367 -5.267053 -30.56385401 -13.03749712 0 0 Z " fill="#2A2A2A" transform="translate(1190,352)"/>
<path d="M0 0 C1.28132812 -0.01224609 2.56265625 -0.02449219 3.8828125 -0.03710938 C25.79118987 -0.07043855 47.1695984 5.28597399 63.23828125 21 C75.35000421 34.17002885 79.37325471 49.40869742 79.42358398 67.08911133 C79.430271 68.07039505 79.43695801 69.05167877 79.44384766 70.06269836 C79.4578624 72.18737885 79.46976772 74.31207407 79.47979546 76.43677711 C79.49626466 79.80447879 79.51950524 83.17207153 79.54469299 86.53971863 C79.61530352 96.11276785 79.67552265 105.68586125 79.72680664 115.2590332 C79.75868361 121.12098902 79.79997939 126.98281832 79.84700203 132.84467125 C79.86296735 135.07286991 79.87531401 137.30109765 79.88390923 139.52933693 C79.89612959 142.65225628 79.92030738 145.77488071 79.94702148 148.89770508 C79.94761063 149.80969666 79.94819977 150.72168823 79.94880676 151.66131592 C80.04594286 160.27658285 81.23222965 167.36952691 86 174.6875 C86.70640625 175.79222656 87.4128125 176.89695312 88.140625 178.03515625 C89.43935672 179.97603865 90.75817983 181.90386275 92.109375 183.80859375 C92.65078125 184.57300781 93.1921875 185.33742188 93.75 186.125 C94.2346875 186.77339844 94.719375 187.42179688 95.21875 188.08984375 C96.68458686 191.07148918 96.77102749 192.9029427 96.25 196.1875 C94.50882563 198.26900863 92.99272782 199.79491747 90.9375 201.5 C90.39496582 201.9729248 89.85243164 202.44584961 89.29345703 202.93310547 C84.92416094 206.71322592 80.43575687 210.35653584 75.93359375 213.9765625 C72.25598084 217.00644446 68.74932641 220.20892078 65.24609375 223.4375 C62.69963855 225.67000867 61.51247886 226.14550338 58.125 226.6875 C52.5226353 225.96461423 50.07806867 223.157349 46.25 219.1875 C45.49203125 218.40375 44.7340625 217.62 43.953125 216.8125 C39.11549901 211.61773384 34.97167309 206.22974573 31.25 200.1875 C29.8578125 201.3940625 29.8578125 201.3940625 28.4375 202.625 C27.79296875 203.17285156 27.1484375 203.72070312 26.484375 204.28515625 C24.92252389 205.6149141 23.37123258 206.95713017 21.828125 208.30859375 C2.59365581 224.72618062 -18.02146969 229.9607063 -43.11376953 228.43554688 C-48.97757722 227.88381242 -54.28922428 226.41608685 -59.75 224.1875 C-60.62140625 223.86007812 -61.4928125 223.53265625 -62.390625 223.1953125 C-76.63866914 217.05700418 -85.44626477 204.82763842 -91.08984375 190.875 C-97.7478358 171.91986248 -96.42604282 150.90470253 -87.9375 132.8125 C-76.88065188 112.13979649 -58.33018089 100.83658113 -36.4609375 94.1875 C-26.25932977 91.48396835 -15.89755909 90.18483832 -5.4375 88.9375 C-4.7046579 88.84855469 -3.9718158 88.75960937 -3.21676636 88.66796875 C5.62351359 87.60850396 14.3313616 86.91830646 23.25 87.1875 C23.16785387 83.72828551 23.0551401 80.27067495 22.9375 76.8125 C22.91494141 75.84699219 22.89238281 74.88148438 22.86914062 73.88671875 C22.55617513 65.40819909 21.44753414 58.04065265 16.25 51.1875 C16.25 50.5275 16.25 49.8675 16.25 49.1875 C15.54875 48.919375 14.8475 48.65125 14.125 48.375 C11.25 47.1875 11.25 47.1875 8.25 45.625 C0.07646931 41.70851654 -9.88436022 42.20232504 -18.33203125 45.08984375 C-26.34580953 48.72776249 -31.36364051 54.14322311 -34.75 62.1875 C-35.59669032 64.55749344 -36.37891912 66.92122479 -37.07421875 69.33984375 C-37.75 71.1875 -37.75 71.1875 -39.75 73.1875 C-49.46145733 74.35957244 -59.70127458 72.90081989 -69.375 72 C-70.60847168 71.89921143 -71.84194336 71.79842285 -73.11279297 71.69458008 C-82.95654668 70.68963203 -82.95654668 70.68963203 -86.05078125 67.76171875 C-88.30437641 64.3476516 -88.48432771 62.08082237 -87.75 58.1875 C-83.63192742 40.31022021 -73.98895728 24.79595595 -58.44921875 14.76953125 C-39.51601297 3.67264508 -21.76120749 0.01081571 0 0 Z " fill="#2A2A2A" transform="translate(771.75,344.8125)"/>
<path d="M0 0 C1.15846436 0.01305176 1.15846436 0.01305176 2.34033203 0.02636719 C22.57315144 0.29508794 42.09234686 7.77250749 56.47265625 22.21484375 C66.62074819 33.39813518 70.16725347 47.28498761 70.11010742 62.04418945 C70.11065012 64.13527935 70.11123712 66.22636923 70.11186218 68.31745911 C70.11043402 69.42392099 70.10900585 70.53038288 70.10753441 71.67037392 C70.10400102 77.55959201 70.12984495 83.44871624 70.15039062 89.33789062 C70.17465268 96.81852151 70.19049588 104.2988764 70.17504883 111.77954102 C70.16331438 117.83507864 70.18098325 123.88993281 70.21749306 129.945364 C70.22604924 132.2403536 70.2241199 134.53540959 70.210989 136.83037758 C70.12395756 153.28132161 71.08746267 168.39374462 82.375 181.4375 C86.03966638 185.67444236 87.892042 189.17784806 87.56542969 194.83813477 C86.5081045 198.88071444 83.66778833 200.82163501 80.4375 203.25 C79.06442912 204.35593325 77.69205409 205.46273089 76.3203125 206.5703125 C75.60907227 207.13008789 74.89783203 207.68986328 74.16503906 208.26660156 C70.61682252 211.10741544 67.22410387 214.12282254 63.8125 217.125 C52.70709303 226.83235276 52.70709303 226.83235276 47.20703125 226.59765625 C37.3581846 223.93062344 29.0112665 210.35211084 24 202 C24 201.34 24 200.68 24 200 C20.52179919 201.92098797 17.60873416 204.12183575 14.64990234 206.76928711 C-1.8811633 221.53842897 -19.99000989 228.09480935 -42.125 228.25 C-43.04321533 228.2593457 -43.96143066 228.26869141 -44.9074707 228.27832031 C-58.96292889 228.21284653 -72.32023338 224.45092318 -83 215 C-84.01707031 214.10474609 -84.01707031 214.10474609 -85.0546875 213.19140625 C-96.98466933 202.00423461 -102.55172869 187.06721378 -103.2578125 170.97265625 C-103.85019002 150.00396374 -99.56740773 131.9869238 -85.11328125 116.11328125 C-66.382214 96.71217902 -38.96148773 91.62817182 -13.25 88.625 C-12.52325073 88.53941833 -11.79650146 88.45383667 -11.04772949 88.36566162 C-2.68788542 87.4012461 5.5771722 86.7377672 14 87 C13.97694108 82.87380969 13.89927822 78.7503033 13.8125 74.625 C13.80669922 73.46871094 13.80089844 72.31242187 13.79492188 71.12109375 C13.56992915 62.27138009 11.91152083 55.12295439 5.6875 48.5625 C-0.80959181 44.78512104 -6.52826089 43.46298352 -13.9375 43.5625 C-14.72874268 43.57007324 -15.51998535 43.57764648 -16.33520508 43.58544922 C-22.28182415 43.7534432 -27.01489914 44.56939296 -32 48 C-32.63035156 48.4125 -33.26070313 48.825 -33.91015625 49.25 C-40.23050882 53.97349067 -42.71068128 60.84699261 -45.625 67.9375 C-47.54268979 72.20871818 -47.54268979 72.20871818 -50 74 C-52.62695312 74.12036133 -52.62695312 74.12036133 -55.78125 73.76953125 C-56.94269531 73.6504541 -58.10414063 73.53137695 -59.30078125 73.40869141 C-60.52152344 73.27382324 -61.74226563 73.13895508 -63 73 C-65.40598193 72.7924417 -67.81223651 72.58802035 -70.21875 72.38671875 C-72.64603308 72.15573536 -75.07311731 71.92265298 -77.5 71.6875 C-79.35238281 71.52991211 -79.35238281 71.52991211 -81.2421875 71.36914062 C-82.43070313 71.25119141 -83.61921875 71.13324219 -84.84375 71.01171875 C-85.90787109 70.91334717 -86.97199219 70.81497559 -88.06835938 70.71362305 C-91.58169503 69.85840318 -93.41553737 68.49610994 -96 66 C-98.58944208 56.87602466 -93.64596902 47.27664342 -89.6484375 39.3046875 C-85.97422862 32.7567957 -81.24653234 27.33955596 -76 22 C-75.45859375 21.44570313 -74.9171875 20.89140625 -74.359375 20.3203125 C-54.14970488 1.43753991 -26.11005197 -0.55323867 0 0 Z " fill="#2A2A2A" transform="translate(258,345)"/>
<path d="M0 0 C0.87398437 0.44730469 1.74796875 0.89460938 2.6484375 1.35546875 C16.41867585 9.06762927 24.56425284 19.8834644 29 35 C29.34018158 36.13938019 29.68036316 37.27876038 30.03085327 38.45266724 C34.33650065 54.6566631 33.62342158 71.44194191 33.60316515 88.07048178 C33.60100323 91.59021731 33.61084625 95.10988237 33.62037599 98.62960255 C33.64241268 106.92581264 33.64352065 115.22184137 33.63134766 123.51806641 C33.61920262 132.06360227 33.64408904 140.60848501 33.68648779 149.15390956 C33.72169229 156.52165589 33.73372924 163.88919372 33.72721231 171.25702107 C33.72359076 175.64511005 33.72882161 180.03272979 33.75664139 184.42074203 C33.78175468 188.53344477 33.77795456 192.64511829 33.75181961 196.75780487 C33.74708377 198.26507793 33.75257352 199.77242322 33.76906586 201.27961349 C33.8834642 212.5452185 33.8834642 212.5452185 31.7814846 216.00650311 C28.95189418 218.57260651 26.01263444 219.62643013 22.25146484 219.63110352 C21.36389496 219.64363663 20.47632507 219.65616974 19.56185913 219.66908264 C18.15065292 219.64919533 18.15065292 219.64919533 16.7109375 219.62890625 C15.73009186 219.63131821 14.74924622 219.63373016 13.73867798 219.63621521 C11.67274924 219.63523871 9.6067937 219.62189229 7.54101562 219.59692383 C4.37800485 219.56253267 1.2177766 219.57629616 -1.9453125 219.59570312 C-3.95574106 219.58880665 -5.96616242 219.57913606 -7.9765625 219.56640625 C-8.9214151 219.57136612 -9.8662677 219.57632599 -10.8397522 219.58143616 C-11.72101776 219.56559982 -12.60228333 219.54976349 -13.51025391 219.53344727 C-14.66891464 219.5241494 -14.66891464 219.5241494 -15.85098267 219.5146637 C-18.90165269 218.78406507 -20.0309085 217.41269577 -22 215 C-22.49942875 212.36048317 -22.49942875 212.36048317 -22.49879456 209.29824829 C-22.50837189 208.13500031 -22.51794922 206.97175232 -22.52781677 205.77325439 C-22.51807327 204.50052673 -22.50832977 203.22779907 -22.49829102 201.91650391 C-22.50211524 200.55933028 -22.50773516 199.20216071 -22.51501465 197.84500122 C-22.52696836 194.9224046 -22.52647309 192.00016724 -22.51642036 189.07756424 C-22.50083499 184.44418732 -22.51455842 179.81117752 -22.53245544 175.17782593 C-22.56329116 166.16289509 -22.56477843 157.14807624 -22.56280518 148.13310242 C-22.56141344 136.69507486 -22.57199819 125.25713551 -22.6113829 113.81917131 C-22.62620771 109.22671046 -22.62612669 104.63457684 -22.61390507 100.04211164 C-22.60914463 97.16353942 -22.61679054 94.28508847 -22.62744904 91.4065361 C-22.63094577 89.46502649 -22.61967742 87.52350714 -22.60771179 85.58203125 C-22.66901951 74.77259381 -23.13213971 61.30942388 -31 53 C-38.10145231 47.56465766 -44.0284744 45.85699313 -53 47 C-58.80002037 49.34837781 -63.59172508 52.68309113 -67 58 C-67.72509766 59.11568359 -67.72509766 59.11568359 -68.46484375 60.25390625 C-70.13724065 63.24549663 -71.13582661 66.09592914 -72.125 69.375 C-72.45757813 70.45523438 -72.79015625 71.53546875 -73.1328125 72.6484375 C-75.13213027 80.3755305 -75.13458117 87.79400734 -75.11010742 95.74072266 C-75.11050933 97.69119321 -75.11092101 99.64166379 -75.11170161 101.59213424 C-75.11186529 103.67740996 -75.10984686 105.76267564 -75.10753441 107.84794998 C-75.10388755 112.20175878 -75.11306862 116.55548145 -75.12532043 120.90927124 C-75.12835333 122.01371092 -75.12835333 122.01371092 -75.13144749 123.14046252 C-75.13561547 124.64527267 -75.13981822 126.15008272 -75.14405501 127.65489268 C-75.17216573 137.78267571 -75.19228954 147.91026793 -75.17504883 158.03808594 C-75.1634932 164.88252156 -75.1730665 171.72656714 -75.20710641 178.57093275 C-75.22425534 182.18906915 -75.23055941 185.80650123 -75.210989 189.42464066 C-75.1893748 193.45632047 -75.21421167 197.48643086 -75.24291992 201.51806641 C-75.22912796 202.71403946 -75.215336 203.91001251 -75.2011261 205.14222717 C-75.30921244 212.94851481 -75.30921244 212.94851481 -77.21922302 215.85584545 C-80.10894601 218.46914812 -82.9002118 219.62632184 -86.74853516 219.63110352 C-87.63610504 219.64363663 -88.52367493 219.65616974 -89.43814087 219.66908264 C-90.84934708 219.64919533 -90.84934708 219.64919533 -92.2890625 219.62890625 C-93.26990814 219.63131821 -94.25075378 219.63373016 -95.26132202 219.63621521 C-97.32725076 219.63523871 -99.3932063 219.62189229 -101.45898438 219.59692383 C-104.62199515 219.56253267 -107.7822234 219.57629616 -110.9453125 219.59570312 C-112.95574106 219.58880665 -114.96616242 219.57913606 -116.9765625 219.56640625 C-117.9214151 219.57136612 -118.8662677 219.57632599 -119.8397522 219.58143616 C-120.72101776 219.56559982 -121.60228333 219.54976349 -122.51025391 219.53344727 C-123.66891464 219.5241494 -123.66891464 219.5241494 -124.85098267 219.5146637 C-128.00349144 218.75967592 -129.036585 217.58369108 -131 215 C-131.39274781 212.05357288 -131.54052187 209.48134612 -131.50793457 206.53552246 C-131.51729451 205.24218498 -131.51729451 205.24218498 -131.52684355 203.92271948 C-131.54282161 201.02828111 -131.53015053 198.13467926 -131.51757812 195.24023438 C-131.5229971 193.16733813 -131.53011849 191.09444574 -131.53881836 189.02156067 C-131.55708124 183.3873154 -131.54997186 177.75336252 -131.53730202 172.11911201 C-131.52718975 166.22861048 -131.53656276 160.33813433 -131.54284668 154.44763184 C-131.55012825 144.55472306 -131.54052197 134.66193364 -131.52148438 124.76904297 C-131.49971474 113.32412764 -131.50676574 101.87949733 -131.52879 90.43458891 C-131.54692944 80.61624314 -131.54950943 70.79798328 -131.53903532 60.97962618 C-131.5327924 55.11203621 -131.53198674 49.2445803 -131.54518127 43.3769989 C-131.55671791 37.86118383 -131.54875387 32.34573698 -131.52560425 26.82996178 C-131.52030548 24.80304768 -131.52185079 22.77610272 -131.53065491 20.74920082 C-131.54154783 17.98720502 -131.52792271 15.22639716 -131.50793457 12.46447754 C-131.5213189 11.25456217 -131.5213189 11.25456217 -131.53497362 10.02020407 C-131.48434693 6.42622498 -131.30753991 4.40384464 -129.09824276 1.50271606 C-126.72074891 -0.19999359 -125.57281118 -0.50512766 -122.67797852 -0.51757812 C-121.83352676 -0.53018677 -120.98907501 -0.54279541 -120.11903381 -0.55578613 C-119.21479172 -0.54768921 -118.31054962 -0.53959229 -117.37890625 -0.53125 C-115.97353859 -0.53699036 -115.97353859 -0.53699036 -114.53977966 -0.54284668 C-112.56028162 -0.54556601 -110.58074766 -0.53820334 -108.60131836 -0.52148438 C-105.57649251 -0.50009893 -102.5540483 -0.52127281 -99.52929688 -0.546875 C-97.60416144 -0.54423126 -95.67902748 -0.53910532 -93.75390625 -0.53125 C-92.85168839 -0.53934692 -91.94947052 -0.54744385 -91.01991272 -0.55578613 C-87.01947067 -0.49627704 -84.52201352 -0.27456015 -80.93457031 1.61230469 C-78.37730611 4.76854445 -78.34609235 6.69698125 -78.29296875 10.734375 C-78.26396484 12.02988281 -78.23496094 13.32539063 -78.20507812 14.66015625 C-78.19868929 16.02343512 -78.1928367 17.3867166 -78.1875 18.75 C-78.16435029 20.12894569 -78.13898393 21.50785607 -78.11132812 22.88671875 C-78.05238786 26.2581019 -78.01615582 29.62818438 -78 33 C-77.53489014 32.09459473 -77.06978027 31.18918945 -76.59057617 30.25634766 C-69.51639317 16.58857893 -60.48617977 3.99015143 -45.7421875 -1.90234375 C-32.04210058 -6.23604471 -12.88356201 -6.60538179 0 0 Z " fill="#2A2A2A" transform="translate(1410,351)"/>
<path d="M0 0 C2.45877168 1.52628582 4.72484796 3.23130893 7.0390625 4.96875 C12.37446123 8.628918 18.2562133 11.26917748 24.07519531 14.06982422 C26.81427554 15.39350454 29.53191486 16.75882335 32.25 18.125 C33.20132813 18.599375 34.15265625 19.07375 35.1328125 19.5625 C37.11092741 20.55425244 39.08464578 21.55480603 41.0546875 22.5625 C46.32232273 25.2432304 51.56457136 27.69566285 57.078125 29.8203125 C60.89180879 31.36006184 64.62629994 33.05938613 68.375 34.75 C94.54364303 46.47217074 121.48704645 55.24397736 148.93579102 63.3848877 C151.03192078 64.00951205 153.12543187 64.64239015 155.21875 65.27636719 C164.94714826 68.20587704 174.71725781 70.75316344 184.625 73 C185.37057159 73.17019653 186.11614319 73.34039307 186.88430786 73.51574707 C201.26063375 76.77968278 215.67642967 79.31663196 230.265625 81.453125 C234.04396398 82.00643824 237.81880525 82.58027905 241.59375 83.15625 C252.40210013 84.78059346 263.1116984 86.31984156 274.04074097 86.76373291 C277.43155612 86.96607835 280.74125389 87.3042434 284.10674858 87.73089981 C294.26231355 89.00557803 304.26780181 89.29476544 314.4921875 89.265625 C316.21542414 89.26697987 317.93866039 89.26892713 319.66189575 89.27142334 C323.25022061 89.274344 326.83844482 89.27018235 330.42675781 89.26074219 C334.93548322 89.24943428 339.44397031 89.25606456 343.95268726 89.26761723 C369.25747333 89.32273083 394.50440002 89.02793646 419.5625 85.0625 C421.30273438 84.79928955 421.30273438 84.79928955 423.078125 84.53076172 C425.36155514 84.18387548 427.64432092 83.83257639 429.92626953 83.47607422 C432.61395882 83.05979192 435.30319539 82.66590876 437.99609375 82.28515625 C475.17664216 76.92024452 514.70744721 68.40155269 549.8125 54.8125 C552.47771978 53.82256122 555.17234854 52.94499844 557.875 52.0625 C563.34825944 50.25412408 568.67107443 48.19173552 574 46 C576.45383158 45.02242516 578.9091773 44.04905407 581.3671875 43.08203125 C583.24497831 42.31029823 585.10291354 41.48950023 586.9453125 40.63671875 C593.28715723 37.75774832 598.9873001 35.48306846 606 37 C609.02741253 38.31995186 609.83994792 39.27151317 612 42 C612.88192067 47.0510002 612.9579213 48.62591719 610.00390625 52.86328125 C606.60906068 56.7057855 602.4964228 59.42705011 598.25 62.25 C597.41162598 62.81428711 596.57325195 63.37857422 595.70947266 63.95996094 C582.88172469 72.50857128 569.50315349 80.01782084 555.80322266 87.06982422 C554.09487745 87.95105834 552.39670344 88.85192918 550.69921875 89.75390625 C548 91 548 91 545 91 C544.67 91.99 544.34 92.98 544 94 C541.43502952 95.13604229 538.95890997 96.09989245 536.3125 97 C530.57366353 98.99814834 530.57366353 98.99814834 525.04296875 101.5 C521.8888461 103.05479217 518.77560965 104.11783594 515.43603516 105.19189453 C510.24661491 106.9133799 505.17484911 108.9705081 500.08007812 110.95117188 C487.43270067 115.82421486 474.7158385 119.43759544 461.5625 122.625 C459.12608111 123.21702251 456.69007747 123.81056631 454.25511169 124.40853882 C452.75343187 124.77720705 451.25091809 125.14250095 449.74745178 125.5038147 C446.02117832 126.41742872 442.54546873 127.54782544 439 129 C436.22558819 129.51895473 433.47855581 129.97411349 430.6875 130.375 C428.9776782 130.63157349 427.26805126 130.88944802 425.55859375 131.1484375 C424.20290283 131.35291504 424.20290283 131.35291504 422.81982422 131.56152344 C418.95901688 132.16187062 415.10977468 132.82419065 411.2590332 133.4855957 C366.28290741 141.17441494 319.43551209 143.05988344 274 138 C273.17773926 137.90928223 272.35547852 137.81856445 271.50830078 137.72509766 C260.35572818 136.45190939 260.35572818 136.45190939 256 135 C253.52106522 134.65817701 251.04791641 134.34735982 248.5625 134.0625 C241.67024781 133.24102145 234.8349211 132.21682307 228 131 C228 130.34 228 129.68 228 129 C227.03320312 128.87882813 226.06640625 128.75765625 225.0703125 128.6328125 C223.11738281 128.38144531 223.11738281 128.38144531 221.125 128.125 C219.84882812 127.96257812 218.57265625 127.80015625 217.2578125 127.6328125 C207.83197703 126.29654477 198.76639759 123.94252659 189.625 121.3125 C188.39273682 120.95873291 187.16047363 120.60496582 185.89086914 120.24047852 C176.2380274 117.43257313 166.74342739 114.31681339 157.31054688 110.84570312 C154.99926914 109.99973249 152.68067626 109.17739454 150.359375 108.359375 C132.02773525 101.83949726 114.26133487 93.96887937 97 85 C97 84.34 97 83.68 97 83 C96.27925293 82.8875293 95.55850586 82.77505859 94.81591797 82.65917969 C91.83592237 81.96159098 89.62546628 80.91982533 86.9453125 79.453125 C85.52798828 78.6796875 85.52798828 78.6796875 84.08203125 77.890625 C83.10621094 77.34921875 82.13039063 76.8078125 81.125 76.25 C80.15691406 75.7240625 79.18882812 75.198125 78.19140625 74.65625 C72.8573525 71.72433474 67.89075141 68.61877445 63 65 C61.34867484 64.06101119 59.69687013 63.1228084 58.0390625 62.1953125 C47.47881292 56.00482136 37.67692926 48.50130482 27.80249023 41.29345703 C26.2254252 40.16176388 24.61509161 39.07672774 23 38 C23 37.34 23 36.68 23 36 C22.30132812 35.77441406 21.60265625 35.54882812 20.8828125 35.31640625 C17.37314604 33.71375368 14.73756509 31.46595546 11.875 28.9375 C10.72723617 27.94453327 9.57878682 26.95235844 8.4296875 25.9609375 C7.85702148 25.46432617 7.28435547 24.96771484 6.69433594 24.45605469 C1.67880116 20.14587466 -3.41256836 15.860625 -8.78125 12 C-11 10 -11 10 -11.59375 7.96484375 C-11.4601067 5.07480746 -11.27196532 2.56092846 -10 -0.0625 C-6.52750557 -1.69023176 -3.5049957 -1.1723399 0 0 Z " fill="#F69B35" transform="translate(347,593)"/>
<path d="M0 0 C1.75403389 -0.01258347 1.75403389 -0.01258347 3.54350281 -0.02542114 C5.46988335 -0.00856262 5.46988335 -0.00856262 7.43518066 0.00863647 C8.80020003 0.00649078 10.16521762 0.00261333 11.53022766 -0.00286865 C15.23899043 -0.01257125 18.9472726 0.00275223 22.65597725 0.02303743 C26.53431791 0.04059093 30.41264334 0.03708369 34.29101562 0.03631592 C40.80448459 0.03818963 47.31776732 0.05556284 53.83117676 0.08285522 C61.36510517 0.11430683 68.89882957 0.12485146 76.43281889 0.12338412 C83.67568516 0.12216391 90.91848489 0.13237155 98.16133118 0.14896774 C101.24579894 0.15603444 104.33024316 0.15969439 107.41471863 0.16075516 C111.04595609 0.16276253 114.67702191 0.17495969 118.30820274 0.19508743 C120.2792472 0.20372776 122.25032687 0.20259349 124.22138977 0.20120239 C125.3907457 0.20973236 126.56010162 0.21826233 127.76489258 0.22705078 C129.29245052 0.23207831 129.29245052 0.23207831 130.85086823 0.23720741 C133.38244629 0.49447632 133.38244629 0.49447632 136.38244629 2.49447632 C138.08973898 7.61635439 137.72654512 13.05484152 137.78747559 18.41610718 C137.80893643 19.83107081 137.84289729 21.24590604 137.89001465 22.6602478 C138.20350836 32.17550718 137.33746519 38.81584989 131.38244629 46.49447632 C130.58435246 47.6515958 129.78852537 48.81028439 128.99572754 49.97103882 C128.23646973 51.01002319 127.47721191 52.04900757 126.69494629 53.11947632 C123.0150391 58.19482232 119.41797614 63.31751731 115.88244629 68.49447632 C112.03718871 74.11783706 108.12336764 79.68412503 104.14538574 85.21420288 C101.05901509 89.51682051 98.0544001 93.87070781 95.06994629 98.24447632 C91.09738741 104.06184174 87.02408989 109.79635662 82.88244629 115.49447632 C75.48653301 125.67209673 68.34244573 136.01429241 61.38244629 146.49447632 C62.13002197 146.52364136 62.87759766 146.5528064 63.64782715 146.58285522 C88.05905314 147.63716685 120.75154821 149.17935617 139.38244629 167.49447632 C141.97169788 171.37835371 141.70622271 174.66996952 141.71838379 179.17807007 C141.72836899 180.45594139 141.72836899 180.45594139 141.73855591 181.7596283 C141.74867831 183.56095216 141.75337305 185.36231349 141.75305176 187.16366577 C141.75742481 189.91844485 141.79374671 192.6716214 141.83166504 195.42611694 C141.83753334 197.17676251 141.84150264 198.92741568 141.84338379 200.67807007 C141.85775482 201.50109116 141.87212585 202.32411224 141.88693237 203.17207336 C141.85668024 206.96178465 141.83036508 208.87854315 139.55285645 212.01034546 C136.25148433 214.2678304 134.32271915 214.07582805 130.38244629 213.49447632 C129.00241275 212.7734118 127.65082225 211.99657928 126.32385254 211.18197632 C121.25087778 208.28040218 116.10164911 206.55916483 110.50744629 204.93197632 C109.49496826 204.63605591 108.48249023 204.3401355 107.43933105 204.0352478 C104.42523977 203.16978283 101.40504248 202.32967411 98.38244629 201.49447632 C97.58016602 201.26276733 96.77788574 201.03105835 95.95129395 200.79232788 C76.77896268 195.3599581 55.85418648 196.0184625 36.38244629 199.49447632 C35.10111816 199.69428101 33.81979004 199.89408569 32.49963379 200.09994507 C19.85708959 202.36951023 7.49409572 206.57513843 -3.81384277 212.70199585 C-6.84083896 214.0319403 -9.39686216 213.93653202 -12.61755371 213.49447632 C-14.67146717 211.9475017 -15.50789719 211.0636528 -15.99850464 208.51713562 C-16.00089142 207.76627182 -16.0032782 207.01540802 -16.0057373 206.24179077 C-16.01519379 205.38692581 -16.02465027 204.53206085 -16.03439331 203.65129089 C-16.02832062 202.7294249 -16.02224792 201.8075589 -16.01599121 200.85775757 C-16.01886139 199.90434982 -16.02173157 198.95094208 -16.02468872 197.96864319 C-16.02673126 195.94868375 -16.02118816 193.92870462 -16.00866699 191.90878296 C-15.99270437 188.83597739 -16.00846355 185.76450491 -16.02770996 182.69174194 C-16.02572583 180.72624427 -16.02187866 178.76074742 -16.01599121 176.79525757 C-16.0220639 175.88351273 -16.0281366 174.97176788 -16.03439331 174.03239441 C-15.94615033 165.90816679 -13.84263156 159.80518039 -9.18005371 153.05697632 C-8.12431152 151.51976929 -8.12431152 151.51976929 -7.04724121 149.95150757 C-6.23882856 148.79812283 -5.42883732 147.64584346 -4.61755371 146.49447632 C-4.1667041 145.85300659 -3.71585449 145.21153687 -3.25134277 144.55062866 C-1.25650099 141.71546148 0.74211158 138.88303094 2.74743652 136.05526733 C6.16840899 131.23016038 9.54278985 126.37616337 12.88244629 121.49447632 C16.62692044 116.02271465 20.42162416 110.59007226 24.25744629 105.18197632 C28.57098738 99.09933559 32.80989936 92.97019775 37.00744629 86.80697632 C41.16562295 80.70218421 45.38095075 74.64840468 49.6973877 68.65463257 C55.40741277 60.70781094 60.95452493 52.63635835 66.38244629 44.49447632 C65.51658401 44.50557938 64.65072174 44.51668243 63.75862122 44.52812195 C55.59280558 44.62836837 47.42719703 44.70446369 39.26090717 44.75353718 C35.06262748 44.77961493 30.86485684 44.81497854 26.66687012 44.87167358 C22.61438697 44.92606012 18.56239296 44.95591056 14.50957298 44.96886253 C12.96457405 44.97809066 11.41960146 44.99611168 9.87481117 45.0231266 C7.70790715 45.0595087 5.54301553 45.06441836 3.37585449 45.06210327 C2.14341507 45.07320633 0.91097565 45.08430939 -0.35881042 45.0957489 C-4.55512882 44.3214838 -6.02541242 42.82116588 -8.61755371 39.49447632 C-9.09346462 36.61918125 -9.27583254 34.35280791 -9.21130371 31.49057007 C-9.21134399 30.73026993 -9.21138428 29.96996979 -9.21142578 29.18663025 C-9.20608257 27.58546647 -9.18855081 25.9843023 -9.1595459 24.38339233 C-9.11762058 21.93588004 -9.1184855 19.49111602 -9.12536621 17.04330444 C-9.11487495 15.48404058 -9.10193717 13.92479085 -9.08630371 12.36557007 C-9.08600159 11.27169228 -9.08600159 11.27169228 -9.08569336 10.15571594 C-8.92247571 3.13658244 -7.23949083 -0.00774538 0 0 Z " fill="#2A2A2A" transform="translate(907.6175537109375,350.5055236816406)"/>
<path d="M0 0 C14.27585303 14.27585303 14.21696338 38.19401506 14.27560425 57.13313293 C14.27415058 59.33037823 14.26915264 61.52762383 14.26074219 63.72485352 C14.25000936 67.05959201 14.2606974 70.39379329 14.2734375 73.72851562 C14.28407804 87.74171257 14.22280879 101.49151275 9.3125 114.8125 C9.05267334 115.52752686 8.79284668 116.24255371 8.52514648 116.97924805 C5.16105323 125.76066046 0.63742342 132.00119286 -8 136 C-8.763125 136.4125 -9.52625 136.825 -10.3125 137.25 C-17.33314587 139.20925001 -23.67359265 138.47332168 -30 135 C-39.12826775 129.2113424 -43.61328158 118.13159796 -46 108 C-49.15794206 92.37215712 -49.29958391 76.44242085 -49.375 60.5625 C-49.38294586 59.68388306 -49.39089172 58.80526611 -49.39907837 57.90002441 C-49.53026263 39.01566425 -49.24355283 15.99700224 -35.4765625 1.3828125 C-26.06067143 -7.52180846 -10.1208074 -8.0414801 0 0 Z " fill="#FCFCFC" transform="translate(1176,394)"/>
<path d="M0 0 C0.8561792 0.14848389 1.7123584 0.29696777 2.59448242 0.44995117 C9.46103645 1.8346374 16.83372069 4.27122069 21.875 9.3125 C22.34152213 13.58459869 22.19887326 17.89295772 22.1875 22.1875 C22.20361328 23.36570312 22.21972656 24.54390625 22.23632812 25.7578125 C22.24017994 32.75271276 21.53186718 38.96335251 19.61181641 45.69580078 C18.89952951 48.22538693 18.38790026 50.72501873 17.9375 53.3125 C12.82170729 79.26277107 -2.80195428 104.63666473 -22.125 122.3125 C-25.56607266 124.60654844 -27.09339809 124.57543056 -31.125 124.3125 C-31.455 123.9825 -31.785 123.6525 -32.125 123.3125 C-31.73901138 116.10252385 -29.89163461 109.94414718 -27.4375 103.1875 C-27.07954346 102.17993652 -26.72158691 101.17237305 -26.3527832 100.13427734 C-23.84934897 93.14698866 -21.15704922 86.25163212 -18.3671875 79.375 C-13.09674721 66.38121011 -8.48685865 49.40572881 -11.125 35.3125 C-13.90665661 31.83542924 -16.34914262 29.79707854 -20.625 28.5625 C-21.3571875 28.34078125 -22.089375 28.1190625 -22.84375 27.890625 C-29.52255331 26.19805156 -35.81850302 26.12079163 -42.6875 26.125 C-43.91227051 26.12508057 -45.13704102 26.12516113 -46.39892578 26.12524414 C-61.62062855 26.2173852 -77.0939901 26.78621466 -92.125 29.3125 C-94.20629609 29.4238131 -96.29077049 29.48690811 -98.375 29.5 C-99.41140625 29.51417969 -100.4478125 29.52835938 -101.515625 29.54296875 C-104.125 29.3125 -104.125 29.3125 -106.125 27.3125 C-105.75 24.1875 -105.75 24.1875 -105.125 21.3125 C-104.465 21.3125 -103.805 21.3125 -103.125 21.3125 C-103.125 20.6525 -103.125 19.9925 -103.125 19.3125 C-89.9711024 9.21173144 -74.34586789 4.53998764 -58.375 1.125 C-57.59511719 0.95798584 -56.81523438 0.79097168 -56.01171875 0.61889648 C-37.83057625 -3.11692837 -18.24826908 -3.25571686 0 0 Z " fill="#F69C36" transform="translate(997.125,580.6875)"/>
<path d="M0 0 C0.89315918 0.00338379 1.78631836 0.00676758 2.70654297 0.01025391 C3.72192139 0.01677979 3.72192139 0.01677979 4.7578125 0.0234375 C5.90828643 42.00688626 5.90828643 42.00688626 -8.3671875 59.3359375 C-15.06033899 66.33783403 -21.76269124 69.235318 -31.4296875 69.6484375 C-37.57706431 69.38641816 -41.8426703 68.43318613 -46.2421875 64.0234375 C-54.16389571 54.52093999 -54.83373034 45.06004826 -54.2421875 33.0234375 C-53.41540872 23.95554119 -49.04869164 17.08533389 -42.1171875 11.2734375 C-33.3396294 4.93654045 -23.85527607 2.32361644 -13.2421875 1.0234375 C-12.52289062 0.91257812 -11.80359375 0.80171875 -11.0625 0.6875 C-7.35459252 0.1365258 -3.73872215 -0.01841735 0 0 Z " fill="#FBFBFB" transform="translate(790.2421875,462.9765625)"/>
<path d="M0 0 C0.1006893 4.01595418 0.17230102 8.031396 0.21972656 12.04833984 C0.2491639 14.06764644 0.30005076 16.08660465 0.3515625 18.10546875 C0.50101111 33.27450269 -3.23524459 48.84406525 -13.94140625 60.171875 C-21.27218411 66.68193959 -28.05560791 68.87998793 -37.83203125 68.37890625 C-44.87472586 67.53656177 -48.95516911 64.89079802 -53.421875 59.34765625 C-59.78611337 49.88006401 -60.5441989 38.98688305 -58.41015625 27.94921875 C-55.4487749 18.30084725 -48.53397401 11.1288971 -40 6 C-26.54789491 0.08681162 -14.3592723 -0.16033927 0 0 Z " fill="#FCFCFC" transform="translate(272,464)"/>
<path d="M0 0 C-0.33 0.99 -0.66 1.98 -1 3 C-1.66 2.67 -2.32 2.34 -3 2 C-3 2.99 -3 3.98 -3 5 C-3.66 5 -4.32 5 -5 5 C-5 5.66 -5 6.32 -5 7 C-3.68 7 -2.36 7 -1 7 C-1 7.66 -1 8.32 -1 9 C-0.01 9.33 0.98 9.66 2 10 C2 10.99 2 11.98 2 13 C0.68 12.67 -0.64 12.34 -2 12 C-1.67 13.65 -1.34 15.3 -1 17 C-3.00698975 15.6772113 -5.00591923 14.34216975 -7 13 C-7.78375 12.5875 -8.5675 12.175 -9.375 11.75 C-11.32961365 9.64503145 -11.31952448 8.8108949 -11.4375 6 C-11.29054839 3.58197801 -11.06387105 2.13173403 -10 -0.0625 C-6.63210163 -1.64120236 -3.59935948 -0.64906482 0 0 Z " fill="#F2A042" transform="translate(347,593)"/>
<path d="M0 0 C0.66 0 1.32 0 2 0 C2 0.66 2 1.32 2 2 C3.175625 1.9071875 3.175625 1.9071875 4.375 1.8125 C5.674375 1.9053125 5.674375 1.9053125 7 2 C9 5 9 5 10 8 C9.67 8.66 9.34 9.32 9 10 C12.86763446 11.87543354 12.86763446 11.87543354 17 11 C16.67 12.65 16.34 14.3 16 16 C16.99 16 17.98 16 19 16 C19 16.99 19 17.98 19 19 C14.03657693 17.40013936 10.29801238 14.47460168 6.1875 11.375 C5.49462891 10.859375 4.80175781 10.34375 4.08789062 9.8125 C2.38826337 8.54657074 0.69362565 7.27394735 -1 6 C-0.34 5.67 0.32 5.34 1 5 C1.99 5.33 2.98 5.66 4 6 C4 5.34 4 4.68 4 4 C2.68 3.34 1.36 2.68 0 2 C0 1.34 0 0.68 0 0 Z " fill="#F39E3D" transform="translate(377,629)"/>
<path d="M0 0 C0 0.66 0 1.32 0 2 C-0.99 2.33 -1.98 2.66 -3 3 C-3.33 3.66 -3.66 4.32 -4 5 C-0.37 5.66 3.26 6.32 7 7 C7 7.33 7 7.66 7 8 C1.72 8 -3.56 8 -9 8 C-9.33 9.65 -9.66 11.3 -10 13 C-4.39 13 1.22 13 7 13 C7 13.33 7 13.66 7 14 C1.13869293 15.30251268 -5.02522535 15.52771213 -11 15 C-11.66 14.34 -12.32 13.68 -13 13 C-12.625 9.875 -12.625 9.875 -12 7 C-11.34 7 -10.68 7 -10 7 C-10 6.34 -10 5.68 -10 5 C-8.3203125 3.7109375 -8.3203125 3.7109375 -6.125 2.375 C-5.40570312 1.92898438 -4.68640625 1.48296875 -3.9453125 1.0234375 C-2 0 -2 0 0 0 Z " fill="#F1A243" transform="translate(904,595)"/>
<path d="M0 0 C0 0.66 0 1.32 0 2 C-2.64 2.33 -5.28 2.66 -8 3 C-8.33 3.99 -8.66 4.98 -9 6 C-13.95 6.33 -18.9 6.66 -24 7 C-16.41012728 1.30759546 -9.44166683 -0.7231915 0 0 Z " fill="#F3A747" transform="translate(934,585)"/>
<path d="M0 0 C4.39577504 -0.05901588 8.79144562 -0.09393248 13.1875 -0.125 C14.41404297 -0.14175781 15.64058594 -0.15851562 16.90429688 -0.17578125 C25.12699648 -0.2191728 32.91647512 0.49288774 41 2 C41 2.33 41 2.66 41 3 C38.3753399 3.19430855 35.75053235 3.38073238 33.125 3.5625 C32.00544922 3.64661133 32.00544922 3.64661133 30.86328125 3.73242188 C25.2265625 4.11328125 25.2265625 4.11328125 23 3 C23 2.34 23 1.68 23 1 C15.41 1 7.82 1 0 1 C0 0.67 0 0.34 0 0 Z " fill="#F4AE5C" transform="translate(957,579)"/>
<path d="M0 0 C-3.40351338 2.03219488 -6.3232927 2.36891039 -10.25 2.625 C-11.32765625 2.69976563 -12.4053125 2.77453125 -13.515625 2.8515625 C-14.33546875 2.90054688 -15.1553125 2.94953125 -16 3 C-16 3.66 -16 4.32 -16 5 C-26.23 5 -36.46 5 -47 5 C-47 4.67 -47 4.34 -47 4 C-45.83766846 3.92483154 -45.83766846 3.92483154 -44.65185547 3.84814453 C-26.04190874 2.74075382 -26.04190874 2.74075382 -7.56640625 0.3671875 C-5.00692067 0.00099017 -2.58164614 -0.06559536 0 0 Z " fill="#F0A64C" transform="translate(771,678)"/>
<path d="M0 0 C0.33 0 0.66 0 1 0 C1 2.31 1 4.62 1 7 C2.32 7 3.64 7 5 7 C5 7.66 5 8.32 5 9 C2.69 9.33 0.38 9.66 -2 10 C-2 11.65 -2 13.3 -2 15 C-0.68 14.67 0.64 14.34 2 14 C1.01 15.485 1.01 15.485 0 17 C0.99 17.66 1.98 18.32 3 19 C1.00045254 19.04254356 -1.00041636 19.04080783 -3 19 C-3.33 18.67 -3.66 18.34 -4 18 C-3.94338874 11.65953874 -2.21203894 5.8848583 0 0 Z " fill="#F1A448" transform="translate(969,686)"/>
<path d="M0 0 C0 0.33 0 0.66 0 1 C-2.58067563 1.69918305 -5.16372847 2.38461049 -7.75 3.0625 C-8.47960937 3.26166016 -9.20921875 3.46082031 -9.9609375 3.66601562 C-13.71031044 4.63744407 -16.30274238 5.15449387 -20 4 C-16.91190305 2.23537317 -15.76687864 2 -12 2 C-13.32 1.01 -14.64 0.02 -16 -1 C-10.03654233 -2.0006709 -5.71271093 -2.0662997 0 0 Z " fill="#F09E3E" transform="translate(796,718)"/>
<path d="M0 0 C-2.76902845 3.24926585 -6.38570333 5.08275078 -10.0625 7.125 C-11.01866211 7.66447266 -11.01866211 7.66447266 -11.99414062 8.21484375 C-14.3100188 9.51798279 -16.62285288 10.81142644 -19 12 C-18.25 10.0625 -18.25 10.0625 -17 8 C-15.66666667 7.66666667 -14.33333333 7.33333333 -13 7 C-12.690625 6.38125 -12.38125 5.7625 -12.0625 5.125 C-9.54716019 0.09432037 -5.17249289 -0.3608716 0 0 Z " fill="#EFA343" transform="translate(935,661)"/>
<path d="M0 0 C0.433125 0.639375 0.86625 1.27875 1.3125 1.9375 C5.44651583 5.1101168 9.91601822 4.82469028 15 5 C14.01 5.495 14.01 5.495 13 6 C13 6.66 13 7.32 13 8 C14.32 8.33 15.64 8.66 17 9 C15 10 15 10 12.96875 9.50268555 C11.74671875 9.07403198 11.74671875 9.07403198 10.5 8.63671875 C9.613125 8.32669922 8.72625 8.01667969 7.8125 7.69726562 C6.884375 7.36404297 5.95625 7.03082031 5 6.6875 C3.6078125 6.20506836 3.6078125 6.20506836 2.1875 5.71289062 C-4.73832958 3.26167042 -4.73832958 3.26167042 -7 1 C-5.5459375 1.0309375 -5.5459375 1.0309375 -4.0625 1.0625 C-1.12534105 1.35618499 -1.12534105 1.35618499 0 0 Z " fill="#F1A754" transform="translate(507,700)"/>
<path d="M0 0 C4.62 0 9.24 0 14 0 C14.33 0.66 14.66 1.32 15 2 C13.02 2.33 11.04 2.66 9 3 C9 3.33 9 3.66 9 4 C3.87416389 4.10251672 -0.94997778 4.03590199 -6 3 C-6 2.67 -6 2.34 -6 2 C-4.02 2 -2.04 2 0 2 C0 1.34 0 0.68 0 0 Z " fill="#F5A750" transform="translate(612,726)"/>
<path d="M0 0 C13.86 0.495 13.86 0.495 28 1 C28 1.33 28 1.66 28 2 C19.64736824 2.95458649 11.40215965 3.11039334 3 3 C3 2.34 3 1.68 3 1 C2.01 0.67 1.02 0.34 0 0 Z " fill="#F1B063" transform="translate(911,605)"/>
<path d="M0 0 C0 0.66 0 1.32 0 2 C3.465 1.505 3.465 1.505 7 1 C3.44008172 3.96659857 -0.65222543 6.381348 -5 8 C-7 7 -7 7 -8 5 C-7.34 5 -6.68 5 -6 5 C-6 4.34 -6 3.68 -6 3 C-2.53846154 0 -2.53846154 0 0 0 Z " fill="#F2A64A" transform="translate(870,690)"/>
<path d="M0 0 C0.99 0.66 1.98 1.32 3 2 C3.35644531 4.6262207 3.35644531 4.6262207 3.328125 7.92578125 C3.32296875 9.11494141 3.3178125 10.30410156 3.3125 11.52929688 C3.291875 12.77775391 3.27125 14.02621094 3.25 15.3125 C3.24484375 16.54935547 3.2396875 17.78621094 3.234375 19.06054688 C3.14810259 29.04118615 3.14810259 29.04118615 2 34 C1.67 34 1.34 34 1 34 C1 24.76 1 15.52 1 6 C0.34 6 -0.32 6 -1 6 C-1 5.34 -1 4.68 -1 4 C-1.66 3.67 -2.32 3.34 -3 3 C-2.01 3 -1.02 3 0 3 C0 2.01 0 1.02 0 0 Z " fill="#EFAB59" transform="translate(1016,588)"/>
<path d="M0 0 C0.33 0 0.66 0 1 0 C1.49230769 7.38461538 1.49230769 7.38461538 -1 10.5 C-1.66 10.995 -2.32 11.49 -3 12 C-3 11.01 -3 10.02 -3 9 C-3.99 9 -4.98 9 -6 9 C-6.66 10.32 -7.32 11.64 -8 13 C-8.36407767 8.50970874 -8.36407767 8.50970874 -6.75 6.25 C-4.83141429 4.87958164 -3.30908032 4.3981173 -1 4 C-0.67 2.68 -0.34 1.36 0 0 Z " fill="#F49E42" transform="translate(958,635)"/>
<path d="M0 0 C0.66 0 1.32 0 2 0 C1.67 0.763125 1.34 1.52625 1 2.3125 C-0.17436686 4.99069135 -0.17436686 4.99069135 0 8 C5.61 8 11.22 8 17 8 C17 8.33 17 8.66 17 9 C11.13869293 10.30251268 4.97477465 10.52771213 -1 10 C-1.66 9.34 -2.32 8.68 -3 8 C-2.625 4.875 -2.625 4.875 -2 2 C-1.34 2 -0.68 2 0 2 C0 1.34 0 0.68 0 0 Z " fill="#EEAC60" transform="translate(894,600)"/>
<path d="M0 0 C2.31 0 4.62 0 7 0 C7 0.66 7 1.32 7 2 C7.99 2 8.98 2 10 2 C9.67 3.32 9.34 4.64 9 6 C9.99 6 10.98 6 12 6 C11.67 6.99 11.34 7.98 11 9 C6.90784086 6.71320518 3.50049752 4.09346293 0 1 C0 0.67 0 0.34 0 0 Z " fill="#F2A44B" transform="translate(358,620)"/>
<path d="M0 0 C5.91969002 1.75990784 11.41634992 4.39694605 17 7 C16.67 7.66 16.34 8.32 16 9 C15.01 9 14.02 9 13 9 C13 8.34 13 7.68 13 7 C10.69 7 8.38 7 6 7 C6 6.34 6 5.68 6 5 C2.86650268 3.95550089 2.01031744 4.06576355 -1 5 C-1 4.34 -1 3.68 -1 3 C-0.34 3 0.32 3 1 3 C0.67 2.01 0.34 1.02 0 0 Z " fill="#F0A755" transform="translate(399,621)"/>
<path d="M0 0 C1.17949219 0.11085938 2.35898437 0.22171875 3.57421875 0.3359375 C4.47785156 0.43132813 5.38148438 0.52671875 6.3125 0.625 C5.9825 1.285 5.6525 1.945 5.3125 2.625 C-0.50501117 4.0014647 -6.75181476 3.71921723 -12.6875 3.625 C-7.72859768 0.31906512 -5.97992209 -0.59207149 0 0 Z " fill="#FCFAF3" transform="translate(960.6875,576.375)"/>
<path d="M0 0 C-1.98 0.33 -3.96 0.66 -6 1 C-6 1.66 -6 2.32 -6 3 C-11.94 3.33 -17.88 3.66 -24 4 C-20.33038859 1.5535924 -16.82197691 1.03850656 -12.5625 0.3125 C-11.79873047 0.17005859 -11.03496094 0.02761719 -10.24804688 -0.11914062 C-9.13719727 -0.3134668 -9.13719727 -0.3134668 -8.00390625 -0.51171875 C-7.33174072 -0.62990967 -6.6595752 -0.74810059 -5.96704102 -0.86987305 C-3.77398918 -1.01495144 -2.09295669 -0.63457442 0 0 Z " fill="#F0AD5B" transform="translate(823,670)"/>
<path d="M0 0 C-0.33 0.66 -0.66 1.32 -1 2 C-3.0625 2.625 -3.0625 2.625 -5 3 C-5 3.66 -5 4.32 -5 5 C-9.95 5 -14.9 5 -20 5 C-16.6109639 2.7406426 -13.32015989 1.82999933 -9.4375 0.8125 C-8.75236328 0.62236328 -8.06722656 0.43222656 -7.36132812 0.23632812 C-2.24740751 -1.12370376 -2.24740751 -1.12370376 0 0 Z " fill="#F1A958" transform="translate(869,658)"/>
<path d="M0 0 C1.670625 0.2475 1.670625 0.2475 3.375 0.5 C6.72032033 1.0455458 6.72032033 1.0455458 9 1 C9.66 1 10.32 1 11 1 C10.67 2.65 10.34 4.3 10 6 C10.99 6 11.98 6 13 6 C13 6.99 13 7.98 13 9 C7.97290493 7.42903279 3.97133531 4.38006951 0 1 C0 0.67 0 0.34 0 0 Z " fill="#F3A44F" transform="translate(383,639)"/>
<path d="M0 0 C-0.33 0.99 -0.66 1.98 -1 3 C-2.65 3.33 -4.3 3.66 -6 4 C-6 3.34 -6 2.68 -6 2 C-6.99 2.33 -7.98 2.66 -9 3 C-9 5.31 -9 7.62 -9 10 C-9.66 10 -10.32 10 -11 10 C-11.3572093 2.73674419 -11.3572093 2.73674419 -10 -0.0625 C-6.63210163 -1.64120236 -3.59935948 -0.64906482 0 0 Z " fill="#F2B56F" transform="translate(347,593)"/>
<path d="M0 0 C2.10544013 0.28232721 4.20933589 0.5761898 6.3125 0.875 C7.48425781 1.03742187 8.65601563 1.19984375 9.86328125 1.3671875 C13 2 13 2 16 4 C15.01 4 14.02 4 13 4 C13 4.66 13 5.32 13 6 C11.39431334 5.71682074 9.79047953 5.42312209 8.1875 5.125 C7.29417969 4.96257813 6.40085937 4.80015625 5.48046875 4.6328125 C3 4 3 4 0 2 C0 1.34 0 0.68 0 0 Z " fill="#F4A24B" transform="translate(534,667)"/>
<path d="M0 0 C3.375 -0.1875 3.375 -0.1875 7 0 C7.66 0.99 8.32 1.98 9 3 C9.99 3.33 10.98 3.66 12 4 C12.33 3.01 12.66 2.02 13 1 C14.125 4.75 14.125 4.75 13 7 C8.1725201 5.58707905 4.2837641 3.57025846 0 1 C0 0.67 0 0.34 0 0 Z " fill="#F0A751" transform="translate(430,669)"/>
<path d="M0 0 C-1.50349377 3.66786393 -3.63728792 5.68910393 -6.625 8.25 C-7.44226563 8.95640625 -8.25953125 9.6628125 -9.1015625 10.390625 C-9.72804687 10.92171875 -10.35453125 11.4528125 -11 12 C-11.66 11.67 -12.32 11.34 -13 11 C-11.21427748 9.16052663 -9.42197551 7.32842259 -7.625 5.5 C-7.11710938 4.97535156 -6.60921875 4.45070313 -6.0859375 3.91015625 C-2.2265625 0 -2.2265625 0 0 0 Z " fill="#3E3E3E" transform="translate(188,363)"/>
<path d="M0 0 C0.66 0.33 1.32 0.66 2 1 C-4.29718136 5.12206799 -9.46828078 6.82703776 -17 7 C-14.18333306 5.12222204 -12.26813641 4.38697308 -9.0625 3.5 C-6.46916429 2.78028089 -4.19187133 2.10123693 -1.80859375 0.84375 C-0.91333984 0.42609375 -0.91333984 0.42609375 0 0 Z " fill="#EEB06A" transform="translate(895,648)"/>
<path d="M0 0 C-0.33 0.99 -0.66 1.98 -1 3 C-10.41002278 3.18451025 -10.41002278 3.18451025 -15 2 C-15 1.67 -15 1.34 -15 1 C-9.91913204 0.15318867 -5.15171623 -0.09038099 0 0 Z " fill="#F0AB58" transform="translate(602,724)"/>
<path d="M0 0 C0.99 0 1.98 0 3 0 C3.33 2.64 3.66 5.28 4 8 C2.35 7.67 0.7 7.34 -1 7 C-1.04254356 5.00045254 -1.04080783 2.99958364 -1 1 C-0.67 0.67 -0.34 0.34 0 0 Z " fill="#F59B2E" transform="translate(338,595)"/>
<path d="M0 0 C4.62 0.66 9.24 1.32 14 2 C14 2.33 14 2.66 14 3 C9.9472484 3.98248524 6.16138263 4.08159574 2 4 C1.34 2.68 0.68 1.36 0 0 Z " fill="#F7EBD4" transform="translate(780,672)"/>
<path d="M0 0 C1.98 0 3.96 0 6 0 C2.17058011 3.32993034 -2.37522222 5.05324525 -7 7 C-7 6.01 -7 5.02 -7 4 C-5.35 4 -3.7 4 -2 4 C-2 3.34 -2 2.68 -2 2 C-1.34 2 -0.68 2 0 2 C0 1.34 0 0.68 0 0 Z " fill="#EEA447" transform="translate(901,677)"/>
<path d="M0 0 C0.99 0.33 1.98 0.66 3 1 C3.6875 3.0625 3.6875 3.0625 4 5 C-0.27709699 5 -1.55930376 4.29379749 -5 2 C-4.34 1.67 -3.68 1.34 -3 1 C-2.01 1.33 -1.02 1.66 0 2 C0 1.34 0 0.68 0 0 Z " fill="#F4A548" transform="translate(410,653)"/>
<path d="M0 0 C0 0.66 0 1.32 0 2 C-4.62197306 4.21854707 -7.76824163 5.38281159 -13 5 C-12 3 -12 3 -10.0390625 2.1484375 C-8.84410156 1.76558594 -8.84410156 1.76558594 -7.625 1.375 C-6.83351563 1.11460937 -6.04203125 0.85421875 -5.2265625 0.5859375 C-3 0 -3 0 0 0 Z " fill="#EDAF5E" transform="translate(924,639)"/>
<path d="M0 0 C0.66666667 2.66666667 1.33333333 5.33333333 2 8 C-0.97 6.35 -3.94 4.7 -7 3 C-7 2.67 -7 2.34 -7 2 C-4.69 1.34 -2.38 0.68 0 0 Z " fill="#F1A74F" transform="translate(984,606)"/>
<path d="M0 0 C2.125 0.75 2.125 0.75 6.125 3.75 C1.835 3.42 -2.455 3.09 -6.875 2.75 C-2.29166667 -0.30555556 -2.29166667 -0.30555556 0 0 Z " fill="#F29F41" transform="translate(909.875,644.25)"/>
<path d="M0 0 C-3.85623679 3.97674419 -3.85623679 3.97674419 -7.11328125 4.04296875 C-9.08863015 3.7798228 -11.04718291 3.39718314 -13 3 C-4.58823529 -1.52941176 -4.58823529 -1.52941176 0 0 Z " fill="#F9E9CD" transform="translate(817,714)"/>
<path d="M0 0 C0 4.01847141 -1.22856766 5.15563523 -4 8 C-7.25 9.3125 -7.25 9.3125 -10 10 C-6.66666667 6.66666667 -3.33333333 3.33333333 0 0 Z " fill="#FCECD0" transform="translate(982,695)"/>
<path d="M0 0 C0.99 0.33 1.98 0.66 3 1 C2.67 1.66 2.34 2.32 2 3 C2.66 3.33 3.32 3.66 4 4 C4 4.66 4 5.32 4 6 C1.03 5.01 -1.94 4.02 -5 3 C-2 1 -2 1 0 0 Z " fill="#FC982C" transform="translate(478,687)"/>
<path d="M0 0 C0.66 0 1.32 0 2 0 C2 0.99 2 1.98 2 3 C1.34 3 0.68 3 0 3 C0.66 4.32 1.32 5.64 2 7 C-1.36591866 5.55746343 -3.51047079 3.66735273 -6 1 C-4.7934375 1.0309375 -4.7934375 1.0309375 -3.5625 1.0625 C-1.06645115 1.29633621 -1.06645115 1.29633621 0 0 Z " fill="#F0A854" transform="translate(355,612)"/>
<path d="M0 0 C0.66 0 1.32 0 2 0 C1.34 2.97 0.68 5.94 0 9 C-0.99 8.01 -1.98 7.02 -3 6 C-2.6875 3.8125 -2.6875 3.8125 -2 2 C-1.34 2 -0.68 2 0 2 C0 1.34 0 0.68 0 0 Z " fill="#F2A34C" transform="translate(1011,639)"/>
<path d="M0 0 C2.6015625 -0.29296875 2.6015625 -0.29296875 5.625 -0.1875 C7.12933594 -0.14689453 7.12933594 -0.14689453 8.6640625 -0.10546875 C9.43492187 -0.07066406 10.20578125 -0.03585937 11 0 C7.83759418 2.10827055 6.49342531 2.33817465 2.8125 2.625 C1.46091797 2.73714844 1.46091797 2.73714844 0.08203125 2.8515625 C-0.94857422 2.92503906 -0.94857422 2.92503906 -2 3 C-1.34 2.01 -0.68 1.02 0 0 Z " fill="#F3B972" transform="translate(778,720)"/>
<path d="M0 0 C3.3 0 6.6 0 10 0 C10 0.99 10 1.98 10 3 C6.7 2.34 3.4 1.68 0 1 C0 0.67 0 0.34 0 0 Z " fill="#FA972C" transform="translate(565,719)"/>
<path d="M0 0 C-0.33 0.99 -0.66 1.98 -1 3 C-4.96 2.67 -8.92 2.34 -13 2 C-13 1.67 -13 1.34 -13 1 C-11.58366664 0.83052421 -10.16691467 0.66454493 -8.75 0.5 C-7.56664062 0.36078125 -7.56664062 0.36078125 -6.359375 0.21875 C-4 0 -4 0 0 0 Z " fill="#F0AE59" transform="translate(784,676)"/>
<path d="M0 0 C0.83449189 3.33796756 1.46019653 6.60694964 2 10 C1.34 10 0.68 10 0 10 C0 9.34 0 8.68 0 8 C-0.66 8 -1.32 8 -2 8 C-1.34 5.36 -0.68 2.72 0 0 Z " fill="#F3A349" transform="translate(980,657)"/>
<path d="M0 0 C0 0.66 0 1.32 0 2 C1.98 2 3.96 2 6 2 C6 2.33 6 2.66 6 3 C1.1666528 3.08333357 -3.23692563 2.95261487 -8 2 C-8 1.67 -8 1.34 -8 1 C-2.25 0 -2.25 0 0 0 Z " fill="#FBECD3" transform="translate(611,677)"/>
<path d="M0 0 C0.99 0.33 1.98 0.66 3 1 C3.33 1.99 3.66 2.98 4 4 C2.02 4.33 0.04 4.66 -2 5 C-2 4.34 -2 3.68 -2 3 C-1.34 3 -0.68 3 0 3 C0 2.01 0 1.02 0 0 Z " fill="#FB9A30" transform="translate(344,595)"/>
<path d="M0 0 C6.52307692 -0.36923077 6.52307692 -0.36923077 8.9375 1.5 C9.288125 1.995 9.63875 2.49 10 3 C2.25 2.25 2.25 2.25 0 0 Z " fill="#EDAB57" transform="translate(526,710)"/>
<path d="M0 0 C-0.33 0.99 -0.66 1.98 -1 3 C-1.66 3 -2.32 3 -3 3 C-3.33 3.99 -3.66 4.98 -4 6 C-4.33 5.34 -4.66 4.68 -5 4 C-5.66 3.67 -6.32 3.34 -7 3 C-2.25 0 -2.25 0 0 0 Z " fill="#FCF0DE" transform="translate(907,678)"/>
<path d="M0 0 C0.33 0.99 0.66 1.98 1 3 C0.01 3 -0.98 3 -2 3 C-2.66 4.32 -3.32 5.64 -4 7 C-4 6.34 -4 5.68 -4 5 C-4.66 4.67 -5.32 4.34 -6 4 C-4.02 2.68 -2.04 1.36 0 0 Z " fill="#FDF1DA" transform="translate(954,648)"/>
</svg>
