<?xml version="1.0" encoding="UTF-8"?>
<svg version="1.1" xmlns="http://www.w3.org/2000/svg" width="474" height="266">
<path d="M0 0 C156.42 0 312.84 0 474 0 C474 87.78 474 175.56 474 266 C317.58 266 161.16 266 0 266 C0 178.22 0 90.44 0 0 Z " fill="#FDFDFC" transform="translate(0,0)"/>
<path d="M0 0 C5.46921565 2.40603092 8.47430034 6.4453333 11.640625 11.38671875 C12.15625 10.49984375 12.671875 9.61296875 13.203125 8.69921875 C15.9566049 4.56409947 19.81515071 1.28521957 24.59375 -0.234375 C31.2706295 -1.47036224 37.6700693 -0.98193162 43.640625 2.38671875 C47.70872622 5.52574142 50.00236391 8.4865583 51.640625 13.38671875 C51.88786316 16.48687744 51.88786316 16.48687744 51.88354492 19.99707031 C51.88815987 21.97371674 51.88815987 21.97371674 51.89286804 23.99029541 C51.88597234 25.41931332 51.87870553 26.84832948 51.87109375 28.27734375 C51.86990102 29.74753784 51.86944898 31.2177327 51.8697052 32.68792725 C51.86814447 35.7610759 51.85988319 38.83410737 51.84643555 41.90722656 C51.82938634 45.85406749 51.82562313 49.80078052 51.82638073 53.74765396 C51.82610949 56.77928904 51.82063674 59.81089594 51.81337929 62.84252167 C51.81018987 64.29864031 51.80822458 65.75476215 51.80748558 67.21088409 C51.80532831 69.2385828 51.79580034 71.26626969 51.78588867 73.29394531 C51.78207687 74.44912659 51.77826508 75.60430786 51.77433777 76.79449463 C51.640625 79.38671875 51.640625 79.38671875 50.640625 80.38671875 C49.31018875 80.48509085 47.97469156 80.51750467 46.640625 80.51953125 C45.83625 80.52082031 45.031875 80.52210938 44.203125 80.5234375 C43.3575 80.51957031 42.511875 80.51570313 41.640625 80.51171875 C40.795 80.51558594 39.949375 80.51945312 39.078125 80.5234375 C38.27375 80.52214844 37.469375 80.52085937 36.640625 80.51953125 C35.898125 80.51840332 35.155625 80.51727539 34.390625 80.51611328 C32.640625 80.38671875 32.640625 80.38671875 31.640625 79.38671875 C31.5227165 77.65936157 31.47329118 75.92728032 31.45117188 74.19604492 C31.43445435 73.08786911 31.41773682 71.9796933 31.4005127 70.8379364 C31.38693726 69.63071426 31.37336182 68.42349213 31.359375 67.1796875 C31.34096558 65.94761063 31.32255615 64.71553375 31.30358887 63.44612122 C31.24461823 59.4888755 31.19174554 55.53157141 31.140625 51.57421875 C31.07333287 46.3801174 30.99930166 41.18614801 30.921875 35.9921875 C30.90829956 34.79103806 30.89472412 33.58988861 30.8807373 32.3523407 C30.86401978 31.2347084 30.84730225 30.11707611 30.83007812 28.96557617 C30.81755005 27.98264084 30.80502197 26.99970551 30.79211426 25.98698425 C30.65551091 23.64223068 30.30433279 21.63187756 29.640625 19.38671875 C22.63360463 18.68105052 22.63360463 18.68105052 16.578125 21.76171875 C13.92860905 25.35138552 13.51017477 27.06393292 13.45117188 31.46313477 C13.42609558 33.04971642 13.42609558 33.04971642 13.4005127 34.66835022 C13.38693726 35.8142009 13.37336182 36.96005157 13.359375 38.140625 C13.34096558 39.31181381 13.32255615 40.48300262 13.30358887 41.68968201 C13.22467004 46.71872556 13.1570215 51.74790696 13.08837891 56.77709961 C13.03679859 60.44001194 12.97949642 64.10280355 12.921875 67.765625 C12.90829956 68.91349991 12.89472412 70.06137482 12.8807373 71.24403381 C12.85566101 72.82588722 12.85566101 72.82588722 12.83007812 74.43969727 C12.81128601 75.83962669 12.81128601 75.83962669 12.79211426 77.26783752 C12.640625 79.38671875 12.640625 79.38671875 11.640625 80.38671875 C10.31018875 80.48509085 8.97469156 80.51750467 7.640625 80.51953125 C6.83625 80.52082031 6.031875 80.52210938 5.203125 80.5234375 C4.3575 80.51957031 3.511875 80.51570313 2.640625 80.51171875 C1.795 80.51558594 0.949375 80.51945312 0.078125 80.5234375 C-0.72625 80.52214844 -1.530625 80.52085937 -2.359375 80.51953125 C-3.101875 80.51840332 -3.844375 80.51727539 -4.609375 80.51611328 C-6.359375 80.38671875 -6.359375 80.38671875 -7.359375 79.38671875 C-7.46675622 77.69497193 -7.50561739 75.99882345 -7.51708984 74.30371094 C-7.52735199 73.21878357 -7.53761414 72.1338562 -7.54818726 71.01605225 C-7.55548859 69.83384094 -7.56278992 68.65162964 -7.5703125 67.43359375 C-7.59838547 64.95311845 -7.62704996 62.47264979 -7.65625 59.9921875 C-7.69751179 56.06396702 -7.7343807 52.13586986 -7.76074219 48.20751953 C-7.78833013 44.42844707 -7.834211 40.64994652 -7.8828125 36.87109375 C-7.88606537 35.69697937 -7.88931824 34.52286499 -7.89266968 33.31317139 C-7.90923615 32.21563538 -7.92580261 31.11809937 -7.94287109 29.98730469 C-7.95095795 29.02435486 -7.9590448 28.06140503 -7.96737671 27.0692749 C-8.43793078 23.84913916 -9.38790861 21.96491899 -11.359375 19.38671875 C-14.70960996 18.47301831 -17.19515518 18.16034267 -20.609375 18.82421875 C-24.08508948 21.92753525 -25.16111142 26.57369015 -25.65264893 31.068573 C-25.78372509 34.14483765 -25.82658696 37.21002819 -25.8359375 40.2890625 C-25.85930679 41.96652306 -25.85930679 41.96652306 -25.88314819 43.6778717 C-25.9304435 47.22664773 -25.95837683 50.77522832 -25.984375 54.32421875 C-26.0208404 57.89806739 -26.06136621 61.47180452 -26.10702515 65.04554749 C-26.13430591 67.2645869 -26.15563349 69.48370871 -26.17056274 71.7028656 C-26.18595596 73.19560753 -26.18595596 73.19560753 -26.20166016 74.71850586 C-26.21140366 76.03799477 -26.21140366 76.03799477 -26.22134399 77.38414001 C-26.359375 79.38671875 -26.359375 79.38671875 -27.359375 80.38671875 C-28.70204913 80.47303749 -30.04911822 80.49378348 -31.39453125 80.484375 C-32.20341797 80.48115234 -33.01230469 80.47792969 -33.84570312 80.47460938 C-34.69583984 80.46623047 -35.54597656 80.45785156 -36.421875 80.44921875 C-37.27587891 80.44470703 -38.12988281 80.44019531 -39.00976562 80.43554688 C-41.12633163 80.42372248 -43.24286185 80.40578644 -45.359375 80.38671875 C-46.83431877 77.43683122 -46.50673142 74.44883324 -46.50463867 71.21484375 C-46.50967659 70.1073175 -46.50967659 70.1073175 -46.51481628 68.97741699 C-46.52433538 66.53050059 -46.52626975 64.08365253 -46.52734375 61.63671875 C-46.53055522 59.9404294 -46.5339192 58.24414032 -46.53742981 56.54785156 C-46.54342316 52.99022784 -46.54526945 49.43262842 -46.54467773 45.875 C-46.544576 41.30822461 -46.55823916 36.74160431 -46.57544994 32.17486572 C-46.58654714 28.67137938 -46.58859766 25.16793083 -46.58806801 21.66442871 C-46.58925115 19.98025985 -46.59369154 18.29609011 -46.60140038 16.61193848 C-46.61115624 14.2607117 -46.60834009 11.90982557 -46.60229492 9.55859375 C-46.60791443 8.85827026 -46.61353394 8.15794678 -46.61932373 7.43640137 C-46.58769216 2.61503591 -46.58769216 2.61503591 -44.359375 0.38671875 C-41.63240277 0.21500972 -39.02031032 0.15426195 -36.296875 0.19921875 C-35.55115234 0.19986328 -34.80542969 0.20050781 -34.03710938 0.20117188 C-28.49965659 0.24643716 -28.49965659 0.24643716 -27.359375 1.38671875 C-27.12650492 3.06855823 -26.94673334 4.75796035 -26.796875 6.44921875 C-26.67119141 7.82787109 -26.67119141 7.82787109 -26.54296875 9.234375 C-26.48238281 9.94464844 -26.42179687 10.65492187 -26.359375 11.38671875 C-25.8334375 10.33484375 -25.8334375 10.33484375 -25.296875 9.26171875 C-19.08402012 0.04264377 -10.84880818 -2.81997166 0 0 Z " fill="#060606" transform="translate(128.359375,63.61328125)"/>
<path d="M0 0 C1.48530079 0.89416101 2.9478134 1.82823338 4.375 2.8125 C5.4475 3.534375 6.52 4.25625 7.625 5 C15.89149015 13.45436493 19.74492406 24.0407675 19.73632812 35.765625 C19.7121582 37.08820313 19.7121582 37.08820313 19.6875 38.4375 C19.69072266 39.32695313 19.69394531 40.21640625 19.69726562 41.1328125 C19.59867453 53.32225696 15.69492702 64.0386595 7.3359375 73.0546875 C0.21208841 79.440608 -7.35680145 81.21177014 -16.71875 81.0859375 C-25.0503479 80.3020506 -32.29127252 76.21068382 -37.625 69.8125 C-46.44752827 55.55921544 -47.82821332 39.26816619 -44.9375 22.92578125 C-42.16068308 13.88955618 -36.56084704 6.05665623 -28.625 0.8125 C-19.87280299 -3.61644994 -8.98306669 -4.32114134 0 0 Z " fill="#050505" transform="translate(381.625,65.1875)"/>
<path d="M0 0 C5.74114369 4.67302393 8.44954848 8.9258539 9.6875 16.1875 C9.93232129 19.27489474 9.94160976 22.3416667 9.92578125 25.4375 C9.94119365 27.19792444 9.95749674 28.95834127 9.97460938 30.71875 C9.99106171 33.45720413 9.99998042 36.19509415 9.99291992 38.93359375 C9.9902877 41.60219318 10.01848887 44.26912469 10.05078125 46.9375 C10.03547112 48.15034668 10.03547112 48.15034668 10.01985168 49.38769531 C10.11290912 54.8521817 11.37952564 58.0252314 14.71379089 62.37207031 C15.6875 64.1875 15.6875 64.1875 15.49873352 66.25366211 C14.1559887 69.45452936 11.49543308 71.34982173 8.875 73.5 C8.34068359 73.96728516 7.80636719 74.43457031 7.25585938 74.91601562 C3.329939 78.18520147 3.329939 78.18520147 0.50390625 78.1953125 C-1.68084823 76.98312614 -2.97510801 75.67812006 -4.5625 73.75 C-5.34367187 72.82380859 -5.34367187 72.82380859 -6.140625 71.87890625 C-7.3125 70.1875 -7.3125 70.1875 -7.3125 68.1875 C-8.03695312 68.74179688 -8.76140625 69.29609375 -9.5078125 69.8671875 C-10.95800781 70.95386719 -10.95800781 70.95386719 -12.4375 72.0625 C-13.38882813 72.78179687 -14.34015625 73.50109375 -15.3203125 74.2421875 C-22.50918101 78.91589053 -29.9637721 79.06824492 -38.3125 78.1875 C-43.53475044 76.66036671 -47.88849377 74.53999912 -50.8125 69.8125 C-54.00994917 62.08533118 -56.00753954 55.30598553 -53.3203125 47.19140625 C-49.51222765 38.57480748 -44.25425987 33.50543929 -35.46875 30.078125 C-31.92000423 29.07674624 -28.46951744 28.53077662 -24.8125 28.0625 C-22.90984375 27.81113281 -22.90984375 27.81113281 -20.96875 27.5546875 C-17.71506477 27.22792851 -14.57867084 27.11693458 -11.3125 27.1875 C-11.46247659 20.08793658 -11.46247659 20.08793658 -13.75 13.5 C-17.86566761 11.39197512 -21.80084637 11.33790289 -26.3125 12.1875 C-30.06484998 14.98180318 -31.96683967 18.21123818 -34.3125 22.1875 C-36.95874284 22.04728195 -39.60434578 21.90060224 -42.25 21.75 C-43.00474609 21.71068359 -43.75949219 21.67136719 -44.53710938 21.63085938 C-50.19921875 21.30078125 -50.19921875 21.30078125 -51.3125 20.1875 C-51.3125 13.32411008 -49.85991323 9.4286225 -45.40625 4.19921875 C-33.30828713 -7.42475677 -14.21840651 -7.77988281 0 0 Z " fill="#070707" transform="translate(56.3125,66.8125)"/>
<path d="M0 0 C5.05816246 5.58570087 5.33276106 11.52688261 5.28125 18.69921875 C5.29862979 20.55403833 5.3162142 22.408856 5.33398438 24.26367188 C5.34404803 27.15783195 5.34765331 30.05186807 5.34594727 32.94604492 C5.34953493 35.75996986 5.37693595 38.57296128 5.40625 41.38671875 C5.39806747 42.24216782 5.38988495 43.09761688 5.38145447 43.97898865 C5.45502969 49.97372659 6.92624012 53.96132014 9.91015625 59.109375 C11.015625 61.7421875 11.015625 61.7421875 10.91015625 64.109375 C9.05881233 66.38189209 7.40671956 68.09302121 5.22265625 69.984375 C4.67931641 70.49484375 4.13597656 71.0053125 3.57617188 71.53125 C-0.39598207 75.08553527 -0.39598207 75.08553527 -3.25 75.18359375 C-5.62847457 73.79488779 -7.08823121 72.16902096 -8.83984375 70.046875 C-9.76023437 68.94666016 -9.76023437 68.94666016 -10.69921875 67.82421875 C-11.158125 67.25832031 -11.61703125 66.69242187 -12.08984375 66.109375 C-12.82589844 66.59148437 -13.56195313 67.07359375 -14.3203125 67.5703125 C-15.29613281 68.20195312 -16.27195313 68.83359375 -17.27734375 69.484375 C-18.24027344 70.11085938 -19.20320313 70.73734375 -20.1953125 71.3828125 C-27.61262909 75.80717678 -34.66681665 75.82546657 -43.08984375 75.109375 C-49.07162846 73.51664564 -52.66641838 70.14382407 -56.08984375 65.109375 C-59.29318262 58.70269726 -58.86397726 50.59297579 -57.33984375 43.734375 C-53.68505163 36.05931155 -49.04653469 31.25115503 -41.2421875 27.87890625 C-32.59557009 24.91098429 -24.14281936 24.34180056 -15.08984375 24.109375 C-15.31844947 22.16923437 -15.57353556 20.23220086 -15.83984375 18.296875 C-15.9790625 17.21792969 -16.11828125 16.13898438 -16.26171875 15.02734375 C-16.8572168 12.05814919 -16.8572168 12.05814919 -18.88671875 10.2421875 C-21.3441678 8.97860554 -22.84295903 8.73572859 -25.58984375 8.796875 C-26.34265625 8.80074219 -27.09546875 8.80460937 -27.87109375 8.80859375 C-30.40411078 9.1519781 -31.96011769 9.69104903 -34.08984375 11.109375 C-35.41364714 13.03629133 -35.41364714 13.03629133 -36.33984375 15.234375 C-36.84257812 16.32105469 -36.84257812 16.32105469 -37.35546875 17.4296875 C-37.5978125 17.98398438 -37.84015625 18.53828125 -38.08984375 19.109375 C-44.09165745 19.32762277 -49.28218079 18.6150654 -55.08984375 17.109375 C-56.61559114 12.74018928 -55.24487397 10.29295821 -53.31640625 6.28515625 C-49.84833232 0.13319071 -43.59889527 -4.23074645 -37.03125 -6.6484375 C-23.6657042 -10.13083659 -10.94529375 -8.34305512 0 0 Z " fill="#050505" transform="translate(251.08984375,69.890625)"/>
<path d="M0 0 C5.55339489 3.22096903 8.66218207 6.90173698 11.125 12.8125 C12.0570308 16.57804614 12.2515135 20.09080996 12.25439453 23.96386719 C12.25754669 25.18152771 12.26069885 26.39918823 12.26394653 27.65374756 C12.2619223 28.95910461 12.25989807 30.26446167 12.2578125 31.609375 C12.25848646 32.96746844 12.25945726 34.32556176 12.26071167 35.68365479 C12.2621823 38.52137406 12.26005318 41.35906175 12.25537109 44.19677734 C12.24965236 47.84094099 12.2529703 51.48503134 12.25894356 55.12919235 C12.26254778 57.9292049 12.26141161 60.72919989 12.25881577 63.52921295 C12.25782164 65.52848864 12.26086535 67.52776501 12.26394653 69.52703857 C12.25921829 71.33461639 12.25921829 71.33461639 12.25439453 73.17871094 C12.25359894 74.24506775 12.25280334 75.31142456 12.25198364 76.41009521 C12.125 78.8125 12.125 78.8125 11.125 79.8125 C9.79456375 79.9108721 8.45906656 79.94328592 7.125 79.9453125 C6.320625 79.94660156 5.51625 79.94789063 4.6875 79.94921875 C3.841875 79.94535156 2.99625 79.94148438 2.125 79.9375 C1.279375 79.94136719 0.43375 79.94523437 -0.4375 79.94921875 C-1.241875 79.94792969 -2.04625 79.94664062 -2.875 79.9453125 C-3.6175 79.94418457 -4.36 79.94305664 -5.125 79.94189453 C-6.875 79.8125 -6.875 79.8125 -7.875 78.8125 C-7.98222606 77.19263496 -8.02123063 75.56819364 -8.03271484 73.94482422 C-8.04297699 72.90639374 -8.05323914 71.86796326 -8.06381226 70.79806519 C-8.07111359 69.66587555 -8.07841492 68.53368591 -8.0859375 67.3671875 C-8.11401842 64.98697243 -8.14268296 62.6067642 -8.171875 60.2265625 C-8.21307222 56.46094033 -8.24994426 52.69544392 -8.27636719 48.9296875 C-8.30403373 45.30441633 -8.34992294 41.6797317 -8.3984375 38.0546875 C-8.40169037 36.93464325 -8.40494324 35.814599 -8.40829468 34.66061401 C-8.50264018 28.63907659 -8.88212751 24.09745238 -11.875 18.8125 C-14.49714943 17.29845556 -16.9128625 17.31495347 -19.875 17.8125 C-23.70290837 20.64182358 -25.38765677 23.36888506 -26.875 27.8125 C-27.1899371 30.36692579 -27.1899371 30.36692579 -27.17797852 33.04589844 C-27.19462051 34.06335144 -27.21126251 35.08080444 -27.22840881 36.12908936 C-27.23682297 37.21570862 -27.24523712 38.30232788 -27.25390625 39.421875 C-27.27090073 40.54442688 -27.2878952 41.66697876 -27.30540466 42.82354736 C-27.35847616 46.40314138 -27.39882439 49.98272373 -27.4375 53.5625 C-27.48137606 57.1565011 -27.52799511 60.75041086 -27.58030701 64.34429932 C-27.61235784 66.58002869 -27.63921828 68.81583932 -27.66053772 71.05169678 C-27.67402756 72.05654114 -27.6875174 73.0613855 -27.70141602 74.09667969 C-27.71092789 74.98538757 -27.72043976 75.87409546 -27.73023987 76.78973389 C-27.875 78.8125 -27.875 78.8125 -28.875 79.8125 C-30.20543625 79.9108721 -31.54093344 79.94328592 -32.875 79.9453125 C-33.679375 79.94660156 -34.48375 79.94789063 -35.3125 79.94921875 C-36.158125 79.94535156 -37.00375 79.94148438 -37.875 79.9375 C-38.720625 79.94136719 -39.56625 79.94523437 -40.4375 79.94921875 C-41.241875 79.94792969 -42.04625 79.94664062 -42.875 79.9453125 C-43.6175 79.94418457 -44.36 79.94305664 -45.125 79.94189453 C-46.875 79.8125 -46.875 79.8125 -47.875 78.8125 C-47.97527985 76.41967729 -48.01118677 74.0557066 -48.00439453 71.66235352 C-48.00614685 70.91439514 -48.00789917 70.16643677 -48.00970459 69.39581299 C-48.01412375 66.91098748 -48.01118461 64.42623254 -48.0078125 61.94140625 C-48.00848559 60.22126756 -48.00945566 58.50112896 -48.01071167 56.7809906 C-48.01218879 53.17030942 -48.01003391 49.55965293 -48.00537109 45.94897461 C-47.99967807 41.31383323 -48.00295002 36.67874981 -48.00894356 32.04361057 C-48.01255244 28.48951275 -48.011409 24.93542872 -48.00881577 21.38133049 C-48.00814718 19.67204723 -48.00897254 17.96276273 -48.01129532 16.25348091 C-48.01382672 13.86630041 -48.00997414 11.47921445 -48.00439453 9.09204102 C-48.00743088 8.02517311 -48.00743088 8.02517311 -48.01052856 6.93675232 C-47.98926361 2.04102721 -47.98926361 2.04102721 -46.875 -0.1875 C-44.06243719 -0.21434312 -41.25012759 -0.23426188 -38.4375 -0.25 C-37.63505859 -0.25837891 -36.83261719 -0.26675781 -36.00585938 -0.27539062 C-33.96204779 -0.2840143 -31.91816098 -0.2397815 -29.875 -0.1875 C-28.21157163 1.47592837 -28.51451903 3.5950709 -28.3125 5.875 C-28.18681641 7.25365234 -28.18681641 7.25365234 -28.05859375 8.66015625 C-27.99800781 9.37042969 -27.93742187 10.08070312 -27.875 10.8125 C-27.33875 9.925625 -26.8025 9.03875 -26.25 8.125 C-20.26274227 -0.86654008 -10.22773945 -3.9874667 0 0 Z " fill="#030303" transform="translate(459.875,64.1875)"/>
<path d="M0 0 C4.44883918 0.23833067 7.71561573 0.54748523 11.4375 3.0625 C26.95194542 13.53625984 46.26556815 20.00577053 64.38671875 24.16796875 C67.53461279 24.89283516 70.63441398 25.71279472 73.75 26.5625 C106.01546132 34.58502639 139.93477023 33.28654851 172.5 28.125 C173.46679688 27.97579102 174.43359375 27.82658203 175.4296875 27.67285156 C182.57172987 26.47680406 189.18460841 24.4161077 196 22 C198.06924474 21.29503512 200.13956558 20.59322118 202.2109375 19.89453125 C203.22800781 19.55099609 204.24507812 19.20746094 205.29296875 18.85351562 C206.31003906 18.50998047 207.32710937 18.16644531 208.375 17.8125 C209.41527344 17.45736328 210.45554687 17.10222656 211.52734375 16.73632812 C212.53667969 16.39666016 213.54601562 16.05699219 214.5859375 15.70703125 C215.4836084 15.4025708 216.3812793 15.09811035 217.30615234 14.78442383 C225.0556701 12.52783505 225.0556701 12.52783505 228 14 C227.68271556 17.00396716 227.42441316 18.58030255 225.2421875 20.73828125 C213.5203098 28.53352335 201.1133372 34.87716763 188 40 C187.36352539 40.25523437 186.72705078 40.51046875 186.07128906 40.7734375 C165.60551796 48.84388311 144.27636965 50.36067395 122.5 50.4375 C121.67062927 50.44376404 120.84125854 50.45002808 119.98675537 50.45648193 C101.66185375 50.54409573 84.36612824 47.84147444 67 42 C65.83936035 41.61303955 65.83936035 41.61303955 64.65527344 41.21826172 C53.49624256 37.44514545 43.19568789 32.89003559 33 27 C32.08863281 26.48566406 31.17726563 25.97132813 30.23828125 25.44140625 C20.6631075 19.89472004 12.08140681 13.32713627 3.99609375 5.78515625 C2.12140655 3.95116302 2.12140655 3.95116302 0 3 C0 2.01 0 1.02 0 0 Z " fill="#FA9A06" transform="translate(68,153)"/>
<path d="M0 0 C1.01775513 -0.00315216 2.03551025 -0.00630432 3.08410645 -0.009552 C4.19137085 -0.00752777 5.29863525 -0.00550354 6.43945312 -0.00341797 C7.56766479 -0.00437469 8.69587646 -0.00533142 9.85827637 -0.00631714 C12.24910538 -0.00699915 14.63993624 -0.00514344 17.03076172 -0.00097656 C20.70479464 0.00437137 24.37870529 -0.0009209 28.05273438 -0.00732422 C30.3691409 -0.00666344 32.68554734 -0.00538229 35.00195312 -0.00341797 C36.66284973 -0.00645432 36.66284973 -0.00645432 38.3572998 -0.009552 C39.37505493 -0.00639984 40.39281006 -0.00324768 41.44140625 0 C42.79256531 0.00119339 42.79256531 0.00119339 44.17102051 0.00241089 C46.22070312 0.12939453 46.22070312 0.12939453 47.22070312 1.12939453 C48.42455751 7.04187293 48.38502003 12.57756492 45.25976562 17.84814453 C42.97152317 21.28602046 40.47285167 24.56291032 37.95458984 27.83447266 C34.72445738 32.10978175 31.71191324 36.5398393 28.65820312 40.94189453 C27.47025754 42.63650569 26.28151318 44.3305573 25.09179688 46.02392578 C23.43912672 48.37650083 21.81577278 50.73679004 20.22070312 53.12939453 C21.331875 53.29955078 22.44304687 53.46970703 23.58789062 53.64501953 C44.00991204 56.91860345 44.00991204 56.91860345 48.22070312 61.12939453 C48.29395481 63.9920702 48.31308518 66.83011353 48.28320312 69.69189453 C48.27869141 70.49820313 48.27417969 71.30451172 48.26953125 72.13525391 C48.2577083 74.13333209 48.23977227 76.13137236 48.22070312 78.12939453 C44.06391002 77.54609269 40.45744189 76.52866037 36.53320312 75.06689453 C24.4662012 71.30198993 11.70091053 71.80752399 -0.11523438 76.15673828 C-2.68054299 77.09333923 -5.07563957 77.75202894 -7.77929688 78.12939453 C-10.10393857 75.80475284 -9.27232759 70.11474377 -9.29833984 66.90356445 C-9.11113847 59.33763997 -6.47633543 54.99230515 -1.77929688 49.12939453 C-0.55839463 47.44554983 0.6376336 45.74554556 1.83398438 44.04418945 C3.0963461 42.25348245 4.37502099 40.47553944 5.65820312 38.69970703 C8.17675126 35.20321202 10.64529934 31.67389383 13.09570312 28.12939453 C13.794375 27.11876953 14.49304688 26.10814453 15.21289062 25.06689453 C17.2385165 22.10333294 19.22950268 19.1161952 21.22070312 16.12939453 C12.31070312 16.12939453 3.40070313 16.12939453 -5.77929688 16.12939453 C-5.79992187 13.67501953 -5.82054687 11.22064453 -5.84179688 8.69189453 C-5.85090088 7.91789307 -5.86000488 7.1438916 -5.86938477 6.34643555 C-5.87654601 4.60717736 -5.8295439 2.8679415 -5.77929688 1.12939453 C-4.13841943 -0.51148292 -2.26098625 0.00199698 0 0 Z " fill="#050505" transform="translate(279.779296875,63.87060546875)"/>
<path d="M0 0 C5.42814885 3.70101058 6.65229662 8.87231269 8 15 C8.3633491 18.53528851 8.37772298 22.01176088 8.3125 25.5625 C8.31733398 26.88411133 8.31733398 26.88411133 8.32226562 28.23242188 C8.25332531 36.72461486 7.41282266 44.23397167 2 51 C-1.24753328 52.62376664 -4.50153523 52.69163507 -8 52 C-12.57797284 48.01915405 -14.05440011 43.9511635 -15 38 C-15.30097064 33.66315645 -15.32481858 29.34599357 -15.3125 25 C-15.33666992 23.29457031 -15.33666992 23.29457031 -15.36132812 21.5546875 C-15.36575253 13.92700571 -15.07522486 7.41691651 -9.75 1.5 C-6.14471883 -0.466517 -4.05117425 -0.65108158 0 0 Z " fill="#F9F9F9" transform="translate(372,78)"/>
<path d="M0 0 C4.44883918 0.23833067 7.71561573 0.54748523 11.4375 3.0625 C26.50575688 13.23503918 45.44064734 19.89375863 63.10180664 23.75878906 C67.80767672 24.80767672 67.80767672 24.80767672 70 27 C65.71 27 61.42 27 57 27 C56.67 27.66 56.34 28.32 56 29 C56.99 29 57.98 29 59 29 C59.495 30.98 59.495 30.98 60 33 C59.34 33 58.68 33 58 33 C58.495 35.475 58.495 35.475 59 38 C61.97 38 64.94 38 68 38 C68 38.66 68 39.32 68 40 C68.99 40 69.98 40 71 40 C71.33 40.99 71.66 41.98 72 43 C58.08191488 39.05547357 45.54343811 34.13337415 33 27 C32.0821875 26.48308594 31.164375 25.96617187 30.21875 25.43359375 C20.65470108 19.87978686 12.07754642 13.3235353 3.99609375 5.78515625 C2.12140655 3.95116302 2.12140655 3.95116302 0 3 C0 2.01 0 1.02 0 0 Z " fill="#F79A0B" transform="translate(68,153)"/>
<path d="M0 0 C0.72509766 -0.020625 1.45019531 -0.04125 2.19726562 -0.0625 C7.39057863 -0.0998284 10.93072924 0.88331455 15.5625 3.25 C17.30530974 4.99280974 16.77626316 7.31700657 16.8125 9.6875 C16.68141284 21.99512746 11.36015158 35.42931792 2.5625 44.25 C-0.3125 45.25 -0.3125 45.25 -2.4375 45.25 C-2.06977474 41.02115947 -1.28466973 37.69724163 0.4375 33.8125 C3.36603683 26.91868154 4.35894142 19.59900161 5.5625 12.25 C4.9025 12.25 4.2425 12.25 3.5625 12.25 C3.5625 11.59 3.5625 10.93 3.5625 10.25 C-7.49311292 10.15079709 -18.42656587 10.12479505 -29.4375 11.25 C-28.6875 7.4453125 -28.6875 7.4453125 -26.4375 5.6875 C-17.85770754 1.57634945 -9.45568519 0.06688371 0 0 Z " fill="#EF9B1B" transform="translate(300.4375,147.75)"/>
<path d="M0 0 C0.66 0.66 1.32 1.32 2 2 C-0.31 2.99 -2.62 3.98 -5 5 C-4.83886719 5.80566406 -4.67773438 6.61132812 -4.51171875 7.44140625 C-3.90817668 11.63855762 -3.81601331 15.70396257 -3.8125 19.9375 C-3.80025391 20.71029297 -3.78800781 21.48308594 -3.77539062 22.27929688 C-3.76281502 27.23827773 -4.41579499 31.2974784 -6 36 C-5.34 36 -4.68 36 -4 36 C-3.67 35.01 -3.34 34.02 -3 33 C-2.67 33.99 -2.34 34.98 -2 36 C-3.12188559 37.14888283 -4.24761684 38.29401137 -5.375 39.4375 C-6.00148438 40.07558594 -6.62796875 40.71367187 -7.2734375 41.37109375 C-9 43 -9 43 -11 44 C-11.72159424 45.64363134 -12.39351421 47.31050386 -13 49 C-14.32 48.67 -15.64 48.34 -17 48 C-16.40574219 47.319375 -15.81148438 46.63875 -15.19921875 45.9375 C-12.80605902 42.74095272 -11.35445685 39.67849859 -9.8125 36 C-9.04873047 34.205625 -9.04873047 34.205625 -8.26953125 32.375 C-6.36369711 27.30841325 -5.87814615 23.08869999 -5.9375 17.6875 C-5.94652344 16.61886719 -5.95554687 15.55023438 -5.96484375 14.44921875 C-5.97644531 13.64097656 -5.98804688 12.83273438 -6 12 C-11.27308034 9.39447795 -15.33281363 8.51190799 -21.1875 8.625 C-21.92782471 8.63152588 -22.66814941 8.63805176 -23.4309082 8.64477539 C-28.97593622 8.77855677 -34.05957631 9.65026382 -39.38671875 11.24609375 C-42.23877186 12.06888336 -45.06709362 12.55770226 -48 13 C-50 10 -50 10 -50 6 C-49.01 5.34 -48.02 4.68 -47 4 C-46.72027344 3.34515625 -46.44054687 2.6903125 -46.15234375 2.015625 C-44.00636036 -1.73802729 -39.99373961 -2.12965406 -36.03515625 -3.234375 C-24.1338171 -5.79893317 -11.13628294 -5.02692179 0 0 Z " fill="#F6F5EC" transform="translate(322,140)"/>
<path d="M0 0 C0.38688044 7.66596433 0.55737316 15.26791795 -4.25390625 21.66796875 C-6.95639186 24.29681715 -9.45561253 25.34384004 -13.125 25.5625 C-17 25 -17 25 -19.4375 23.1875 C-22.28030354 19.20757504 -22.32387146 15.77710398 -22 11 C-20.71812103 7.49169966 -19.70371348 5.5473327 -16.75 3.25 C-11.09735394 0.68061543 -6.20496337 -0.25326381 0 0 Z " fill="#F4F4F4" transform="translate(236,105)"/>
<path d="M0 0 C0.64898987 8.44888664 0.78246924 14.53305349 -4.4921875 21.42578125 C-6.95267187 23.99462892 -8.9259059 24.2260358 -12.375 24.375 C-15.72248618 24.3049238 -16.74914374 24.17743492 -19.5625 22.1875 C-21.69984424 17.44817147 -21.75456622 13.11257112 -21 8 C-16.40101338 -0.49043684 -8.6310928 -0.41466104 0 0 Z " fill="#F7F7F7" transform="translate(45,106)"/>
<path d="M0 0 C-0.31728444 3.00396716 -0.57558684 4.58030255 -2.7578125 6.73828125 C-28.7146402 24 -28.7146402 24 -38 24 C-38 23.34 -38 22.68 -38 22 C-36.35 21.67 -34.7 21.34 -33 21 C-33 20.34 -33 19.68 -33 19 C-35.64 19 -38.28 19 -41 19 C-40.67 18.01 -40.34 17.02 -40 16 C-36.9375 14.8125 -36.9375 14.8125 -34 14 C-34 13.67 -34 13.34 -34 13 C-37.3 13 -40.6 13 -44 13 C-41.77119588 10.77119588 -40.64149857 10.45442383 -37.65625 9.6328125 C-31.54434514 7.88498359 -25.52777493 5.89164529 -19.5 3.875 C-18.4171875 3.51535156 -17.334375 3.15570313 -16.21875 2.78515625 C-15.1875 2.44097656 -14.15625 2.09679687 -13.09375 1.7421875 C-12.16240234 1.4313623 -11.23105469 1.12053711 -10.27148438 0.80029297 C-6.15376695 -0.65046775 -4.44761684 -0.8701859 0 0 Z " fill="#F69C11" transform="translate(296,167)"/>
<path d="M0 0 C0 0.66 0 1.32 0 2 C0.66 2 1.32 2 2 2 C2.24180918 7.86223872 1.58402765 12.41051513 -0.3125 17.9375 C-0.5396167 18.62972656 -0.7667334 19.32195312 -1.00073242 20.03515625 C-1.65657408 22.02716161 -2.32700745 24.01373726 -3 26 C-3.33 27.00160156 -3.66 28.00320312 -4 29.03515625 C-4.65652007 31.02681088 -5.32621875 33.01411843 -6 35 C-6.33 35 -6.66 35 -7 35 C-6.03644647 25.58997722 -6.03644647 25.58997722 -5 21 C-6.32 21.33 -7.64 21.66 -9 22 C-9.33 20.68 -9.66 19.36 -10 18 C-11.98491642 18.26676204 -11.98491642 18.26676204 -14 19 C-14.33 19.99 -14.66 20.98 -15 22 C-21.02694363 25.18404569 -21.02694363 25.18404569 -24.23046875 24.578125 C-25.10638672 24.29195312 -25.10638672 24.29195312 -26 24 C-25.10796875 23.45730469 -24.2159375 22.91460937 -23.296875 22.35546875 C-22.11451896 21.63291783 -20.93223087 20.9102557 -19.75 20.1875 C-18.87021484 19.65286133 -18.87021484 19.65286133 -17.97265625 19.10742188 C-12.00405478 15.94988927 -12.00405478 15.94988927 -8.25 10.8125 C-8.1675 10.214375 -8.085 9.61625 -8 9 C-12.26621401 8.80157144 -15.10204396 9.31439739 -19 11 C-19.99 11 -20.98 11 -22 11 C-22 10.34 -22 9.68 -22 9 C-20.44240657 8.46467177 -18.87861955 7.94734622 -17.3125 7.4375 C-16.44238281 7.14746094 -15.57226562 6.85742188 -14.67578125 6.55859375 C-11.75368926 5.94858039 -9.85599447 6.22296367 -7 7 C-7 9.31 -7 11.62 -7 14 C-5.68 13.67 -4.36 13.34 -3 13 C-2.34 10.03 -1.68 7.06 -1 4 C-1.99 4.33 -2.98 4.66 -4 5 C-4.66 4.67 -5.32 4.34 -6 4 C-6 3.34 -6 2.68 -6 2 C-17.385 1.505 -17.385 1.505 -29 1 C-29 0.67 -29 0.34 -29 0 C-19.38185863 -1.32664019 -9.5768514 -1.83108236 0 0 Z " fill="#FDF3D4" transform="translate(304,158)"/>
<path d="M0 0 C1.07572266 -0.00322266 2.15144531 -0.00644531 3.25976562 -0.00976562 C14.69320576 0.06820576 14.69320576 0.06820576 17.9375 3.3125 C17.95230937 5.79455078 17.8856735 8.21318328 17.75 10.6875 C17.73130859 11.37328125 17.71261719 12.0590625 17.69335938 12.765625 C17.50534462 16.15648758 17.38247247 17.88363129 14.88671875 20.2890625 C14.24347656 20.62679687 13.60023438 20.96453125 12.9375 21.3125 C12.9375 20.3225 12.9375 19.3325 12.9375 18.3125 C11.9475 18.3125 10.9575 18.3125 9.9375 18.3125 C10.2675 16.3325 10.5975 14.3525 10.9375 12.3125 C10.2775 12.3125 9.6175 12.3125 8.9375 12.3125 C8.9375 11.6525 8.9375 10.9925 8.9375 10.3125 C9.9275 10.3125 10.9175 10.3125 11.9375 10.3125 C11.9375 11.3025 11.9375 12.2925 11.9375 13.3125 C12.5975 13.3125 13.2575 13.3125 13.9375 13.3125 C13.30939827 10.34232306 13.30939827 10.34232306 11.9375 7.3125 C9.42754504 5.87326801 9.42754504 5.87326801 6.9375 5.3125 C6.6075 5.9725 6.2775 6.6325 5.9375 7.3125 C-0.6625 6.9825 -7.2625 6.6525 -14.0625 6.3125 C-14.0625 5.6525 -14.0625 4.9925 -14.0625 4.3125 C-15.3825 3.9825 -16.7025 3.6525 -18.0625 3.3125 C-12.3109651 -0.4785117 -6.7221521 -0.1010546 0 0 Z " fill="#FA9A08" transform="translate(298.0625,149.6875)"/>
<path d="M0 0 C-0.99 0.66 -1.98 1.32 -3 2 C-2.67 2.99 -2.34 3.98 -2 5 C-1.505 4.8246875 -1.01 4.649375 -0.5 4.46875 C3.70322737 3.68064487 7.92285171 4.32314136 12.15625 4.68359375 C15.70915563 4.95536452 18.57150788 4.88977534 22 4 C24.25 5.6875 24.25 5.6875 26 8 C26 9.32 26 10.64 26 12 C25.34 12 24.68 12 24 12 C24 11.01 24 10.02 24 9 C23.01 9 22.02 9 21 9 C21 12.96 21 16.92 21 21 C20.34 21 19.68 21 19 21 C18.67 24.3 18.34 27.6 18 31 C17.34 31 16.68 31 16 31 C16 32.65 16 34.3 16 36 C16.99 36 17.98 36 19 36 C19 35.34 19 34.68 19 34 C19.99 34.495 19.99 34.495 21 35 C17.67692308 40.78461538 17.67692308 40.78461538 14.25 41.875 C13.5075 41.91625 12.765 41.9575 12 42 C12.36772526 37.77115947 13.15283027 34.44724163 14.875 30.5625 C17.80353683 23.66868154 18.79644142 16.34900161 20 9 C19.34 9 18.68 9 18 9 C18 8.34 18 7.68 18 7 C6.94438708 6.90079709 -3.98906587 6.87479505 -15 8 C-14.28125 4.203125 -14.28125 4.203125 -11.75 2.375 C-4.0212766 -1.4893617 -4.0212766 -1.4893617 0 0 Z " fill="#F0991B" transform="translate(286,151)"/>
<path d="M0 0 C-0.2943775 3.2947636 -0.61713921 4.65258928 -3.109375 6.9140625 C-3.98078125 7.47867188 -4.8521875 8.04328125 -5.75 8.625 C-6.61109375 9.19476563 -7.4721875 9.76453125 -8.359375 10.3515625 C-9.23078125 10.89554688 -10.1021875 11.43953125 -11 12 C-11.89203125 12.58523437 -12.7840625 13.17046875 -13.703125 13.7734375 C-14.84007812 14.38058594 -14.84007812 14.38058594 -16 15 C-16.66 14.67 -17.32 14.34 -18 14 C-16.07423885 11.56070254 -14.19909405 9.19909405 -12 7 C-12 6.34 -12 5.68 -12 5 C-13.44122613 5.59522337 -14.87785868 6.20157619 -16.3125 6.8125 C-17.11300781 7.14894531 -17.91351563 7.48539063 -18.73828125 7.83203125 C-21.05276392 8.85106983 -21.05276392 8.85106983 -22.46875 10.6875 C-24 12 -24 12 -26.48046875 11.85546875 C-27.37378906 11.63503906 -28.26710938 11.41460937 -29.1875 11.1875 C-30.08855469 10.97480469 -30.98960937 10.76210937 -31.91796875 10.54296875 C-32.60503906 10.36378906 -33.29210937 10.18460938 -34 10 C-30.5085262 6.90446653 -26.64363302 5.76706249 -22.25 4.5 C-17.87340002 3.20108098 -13.5837082 1.91001632 -9.375 0.125 C-5.72184619 -1.09271794 -3.67696681 -1.01116587 0 0 Z " fill="#ECA227" transform="translate(296,167)"/>
<path d="M0 0 C-4.4595681 4.4595681 -12.69313439 4.88225373 -18.75 5.19140625 C-21.8392576 5.18801891 -24.91395675 5.1363718 -28 5 C-28 5.66 -28 6.32 -28 7 C-35.66802115 7.05090046 -43.33599836 7.08581765 -51.00415039 7.10986328 C-53.61028675 7.11989248 -56.21641193 7.13351911 -58.82250977 7.15087891 C-62.57831589 7.1752626 -66.33397263 7.18651424 -70.08984375 7.1953125 C-71.24645004 7.20563507 -72.40305634 7.21595764 -73.5947113 7.22659302 C-80.05813847 7.22748026 -85.75041046 6.67156999 -92 5 C-92 4.67 -92 4.34 -92 4 C-91.39865234 4.03029297 -90.79730469 4.06058594 -90.17773438 4.09179688 C-63.69800857 5.39276602 -37.63392024 6.18516158 -11.578125 0.5859375 C-7.61118568 -0.06367047 -4.01212354 -0.09721004 0 0 Z " fill="#E69D2B" transform="translate(252,180)"/>
<path d="M0 0 C0 0.66 0 1.32 0 2 C-1.65532623 3.01866229 -3.32260138 4.01810813 -5 5 C-5.33 5.66 -5.66 6.32 -6 7 C-7.8203125 7.23828125 -7.8203125 7.23828125 -10.125 7.3125 C-15.32826888 7.76603374 -18.02014681 9.82779428 -22 13 C-26.76528665 16.03245514 -30.89124166 16.43614982 -36.4140625 16.69140625 C-38.96658487 16.82910227 -38.96658487 16.82910227 -40.8203125 18.01953125 C-44.19166092 19.53603385 -47.62603911 19.20823585 -51.25 19.125 C-51.99507812 19.11597656 -52.74015625 19.10695312 -53.5078125 19.09765625 C-55.33868059 19.07418358 -57.16938238 19.03831525 -59 19 C-59 18.67 -59 18.34 -59 18 C-57.89527344 17.87625 -56.79054687 17.7525 -55.65234375 17.625 C-37.632813 15.33817774 -20.89008989 9.31604914 -4.66796875 1.25 C-2 0 -2 0 0 0 Z " fill="#FEF4D6" transform="translate(278,183)"/>
<path d="M0 0 C-18.95597203 7.56105088 -38.82749311 8.37777111 -59 8.375 C-59.86289642 8.37681274 -60.72579285 8.37862549 -61.61483765 8.38049316 C-70.92021307 8.37827773 -79.90354165 8.2204557 -89 6 C-89 5.67 -89 5.34 -89 5 C-86.89590361 4.97298592 -84.79170822 4.95359777 -82.6875 4.9375 C-81.51574219 4.92589844 -80.34398437 4.91429687 -79.13671875 4.90234375 C-76 5 -76 5 -73 6 C-68.00552905 6.24374264 -62.99998562 6.19254313 -58 6.1875 C-56.92069214 6.18858765 -56.92069214 6.18858765 -55.81958008 6.18969727 C-44.44525203 6.18842625 -33.26659883 5.62610705 -22 4 C-21.67 3.01 -21.34 2.02 -21 1 C-18.06328811 0.6377756 -15.12596806 0.28491613 -12.1875 -0.0625 C-11.35412109 -0.16626953 -10.52074219 -0.27003906 -9.66210938 -0.37695312 C-8.85966797 -0.47041016 -8.05722656 -0.56386719 -7.23046875 -0.66015625 C-6.49207764 -0.74918213 -5.75368652 -0.83820801 -4.99291992 -0.92993164 C-3 -1 -3 -1 0 0 Z " fill="#E7A239" transform="translate(249,195)"/>
<path d="M0 0 C5.64945876 0.30264958 8.93566893 1.28351025 13.5703125 4.45703125 C16.7663543 6.48667194 20.10629902 8.14074707 23.5 9.8125 C24.13631348 10.12654785 24.77262695 10.4405957 25.42822266 10.76416016 C26.95056493 11.51266933 28.47505667 12.25680431 30 13 C27 14 27 14 25.09765625 13.22265625 C24.42605469 12.83980469 23.75445312 12.45695313 23.0625 12.0625 C19.85952067 10.24192408 18.92163967 10 15 10 C16.11179163 13.33537489 17.47411298 14.63707344 20 17 C15.93065929 17 14.76132673 15.41866292 11.6875 12.8125 C10.71554688 11.99136719 9.74359375 11.17023438 8.7421875 10.32421875 C7.83726563 9.55722656 6.93234375 8.79023438 6 8 C4.77185108 7.04036273 3.54294779 6.08168788 2.3125 5.125 C1.549375 4.42375 0.78625 3.7225 0 3 C0 2.01 0 1.02 0 0 Z " fill="#EB9F2B" transform="translate(68,153)"/>
<path d="M0 0 C4.57044122 -0.17246948 8.59155678 0.04811452 13.06958008 0.99560547 C18.95243012 2.10088121 24.60265943 2.25737842 30.57421875 2.1953125 C31.62406448 2.1924826 32.67391022 2.18965271 33.75556946 2.18673706 C37.06633534 2.1756573 40.37681767 2.15057629 43.6875 2.125 C45.94986585 2.1149544 48.21223599 2.10583134 50.47460938 2.09765625 C55.98316755 2.07575815 61.49156351 2.04240476 67 2 C64.2137619 4.7862381 62.29803258 4.39629136 58.39453125 4.61328125 C57.39725761 4.66927238 57.39725761 4.66927238 56.37983704 4.72639465 C49.50483173 5.08219844 42.62912762 5.18612286 35.74584961 5.18530273 C33.6708607 5.18751776 31.59638218 5.20586396 29.52148438 5.22460938 C22.88416901 5.25202733 16.56436395 5.05327582 10.08764648 3.49194336 C6.75683062 2.70705341 3.39815901 2.37757322 0 2 C0 1.34 0 0.68 0 0 Z " fill="#FDE7B7" transform="translate(152,200)"/>
<path d="M0 0 C0.74958984 0.00451172 1.49917969 0.00902344 2.27148438 0.01367188 C4.11852383 0.02543646 5.96552213 0.04337135 7.8125 0.0625 C7.8125 0.3925 7.8125 0.7225 7.8125 1.0625 C-17.35487144 4.94891568 -41.89744451 4.61047987 -67.1875 2.0625 C-67.1875 1.7325 -67.1875 1.4025 -67.1875 1.0625 C-66.49258957 1.06472061 -65.79767914 1.06694122 -65.08171082 1.06922913 C-58.53396445 1.08926325 -51.98622663 1.10449009 -45.43845654 1.11431217 C-42.0721576 1.11953154 -38.70588398 1.12661203 -35.33959961 1.13793945 C-31.46988245 1.15003899 -27.60020134 1.15573604 -23.73046875 1.16015625 C-22.52102097 1.16531754 -21.31157318 1.17047882 -20.06547546 1.17579651 C-18.94453995 1.17587204 -17.82360443 1.17594757 -16.66870117 1.17602539 C-15.68052902 1.178246 -14.69235687 1.18046661 -13.67424011 1.18275452 C-9.05892842 0.9595659 -4.74971853 -0.05392694 0 0 Z " fill="#FCE6AF" transform="translate(227.1875,181.9375)"/>
<path d="M0 0 C5.61 0 11.22 0 17 0 C17 0.33 17 0.66 17 1 C12.05 1.33 7.1 1.66 2 2 C2.33 3.32 2.66 4.64 3 6 C2.34 6.66 1.68 7.32 1 8 C0.66679424 11.07643126 0.66679424 11.07643126 0.68115234 14.74462891 C0.67110672 15.43742447 0.6610611 16.13022003 0.65071106 16.8440094 C0.61977447 19.13818518 0.60281524 21.43224373 0.5859375 23.7265625 C0.56723423 25.31555192 0.54766146 26.90453133 0.5272522 28.49349976 C0.47583591 32.67901718 0.43626123 36.86456683 0.39910889 41.05023193 C0.35912857 45.32002803 0.30800907 49.58968895 0.2578125 53.859375 C0.16094085 62.23949113 0.07657228 70.61967393 0 79 C-0.33 79 -0.66 79 -1 79 C-1.02313763 68.9949931 -1.04092237 58.98999254 -1.05181217 48.98496437 C-1.05703788 44.33957603 -1.06412989 39.69420595 -1.07543945 35.04882812 C-1.08627939 30.56847325 -1.0922792 26.08813598 -1.09487724 21.60776901 C-1.09672949 19.89569191 -1.10034629 18.18361581 -1.10573006 16.47154617 C-1.11295514 14.07947941 -1.11399032 11.68748602 -1.11352539 9.29541016 C-1.1189183 8.22618568 -1.1189183 8.22618568 -1.12442017 7.13536072 C-1.11405216 2.22810432 -1.11405216 2.22810432 0 0 Z " fill="#373737" transform="translate(413,64)"/>
<path d="M0 0 C1.32 0 2.64 0 4 0 C5.66479104 3.32958208 5.18459065 7.03044314 5.1875 10.6875 C5.19974609 11.47833984 5.21199219 12.26917969 5.22460938 13.08398438 C5.23706743 18.11288462 4.61425606 22.23379733 3 27 C3.66 27 4.32 27 5 27 C5.33 26.01 5.66 25.02 6 24 C6.33 24.99 6.66 25.98 7 27 C5.87811441 28.14888283 4.75238316 29.29401137 3.625 30.4375 C2.99851562 31.07558594 2.37203125 31.71367187 1.7265625 32.37109375 C0 34 0 34 -2 35 C-2.72159424 36.64363134 -3.39351421 38.31050386 -4 40 C-5.32 39.67 -6.64 39.34 -8 39 C-7.10861328 37.9790625 -7.10861328 37.9790625 -6.19921875 36.9375 C-3.80605902 33.74095272 -2.35445685 30.67849859 -0.8125 27 C-0.04873047 25.205625 -0.04873047 25.205625 0.73046875 23.375 C2.58412586 18.44712387 3.17099519 14.12881964 3.25 8.875 C3.27578125 7.84117187 3.3015625 6.80734375 3.328125 5.7421875 C3.24246642 2.95939944 3.24246642 2.95939944 1.484375 1.1328125 C0.99453125 0.75898438 0.5046875 0.38515625 0 0 Z " fill="#F9EEC9" transform="translate(313,149)"/>
<path d="M0 0 C0.42667969 0.32871094 0.85335937 0.65742188 1.29296875 0.99609375 C7.71308105 5.88067403 14.34946476 10.43789503 21 15 C17.98968256 15.93423645 17.13349732 16.04449911 14 15 C14 14.34 14 13.68 14 13 C12.02 13.33 10.04 13.66 8 14 C7.67 13.34 7.34 12.68 7 12 C7.99 12 8.98 12 10 12 C6.92000054 8.32769295 4.7517398 7.43197635 0 7 C0.33 6.01 0.66 5.02 1 4 C0.61067144 1.85744207 0.61067144 1.85744207 0 0 Z " fill="#FBF4D8" transform="translate(73,160)"/>
<path d="M0 0 C-7.38773601 7.38773601 -24.7351998 6.02378419 -34.6081543 6.0637207 C-37.73914232 6.06198685 -40.86922166 6.03617074 -44 6 C-44 5.67 -44 5.34 -44 5 C-42.741875 4.89042969 -41.48375 4.78085938 -40.1875 4.66796875 C-30.51470334 3.7849985 -21.0777538 2.62734709 -11.578125 0.5859375 C-7.61118568 -0.06367047 -4.01212354 -0.09721004 0 0 Z " fill="#E7A345" transform="translate(252,180)"/>
<path d="M0 0 C3.64626185 1.00093463 6.78962732 2.20937614 10.1875 3.875 C10.5175 4.535 10.8475 5.195 11.1875 5.875 C1.77747722 8.17112756 1.77747722 8.17112756 -2.8125 7.875 C-2.8125 7.215 -2.8125 6.555 -2.8125 5.875 C-1.8225 5.215 -0.8325 4.555 0.1875 3.875 C0.1875 3.215 0.1875 2.555 0.1875 1.875 C-0.8025 1.875 -1.7925 1.875 -2.8125 1.875 C-2.8125 2.865 -2.8125 3.855 -2.8125 4.875 C-4.1325 4.215 -5.4525 3.555 -6.8125 2.875 C-4.42430827 0.57866179 -3.37081062 -0.14981381 0 0 Z " fill="#FB9903" transform="translate(98.8125,168.125)"/>
<path d="M0 0 C1.98 0 3.96 0 6 0 C6 0.66 6 1.32 6 2 C6.804375 2.2475 7.60875 2.495 8.4375 2.75 C11.21384678 3.72415677 13.67768025 4.79131503 16.3125 6.0625 C20.90861855 8.16514607 24.97456885 8.68092501 30 9 C30 9.66 30 10.32 30 11 C30.99 11 31.98 11 33 11 C33.495 12.485 33.495 12.485 34 14 C22.24317493 10.66799658 10.77083888 6.83213626 0 1 C0 0.67 0 0.34 0 0 Z " fill="#E7A84A" transform="translate(106,182)"/>
<path d="M0 0 C1.13732426 3.40401948 0.83989957 5.77456664 0.0625 9.25 C-0.13214844 10.14203125 -0.32679688 11.0340625 -0.52734375 11.953125 C-0.68332031 12.62859375 -0.83929688 13.3040625 -1 14 C-1.66 14 -2.32 14 -3 14 C-3 15.65 -3 17.3 -3 19 C-2.01 19 -1.02 19 0 19 C0 18.34 0 17.68 0 17 C0.66 17.33 1.32 17.66 2 18 C-1.32307692 23.78461538 -1.32307692 23.78461538 -4.75 24.875 C-5.4925 24.91625 -6.235 24.9575 -7 25 C-6.5368722 19.67403033 -5.05846415 15.42746215 -2.98828125 10.51171875 C-1.6304666 7.06083012 -0.80368357 3.61657605 0 0 Z " fill="#E5A33E" transform="translate(305,168)"/>
<path d="M0 0 C0 0.66 0 1.32 0 2 C-0.99 2 -1.98 2 -3 2 C-2.67 2.66 -2.34 3.32 -2 4 C-7.85688646 4.73211081 -11.5041604 2.48028193 -16 -1 C-16 -1.33 -16 -1.66 -16 -2 C-9.5019366 -4.76513336 -6.05076267 -3.32037317 0 0 Z " fill="#F89B0D" transform="translate(112,178)"/>
<path d="M0 0 C4.40675924 0.55084491 8.17953933 1.72388318 12.265625 3.37890625 C14.00677945 4.11238074 14.00677945 4.11238074 16 4 C16 3.01 16 2.02 16 1 C17.98 0.67 19.96 0.34 22 0 C22 2.31 22 4.62 22 7 C14.81225145 9.26981533 8.73026935 5.38245503 2.375 2.25 C1.59125 1.8375 0.8075 1.425 0 1 C0 0.67 0 0.34 0 0 Z " fill="#FBEFCE" transform="translate(90,162)"/>
<path d="M0 0 C0.391875 0.474375 0.78375 0.94875 1.1875 1.4375 C2.93228862 3.2240785 2.93228862 3.2240785 5.5625 3.375 C6.7690625 3.684375 6.7690625 3.684375 8 4 C9.375 6.375 9.375 6.375 10 9 C9.67 9.99 9.34 10.98 9 12 C9.66 12.33 10.32 12.66 11 13 C8.8125 13.375 8.8125 13.375 6 13 C1.62211751 8.9206095 0.36633071 6.1055119 0 0 Z " fill="#F0F0F0" transform="translate(358,117)"/>
<path d="M0 0 C0 0.33 0 0.66 0 1 C-1.65 1 -3.3 1 -5 1 C-4.43260132 5.12973628 -4.43260132 5.12973628 -3 9 C-6.32196365 10.10732122 -7.68250039 9.85064093 -11 9 C-11.66 8.67 -12.32 8.34 -13 8 C-10.64175733 0.72875178 -7.4631798 -0.43056807 0 0 Z " fill="#E8E8E8" transform="translate(372,78)"/>
<path d="M0 0 C0 1.32 0 2.64 0 4 C0.66 4 1.32 4 2 4 C1.34 6.31 0.68 8.62 0 11 C-1.98 11.33 -3.96 11.66 -6 12 C-6.32644414 7.83783725 -6.40650982 5.63686538 -4.125 2.0625 C-2 0 -2 0 0 0 Z " fill="#F0F0F0" transform="translate(30,109)"/>
<path d="M0 0 C0.33 0 0.66 0 1 0 C1.05386629 2.12472576 1.09273071 4.24983652 1.125 6.375 C1.14820313 7.55835937 1.17140625 8.74171875 1.1953125 9.9609375 C1 13 1 13 -1 15 C-1 14.34 -1 13.68 -1 13 C-2.32 12.67 -3.64 12.34 -5 12 C-5 9.33333333 -5 6.66666667 -5 4 C-4.360625 3.71125 -3.72125 3.4225 -3.0625 3.125 C-0.84793921 2.17176549 -0.84793921 2.17176549 0 0 Z " fill="#0C0C0C" transform="translate(326,65)"/>
<path d="M0 0 C0.33 0.99 0.66 1.98 1 3 C-5.3292868 8.74051593 -5.3292868 8.74051593 -10 9 C-10.66 8.67 -11.32 8.34 -12 8 C-12 7.34 -12 6.68 -12 6 C-11.34 6 -10.68 6 -10 6 C-9.79375 5.38125 -9.5875 4.7625 -9.375 4.125 C-7.2294347 0.80912635 -3.86409553 0 0 0 Z " fill="#FD9703" transform="translate(284,172)"/>
<path d="M0 0 C1.77131561 0.30975468 3.54203778 0.62290425 5.3125 0.9375 C6.79169922 1.19853516 6.79169922 1.19853516 8.30078125 1.46484375 C11 2 11 2 14 3 C13.125 7.875 13.125 7.875 12 9 C10.00041636 9.04080783 7.99954746 9.04254356 6 9 C6 8.01 6 7.02 6 6 C7.32 5.67 8.64 5.34 10 5 C7.36 4.34 4.72 3.68 2 3 C2 2.34 2 1.68 2 1 C1.34 0.67 0.68 0.34 0 0 Z " fill="#FDF6DB" transform="translate(138,196)"/>
<path d="M0 0 C-2.80838991 2.80838991 -6.16013676 3.45461601 -9.875 4.5625 C-10.59558594 4.78357422 -11.31617188 5.00464844 -12.05859375 5.23242188 C-15.35502379 6.2371349 -18.65256503 7.18286208 -22 8 C-21.67 7.34 -21.34 6.68 -21 6 C-20.34 6 -19.68 6 -19 6 C-19 5.34 -19 4.68 -19 4 C-12.37384327 0.90133798 -7.32627475 -0.47266289 0 0 Z " fill="#FDF1CA" transform="translate(282,169)"/>
<path d="M0 0 C0 0.66 0 1.32 0 2 C-1.65532623 3.01866229 -3.32260138 4.01810813 -5 5 C-5.33 5.66 -5.66 6.32 -6 7 C-7.9609375 7.34375 -7.9609375 7.34375 -10.375 7.5 C-13.89651464 7.72941463 -14.92939296 7.95292864 -18 10 C-20.1875 9.625 -20.1875 9.625 -22 9 C-18.71106997 7.49394598 -15.41842554 5.99619468 -12.125 4.5 C-11.18785156 4.07074219 -10.25070312 3.64148438 -9.28515625 3.19921875 C-8.38925781 2.79316406 -7.49335938 2.38710937 -6.5703125 1.96875 C-5.74289551 1.59169922 -4.91547852 1.21464844 -4.06298828 0.82617188 C-2 0 -2 0 0 0 Z " fill="#FBE8B5" transform="translate(278,183)"/>
<path d="M0 0 C3.3 0 6.6 0 10 0 C10.66 1.32 11.32 2.64 12 4 C7.545 3.01 7.545 3.01 3 2 C3 2.99 3 3.98 3 5 C3.99 5.33 4.98 5.66 6 6 C4.1875 6.625 4.1875 6.625 2 7 C1.01 6.34 0.02 5.68 -1 5 C-0.67 3.35 -0.34 1.7 0 0 Z " fill="#FCF0D8" transform="translate(65,151)"/>
<path d="M0 0 C6.76660235 -0.381416 12.83645738 -0.06286474 19 3 C20.75390625 4.60546875 20.75390625 4.60546875 22 6 C14.36945905 5.38955672 7.29810526 3.20378179 0 1 C0 0.67 0 0.34 0 0 Z " fill="#FCE8BC" transform="translate(114,172)"/>
<path d="M0 0 C4.34159496 0.50483662 7.49408652 1.31900734 11 4 C11 4.99 11 5.98 11 7 C9.234375 7.7109375 9.234375 7.7109375 7 8 C5.078125 6.6015625 5.078125 6.6015625 3.25 4.625 C2.63640625 3.97789062 2.0228125 3.33078125 1.390625 2.6640625 C0 1 0 1 0 0 Z " fill="#121212" transform="translate(240,137)"/>
<path d="M0 0 C0.3125 3.25 0.3125 3.25 0 7 C-2.5 9.4375 -2.5 9.4375 -5 11 C-5.66 10.67 -6.32 10.34 -7 10 C-6.195625 9.4225 -5.39125 8.845 -4.5625 8.25 C-2.02133261 6.01873107 -1.34879632 5.25543229 -1 2 C-5.26621401 1.80157144 -8.10204396 2.31439739 -12 4 C-12.99 4 -13.98 4 -15 4 C-15 3.34 -15 2.68 -15 2 C-13.44240657 1.46467177 -11.87861955 0.94734622 -10.3125 0.4375 C-9.44238281 0.14746094 -8.57226562 -0.14257812 -7.67578125 -0.44140625 C-4.75368926 -1.05141961 -2.85599447 -0.77703633 0 0 Z " fill="#FEEDBF" transform="translate(297,165)"/>
<path d="M0 0 C7.38461538 0.49230769 7.38461538 0.49230769 10.5 3.0625 C10.995 3.701875 11.49 4.34125 12 5 C10.02 5 8.04 5 6 5 C5.67 5.66 5.34 6.32 5 7 C2.5 5.1875 2.5 5.1875 0 3 C0 2.01 0 1.02 0 0 Z " fill="#E79E1F" transform="translate(68,153)"/>
<path d="M0 0 C0.73412109 0.00064453 1.46824219 0.00128906 2.22460938 0.00195312 C6.80355366 0.03851967 11.17003633 0.44155157 15.6875 1.1875 C16.0175 2.1775 16.3475 3.1675 16.6875 4.1875 C9.9375 3.3125 9.9375 3.3125 7.6875 2.1875 C6.16601674 2.10377341 4.64094222 2.08019973 3.1171875 2.08984375 C1.77333984 2.09467773 1.77333984 2.09467773 0.40234375 2.09960938 C-1.00337891 2.11217773 -1.00337891 2.11217773 -2.4375 2.125 C-3.85482422 2.13176758 -3.85482422 2.13176758 -5.30078125 2.13867188 C-7.63808387 2.15047643 -9.97526061 2.16694241 -12.3125 2.1875 C-8.22803729 -0.10168172 -4.58661436 -0.07532037 0 0 Z " fill="#FCFAE3" transform="translate(300.3125,144.8125)"/>
<path d="M0 0 C-1 3 -1 3 -4 5 C-7 6 -7 6 -10 6 C-10.66 5.34 -11.32 4.68 -12 4 C-5.27272727 -1.63636364 -5.27272727 -1.63636364 0 0 Z " fill="#171717" transform="translate(449,64)"/>
<path d="M0 0 C-6.95087944 3.80151073 -15.23409812 4.24846111 -23 5 C-22.360625 4.71125 -21.72125 4.4225 -21.0625 4.125 C-18.84793921 3.17176549 -18.84793921 3.17176549 -18 1 C-15.234375 0.5859375 -15.234375 0.5859375 -11.75 0.375 C-10.04070312 0.26285156 -10.04070312 0.26285156 -8.296875 0.1484375 C-5.5240488 0.02359461 -2.77476168 -0.0312943 0 0 Z " fill="#FBE8BA" transform="translate(258,177)"/>
<path d="M0 0 C1.9375 2.0625 1.9375 2.0625 3 4 C1.96875 3.814375 0.9375 3.62875 -0.125 3.4375 C-3.91568759 2.82836592 -3.91568759 2.82836592 -7.3125 3.5625 C-8.199375 3.706875 -9.08625 3.85125 -10 4 C-10.66 3.34 -11.32 2.68 -12 2 C-7.76015964 -1.21200027 -5.1093911 -1.41927531 0 0 Z " fill="#EBEBEB" transform="translate(117,82)"/>
<path d="M0 0 C8.73089879 2.13397899 17.42846005 4.28018444 26 7 C19.3486096 9.09257226 12.36999482 5.90784882 6.04296875 3.68359375 C4.04513511 3.01510257 2.04959966 2.4836134 0 2 C0 1.34 0 0.68 0 0 Z " fill="#E2A23B" transform="translate(112,172)"/>
<path d="M0 0 C0.66 0.99 1.32 1.98 2 3 C1.0465616 6.46704871 -0.28676594 8.6567524 -3 11 C-3.99 9.02 -4.98 7.04 -6 5 C-4.02 3.35 -2.04 1.7 0 0 Z " fill="#EFEFEF" transform="translate(142,65)"/>
<path d="M0 0 C3.3 0 6.6 0 10 0 C10 0.66 10 1.32 10 2 C11.051875 1.95875 12.10375 1.9175 13.1875 1.875 C16.74010173 1.99147875 18.84866641 2.47208068 22 4 C17.91304316 5.59412714 14.02327876 4.50750859 9.875 3.6875 C8.78251953 3.49124023 8.78251953 3.49124023 7.66796875 3.29101562 C2.25555357 2.25555357 2.25555357 2.25555357 0 0 Z " fill="#FCE2A8" transform="translate(136,178)"/>
<path d="M0 0 C1.625 2.5 1.625 2.5 3 5 C-1.54250956 6.61511451 -4.3133416 7.56221947 -9 6 C-7.8803014 4.99406757 -6.7540588 3.9954151 -5.625 3 C-4.68527344 2.1646875 -4.68527344 2.1646875 -3.7265625 1.3125 C-2 0 -2 0 0 0 Z " fill="#E3E3E3" transform="translate(49,135)"/>
<path d="M0 0 C2.64 0.33 5.28 0.66 8 1 C8 4 8 4 7 6 C4.625 5.75 4.625 5.75 2 5 C0 1.95238095 0 1.95238095 0 0 Z " fill="#E6E6E6" transform="translate(440,81)"/>
<path d="M0 0 C-4.14384731 4.14384731 -11.93722471 4.7776652 -17.63671875 5.19140625 C-19.42561441 5.18819459 -21.21418842 5.10504774 -23 5 C-23 4.67 -23 4.34 -23 4 C-22.33613281 3.87882813 -21.67226562 3.75765625 -20.98828125 3.6328125 C-15.56816395 2.64439902 -15.56816395 2.64439902 -10.375 0.875 C-6.86614742 -0.41773516 -3.72515472 -0.12627643 0 0 Z " fill="#E8A02F" transform="translate(252,180)"/>
<path d="M0 0 C5.77090912 2.8074693 11.37734275 5.90853898 17 9 C17 9.33 17 9.66 17 10 C15.35 10 13.7 10 12 10 C12 9.34 12 8.68 12 8 C10.948125 7.8453125 10.948125 7.8453125 9.875 7.6875 C6.53218852 6.88813204 3.93114425 5.7986567 1 4 C0.125 1.8125 0.125 1.8125 0 0 Z " fill="#FEEFC8" transform="translate(95,176)"/>
<path d="M0 0 C3.63 0 7.26 0 11 0 C11 0.66 11 1.32 11 2 C13.64 2.33 16.28 2.66 19 3 C19 3.33 19 3.66 19 4 C12.1781317 4.38614349 6.50422293 3.00865708 0 1 C0 0.67 0 0.34 0 0 Z " fill="#E7A739" transform="translate(141,196)"/>
<path d="M0 0 C4.42083165 0.7468201 8.58156741 2.11710006 12.8125 3.5625 C13.85180664 3.91344727 13.85180664 3.91344727 14.91210938 4.27148438 C16.60900114 4.84491676 18.30463078 5.42208169 20 6 C20 6.33 20 6.66 20 7 C17.03 7 14.06 7 11 7 C10.67 6.34 10.34 5.68 10 5 C7.65961814 3.86897474 7.65961814 3.86897474 4.9375 2.875 C4.01839844 2.52179688 3.09929687 2.16859375 2.15234375 1.8046875 C1.44207031 1.53914062 0.73179688 1.27359375 0 1 C0 0.67 0 0.34 0 0 Z " fill="#FCEABF" transform="translate(118,189)"/>
<path d="M0 0 C1.32 0 2.64 0 4 0 C2.61964507 2.85059343 1.10703513 5.55880904 -0.5625 8.25 C-0.99691406 8.95640625 -1.43132812 9.6628125 -1.87890625 10.390625 C-2.43384766 11.18726562 -2.43384766 11.18726562 -3 12 C-3.33 12 -3.66 12 -4 12 C-4 8.37 -4 4.74 -4 1 C-3.01 2.485 -3.01 2.485 -2 4 C-1.34 2.68 -0.68 1.36 0 0 Z " fill="#EEEEEE" transform="translate(435,65)"/>
<path d="M0 0 C1.98 0.66 3.96 1.32 6 2 C6 2.66 6 3.32 6 4 C6.66 4 7.32 4 8 4 C8 4.66 8 5.32 8 6 C4.37 6 0.74 6 -3 6 C-3 5.34 -3 4.68 -3 4 C-1.68 3.34 -0.36 2.68 1 2 C0.67 1.34 0.34 0.68 0 0 Z " fill="#FAF9E7" transform="translate(112,186)"/>
<path d="M0 0 C5.61 0 11.22 0 17 0 C17 0.33 17 0.66 17 1 C12.05 1.33 7.1 1.66 2 2 C2.33 3.32 2.66 4.64 3 6 C2.01 6.66 1.02 7.32 0 8 C-0.33 7.67 -0.66 7.34 -1 7 C-0.67 4.69 -0.34 2.38 0 0 Z " fill="#4B4B4B" transform="translate(413,64)"/>
<path d="M0 0 C0.99 0 1.98 0 3 0 C3.33 0.99 3.66 1.98 4 3 C2.68 3.33 1.36 3.66 0 4 C0 4.66 0 5.32 0 6 C-3.37503669 4.8141763 -5.64722731 3.72426311 -8 1 C-2.25 1.875 -2.25 1.875 0 3 C0 2.01 0 1.02 0 0 Z " fill="#EAA328" transform="translate(96,170)"/>
<path d="M0 0 C-3.07811989 1.61234852 -5.998027 2.99936715 -9.3125 4.0625 C-12.13973014 4.69844477 -12.13973014 4.69844477 -13 7 C-12.34 7.33 -11.68 7.66 -11 8 C-12.32 8 -13.64 8 -15 8 C-14.8125 6.1875 -14.8125 6.1875 -14 4 C-9.7197741 0.90872574 -5.24598531 -1.94295752 0 0 Z " fill="#DEA84A" transform="translate(286,151)"/>
<path d="M0 0 C0.33 0 0.66 0 1 0 C1.02578125 0.98742187 1.0515625 1.97484375 1.078125 2.9921875 C1.13484375 4.27351562 1.1915625 5.55484375 1.25 6.875 C1.29640625 8.15117187 1.3428125 9.42734375 1.390625 10.7421875 C1.62555056 14.09188105 1.62555056 14.09188105 4.046875 15.4453125 C4.69140625 15.62835938 5.3359375 15.81140625 6 16 C5.67 16.66 5.34 17.32 5 18 C3.35 17.67 1.7 17.34 0 17 C0 11.39 0 5.78 0 0 Z " fill="#1B1B1B" transform="translate(271,124)"/>
<path d="M0 0 C-4.29904015 3.73829578 -10.24928075 7 -16 7 C-16 6.34 -16 5.68 -16 5 C-13.36 4.34 -10.72 3.68 -8 3 C-8 2.34 -8 1.68 -8 1 C-5.29120665 -0.35439668 -2.99066732 -0.06501451 0 0 Z " fill="#E6A028" transform="translate(274,184)"/>
<path d="M0 0 C1.32830615 3.98491845 0.23204404 5.40048548 -1.4375 9.1875 C-1.91058594 10.27417969 -2.38367188 11.36085937 -2.87109375 12.48046875 C-3.24363281 13.31191406 -3.61617188 14.14335937 -4 15 C-5.32 14.67 -6.64 14.34 -8 14 C-7.4225 13.360625 -6.845 12.72125 -6.25 12.0625 C-3.47081977 8.2797269 -1.77138389 4.32481492 0 0 Z " fill="#FCE6AE" transform="translate(313,174)"/>
<path d="M0 0 C-0.5775 0.226875 -1.155 0.45375 -1.75 0.6875 C-5.52284957 2.88832892 -7.62574899 5.59655872 -8.75 9.8125 C-8.8325 10.534375 -8.915 11.25625 -9 12 C-10.32 11.34 -11.64 10.68 -13 10 C-12.34 9.67 -11.68 9.34 -11 9 C-9.95891522 7.00969087 -9.08581433 4.97178024 -8.1953125 2.91015625 C-5.95506241 -0.66985125 -3.93955559 -1.3131852 0 0 Z " fill="#E9E9E9" transform="translate(224,79)"/>
<path d="M0 0 C1.65 0 3.3 0 5 0 C5 0.99 5 1.98 5 3 C5.66 3.33 6.32 3.66 7 4 C7 4.66 7 5.32 7 6 C5.35 5.67 3.7 5.34 2 5 C2 4.34 2 3.68 2 3 C1.01 3 0.02 3 -1 3 C-0.67 2.01 -0.34 1.02 0 0 Z " fill="#F49E0D" transform="translate(137,190)"/>
<path d="M0 0 C-0.0625 1.8125 -0.0625 1.8125 -1 4 C-6.87517908 7.21472063 -6.87517908 7.21472063 -10.23046875 6.57421875 C-10.81441406 6.38472656 -11.39835937 6.19523438 -12 6 C-10.37829621 4.99466333 -8.75252763 3.99588093 -7.125 3 C-5.76761719 2.1646875 -5.76761719 2.1646875 -4.3828125 1.3125 C-2 0 -2 0 0 0 Z " fill="#FDEABD" transform="translate(290,176)"/>
<path d="M0 0 C5.75 0.75 5.75 0.75 8 3 C7.34 3 6.68 3 6 3 C5.67 3.99 5.34 4.98 5 6 C4.01 6 3.02 6 2 6 C0 3 0 3 0 0 Z " fill="#FEF8E4" transform="translate(272,147)"/>
<path d="M0 0 C-1.65 0.33 -3.3 0.66 -5 1 C-5 1.66 -5 2.32 -5 3 C-7.75078884 3.91692961 -9.35948913 4.10886083 -12.1875 4.0625 C-14.0746875 4.0315625 -14.0746875 4.0315625 -16 4 C-13.41588269 2.27725513 -11.45097344 1.31104478 -8.5625 0.3125 C-7.41974609 -0.09548828 -7.41974609 -0.09548828 -6.25390625 -0.51171875 C-3.78170279 -1.04729142 -2.37016716 -0.80445309 0 0 Z " fill="#FDE6B1" transform="translate(256,194)"/>
<path d="M0 0 C1.89213369 2.38573379 3.02391783 4.07175348 4 7 C3.01 7.99 2.02 8.98 1 10 C0.01 9.67 -0.98 9.34 -2 9 C-1.505 7.6078125 -1.505 7.6078125 -1 6.1875 C0.14967004 3.07970709 0.14967004 3.07970709 0 0 Z " fill="#EEEEEE" transform="translate(339,126)"/>
<path d="M0 0 C0.89203125 0.19464844 1.7840625 0.38929688 2.703125 0.58984375 C3.37859375 0.74582031 4.0540625 0.90179688 4.75 1.0625 C4.75 1.3925 4.75 1.7225 4.75 2.0625 C2.79196493 2.11639087 0.83351091 2.15524217 -1.125 2.1875 C-2.21554688 2.21070313 -3.30609375 2.23390625 -4.4296875 2.2578125 C-7.25 2.0625 -7.25 2.0625 -9.25 0.0625 C-5.84598052 -1.07482426 -3.47543336 -0.77739957 0 0 Z " fill="#FDFAE4" transform="translate(165.25,180.9375)"/>
<path d="M0 0 C1.98 0 3.96 0 6 0 C6 1.32 6 2.64 6 4 C6.66 4 7.32 4 8 4 C8 4.66 8 5.32 8 6 C6.68 6.33 5.36 6.66 4 7 C4 6.01 4 5.02 4 4 C2.68 3.34 1.36 2.68 0 2 C0 1.34 0 0.68 0 0 Z " fill="#FBFDED" transform="translate(284,159)"/>
<path d="M0 0 C0.66 0 1.32 0 2 0 C1.67 1.32 1.34 2.64 1 4 C1.66 4 2.32 4 3 4 C2.67 5.65 2.34 7.3 2 9 C1.01 9.33 0.02 9.66 -1 10 C-2.46726798 6.18510326 -1.43336419 3.70988378 0 0 Z " fill="#191919" transform="translate(197,77)"/>
<path d="M0 0 C0.928125 0.165 1.85625 0.33 2.8125 0.5 C5.95621353 1.07748388 5.95621353 1.07748388 9 1 C9.66 1 10.32 1 11 1 C10.67 2.65 10.34 4.3 10 6 C6.7 4.35 3.4 2.7 0 1 C0 0.67 0 0.34 0 0 Z " fill="#DEDEDE" transform="translate(241,64)"/>
<path d="M0 0 C2.64 0 5.28 0 8 0 C8 0.66 8 1.32 8 2 C8.99 2 9.98 2 11 2 C11.33 2.99 11.66 3.98 12 5 C10.37276701 4.54965877 8.74826336 4.08944646 7.125 3.625 C5.76761719 3.24214844 5.76761719 3.24214844 4.3828125 2.8515625 C2 2 2 2 0 0 Z " fill="#E5A328" transform="translate(128,191)"/>
<path d="M0 0 C5.53846154 0.61538462 5.53846154 0.61538462 7.875 2.5625 C8.431875 3.2740625 8.431875 3.2740625 9 4 C7.824375 3.9690625 7.824375 3.9690625 6.625 3.9375 C4.01885039 3.81315937 4.01885039 3.81315937 2 5 C1.01 4.01 0.02 3.02 -1 2 C-0.67 1.34 -0.34 0.68 0 0 Z " fill="#0D0D0D" transform="translate(241,66)"/>
<path d="M0 0 C0.33 1.32 0.66 2.64 1 4 C0.01 4.33 -0.98 4.66 -2 5 C-2.33 5.99 -2.66 6.98 -3 8 C-4.32 7.34 -5.64 6.68 -7 6 C-4.69 4.02 -2.38 2.04 0 0 Z " fill="#EDEDED" transform="translate(71,134)"/>
<path d="M0 0 C0.66 0.33 1.32 0.66 2 1 C2 2.65 2 4.3 2 6 C-1.465 7.485 -1.465 7.485 -5 9 C-3.50163895 5.88801935 -1.80066242 2.9465385 0 0 Z " fill="#EEEEEE" transform="translate(324,81)"/>
<path d="M0 0 C2.26961192 2.26961192 3.1025444 3.93369336 4 7 C3.01 8.485 3.01 8.485 2 10 C1.34 10 0.68 10 0 10 C-1.125 6.25 -1.125 6.25 0 4 C0 2.68 0 1.36 0 0 Z " fill="#E9E9E9" transform="translate(3,131)"/>
<path d="M0 0 C0 2.64 0 5.28 0 8 C-0.99 8 -1.98 8 -3 8 C-3.6875 5.6875 -3.6875 5.6875 -4 3 C-1.72413793 0 -1.72413793 0 0 0 Z " fill="#080808" transform="translate(431,69)"/>
<path d="M0 0 C0.66 0 1.32 0 2 0 C2.33 1.32 2.66 2.64 3 4 C1.68 4.33 0.36 4.66 -1 5 C-1.33 6.32 -1.66 7.64 -2 9 C-2.99 8.67 -3.98 8.34 -5 8 C-4.21718695 6.66144944 -3.42348123 5.32926356 -2.625 4 C-2.18414062 3.2575 -1.74328125 2.515 -1.2890625 1.75 C-0.86367188 1.1725 -0.43828125 0.595 0 0 Z " fill="#E2E2E2" transform="translate(317,91)"/>
<path d="M0 0 C0 3 0 3 -2 6 C-3.96752828 7.06246527 -5.96587579 8.07137808 -8 9 C-6.64531705 4.12314139 -4.28324091 2.51407619 0 0 Z " fill="#141414" transform="translate(207,67)"/>
<path d="M0 0 C0.66 0.99 1.32 1.98 2 3 C-1 5 -1 5 -3.0625 4.8125 C-5 4 -5 4 -7 1 C-4.69 1.33 -2.38 1.66 0 2 C0 1.34 0 0.68 0 0 Z " fill="#262626" transform="translate(60,140)"/>
<path d="M0 0 C2.625 0.375 2.625 0.375 5 1 C3.35 2.65 1.7 4.3 0 6 C-0.66 4.68 -1.32 3.36 -2 2 C-1.34 1.34 -0.68 0.68 0 0 Z " fill="#F0F0F0" transform="translate(11,66)"/>
<path d="M0 0 C2.64 0.33 5.28 0.66 8 1 C8.33 2.32 8.66 3.64 9 5 C5.22454612 3.90931332 2.52956528 3.0916909 0 0 Z " fill="#FDEBB9" transform="translate(77,155)"/>
<path d="M0 0 C2 1 2 1 3.125 4.0625 C3.41375 5.031875 3.7025 6.00125 4 7 C3.34 7.66 2.68 8.32 2 9 C-1.07692308 4.56923077 -1.07692308 4.56923077 -0.6875 1.6875 C-0.460625 1.130625 -0.23375 0.57375 0 0 Z " fill="#ECECEC" transform="translate(68,121)"/>
<path d="M0 0 C6.52307692 0.49230769 6.52307692 0.49230769 8.9375 3.0625 C9.288125 3.701875 9.63875 4.34125 10 5 C7.69 4.34 5.38 3.68 3 3 C3 2.34 3 1.68 3 1 C2.01 0.67 1.02 0.34 0 0 Z " fill="#CCCCCC" transform="translate(110,81)"/>
<path d="M0 0 C-0.33 0.66 -0.66 1.32 -1 2 C-3.06640625 2.4140625 -3.06640625 2.4140625 -5.5625 2.625 C-6.38878906 2.69976562 -7.21507812 2.77453125 -8.06640625 2.8515625 C-9.02353516 2.92503906 -9.02353516 2.92503906 -10 3 C-8.0130571 -0.97388579 -3.91761109 -0.08705802 0 0 Z " fill="#FDFCE3" transform="translate(240,179)"/>
<path d="M0 0 C2.31 0.66 4.62 1.32 7 2 C7 2.66 7 3.32 7 4 C8.32 4.33 9.64 4.66 11 5 C8 6 8 6 5.95703125 5.0390625 C5.24933594 4.57242188 4.54164062 4.10578125 3.8125 3.625 C3.09707031 3.16351563 2.38164063 2.70203125 1.64453125 2.2265625 C1.10183594 1.82179687 0.55914062 1.41703125 0 1 C0 0.67 0 0.34 0 0 Z " fill="#E6AA3D" transform="translate(96,176)"/>
<path d="M0 0 C6.15234375 0.5859375 6.15234375 0.5859375 8 1 C8.33 1.66 8.66 2.32 9 3 C6.03 2.505 6.03 2.505 3 2 C2.67 2.66 2.34 3.32 2 4 C1.34 3.67 0.68 3.34 0 3 C0 2.01 0 1.02 0 0 Z " fill="#E6AB54" transform="translate(68,153)"/>
<path d="M0 0 C-0.33 0.99 -0.66 1.98 -1 3 C-7.93 2.505 -7.93 2.505 -15 2 C-15 1.67 -15 1.34 -15 1 C-12.8750734 0.83240016 -10.75005624 0.66594799 -8.625 0.5 C-7.44164062 0.4071875 -6.25828125 0.314375 -5.0390625 0.21875 C-3.36213157 0.09804546 -1.68126944 0 0 0 Z " fill="#E2E2E2" transform="translate(225,144)"/>
<path d="M0 0 C0.66 0 1.32 0 2 0 C1.35455571 3.48539917 -0.10134397 6.02819057 -2 9 C-2.625 7.1875 -2.625 7.1875 -3 5 C-2.34 4.01 -1.68 3.02 -1 2 C-0.67 1.34 -0.34 0.68 0 0 Z " fill="#E39E37" transform="translate(310,176)"/>
<path d="M0 0 C0.99 0.33 1.98 0.66 3 1 C1.68 2.65 0.36 4.3 -1 6 C-1.99 5.67 -2.98 5.34 -4 5 C-2.68 3.35 -1.36 1.7 0 0 Z " fill="#FCF5DF" transform="translate(271,153)"/>
<path d="M0 0 C2.1385485 2.1385485 2.42655063 3.13275314 3 6 C2.01 6.33 1.02 6.66 0 7 C-0.66 6.67 -1.32 6.34 -2 6 C-1.34 4.02 -0.68 2.04 0 0 Z " fill="#EFEFEF" transform="translate(259,136)"/>
<path d="M0 0 C0.33 0.99 0.66 1.98 1 3 C-0.9375 6.1875 -0.9375 6.1875 -3 9 C-3.33 8.01 -3.66 7.02 -4 6 C-2.0625 2.8125 -2.0625 2.8125 0 0 Z " fill="#E3E3E3" transform="translate(234,118)"/>
<path d="M0 0 C0 0.66 0 1.32 0 2 C0.66 2.33 1.32 2.66 2 3 C-0.31 3.66 -2.62 4.32 -5 5 C-5.33 4.01 -5.66 3.02 -6 2 C-2.25 0 -2.25 0 0 0 Z " fill="#0C0C0C" transform="translate(367,75)"/>
<path d="M0 0 C-1.39332574 3.36720387 -2.9789286 4.9859524 -6 7 C-6.33 6.34 -6.66 5.68 -7 5 C-6.34 4.67 -5.68 4.34 -5 4 C-4.67 3.01 -4.34 2.02 -4 1 C-2 0 -2 0 0 0 Z " fill="#131313" transform="translate(392,133)"/>
<path d="M0 0 C0.66 0 1.32 0 2 0 C2.33 0.99 2.66 1.98 3 3 C2.34 3.66 1.68 4.32 1 5 C1 4.34 1 3.68 1 3 C0.01 3.99 -0.98 4.98 -2 6 C-2.66 5.67 -3.32 5.34 -4 5 C-2.71937515 3.2925002 -1.38232443 1.62626404 0 0 Z " fill="#E8E8E8" transform="translate(28,79)"/>
<path d="M0 0 C0.66 0 1.32 0 2 0 C2 1.65 2 3.3 2 5 C0.02 5.99 0.02 5.99 -2 7 C-1.125 1.125 -1.125 1.125 0 0 Z " fill="#161616" transform="translate(344,74)"/>
</svg>
